<svg id="Layer_1" data-name="Layer 1" xmlns="http://www.w3.org/2000/svg" viewBox="0 0 189.85 178.42"><defs><style>.cls-1{fill:#231f20}.cls-2{fill:#fff}</style></defs><title>fav</title><path class="cls-1" d="M188.06 67.1l-1.79-.19-1.82-.27-1.82.22-1.86-.35-.25.79-1.49.26-1.6-.09-1.61.08-1.6.09-1.6.13-1.52-.52-1.66-.28.87-.14-1.7.13-1.7.13-1.7-.45-1.7.44-1.7-.07-1.71.01-1.66.23.12.4-.46-1.13-1.6-.02-1.54.59-.19-.18-.28.07-2.23.24-1.85.08-1.87.54-1.74-.67-1.87-.22-.22.35-.21-.46-1.67.39-1.67.12-1.72-.12-1.69-.04-1.68.39-1.7.05-1.72.16.56-.73-1.25-.24-1.71.29-1.69.79-1.78-.59.04.25-1.88.46.39-.63-1.18.33 1.16-.69-1.78.22.16-.24-1.23-.08-.57.09.16 1.01-.37-.56-2.31-.45.05-.25.09.53-.1-.67-1.91.14-.79-1.34-.49-1.53v-1.7l-1.07-1.33.17.03-.07 1.12-.81-1.13.46-1.62-.22-.3-.08-.63-.26 1.49-.43-1.49-1.05-1.32-.23-1.59 1.55 1.33-.4-1.35-.36-1.39-1.35-.96-.31-1.58-.71-1.45-.44-1.54-.07-1.62-.43-1.54-.77-1.37.82-.26-.35-.6-1.02-.29-.49-1.08 1.35.28-.63-1.5-.32-1.56-.83-1.39-.59-1.47-.23-1.59-.29-1.57-1.01-1.34-.13-1.64-1.22-1.1-.69-1.41-.44-1.5.04-1.58.42.04-.63-1.39-.37-1.47-.2-1.53-.47-1.44-.9-1.3-.02-1.63-.61.23-.44-.99-1.16-.71 1.04-.69-.18.23-.19-1.46-.6-1.33-.44-1.39-.5-1.3-.47-.56-.86-1.14-.04-1.2 1.03 1.16-.34-1.66-.47-1.63-.98-1.47-.54-1.6.07-.13.08.38-1.08 1.09-.18 1.68-1.13-.24v1.55l.11 1.42-.21 1.41-.62.94-.41-.51-.12.79-.94.99-.19 1.78-.74 1.59-.44 1.69-.81 1.58-.09 1.76.62-1.7.28 1.42-.36 1.46-.68 1.24-.37 1.45-.89-.52-.58 1.2-.26 1.3.67.48.4-.8-.05-1.07.15 1.1-.67.74.35.13-.05.31.18.37-.05 1.57.07.3-.27-.26-.1-1.8-.39-.08-.45 1.85.56 1.94.28-.28-.1 1.12-.3-.14-.18.29.09-.14-.93-.48-.47 2.28-.3.07-.33.18-.03 1.71-.9 1.41-.43 1.47-.61-.27-.6 1.79.54 1.79-.84 1.21.68.24.47 1.3-1.44.24.98 1.4-1.1 1.39-.98-.51.17 1.73-.58 1.37-1.03-.43-.36.99.47 1.82-.31 1.64-.96.45-.37.91.2-.32-.17.1-.33.49.22.33.11 1.45-.48 1.47.14 1.59-.97 1.28-.25 1.73-.97.4-.48 1.84-.83 1.7-.38 1.84-.18-.73-.21.93h-1.69l-1.57-.45-1.57.5-1.58-.18-1.58.01-1.52-.01 1.63-.01-1.74.32-1.35-.61-.97.22.89.51-1.28.12-1.56.1-1.8.24 1.49-1-1.24-.28-1.24.31-1.67.69-1.83-.21-1.83-.08-1.81.08-.66.13.08-.5-1.56.48-1.46.09-.08-.91-.28.28-.87.7-1.09.18.89-1.03-1.74.35-1.75-.23-1.76-.33-1.75-.16-1.75.72-1.76-.69-1.79.12-1.63.64-1.63.85-1.77-.2-2.09-.12.14-.7-1.54.12-1.55-.67-1.55.47-1.55-.44-1.56.05-1.55-.1-1.55.12-1.56.31-1.57-.25-.96.43.12-.64-1.62.09-1.6.54-1.61-.34-1.6-.01-1.61.01-1.76.03 1.4 1.23 1.42.98 1.59.72 1.3 1.14 1.22 1.23 1.47.91 1.31 1.14 1.65.63h.78l-1.33-1.48 2.08.52.37 2.08.6.24-.3-1.38 1.03.83 1.06 1.13 1.49.63-1.38.27-1.24-.31 1.35.62.9 1.4 1.7-.27 1.47.68 1.29 1.04 1.47.88 1.25 1.12 1.25 1.09 1.71.76-.56.93 1.08 1.35 1.33 1.03 1.41.95 1.48.85 1.38.98 1.38.99 1.22 1.21 1.7.47 1.32 1.07 1.8.26 1.32 1.13 1.33 1.28-.73.32.44.57 1.32-.32h1.44l-2.34.41 1.53.7 1.15 1.22 1.39.91 1.33 1 1.34.95.05-.75.85.99 1.52.14-.45.75-1.01.17 1.46.71 1.3.89 1.24.98 1.29.94 1.06-.3 1.31.47 1.01.94-1.3.09-1.31-.55 2.11.97-.69 2.09-1.14 1.75.69.32-.12-1.76.83-1.73.41 1.94-.38 1.65-.82 1.34-.03 1.77-1.16-.12-.51.65.19 1.63.5 1.44 1.41.6 1.65.1 1.41.93 1.68.04 1.45.81-1.58-.41-1.58-.37-1.52-.56-1.53-.54-1.69-.47-.66 1.08-.35-1.02-.16-.19-.38 1.35-.33 1.28-1.07 1.28.05.83-.25 1.8-.86 1.61-.16 1.73.43-1.59.11 1.77-.68 1.72-.54 1.7-1.02-.44-.08 1.57-.25 1.48-.05.11-.17.55-.68 1.55-.3-.22-.04.31.23 1.49-.12.71-1.13 1.47.39.01-.01-.08.07-.35-.64 2.04-.71 1.53-.03 1.64-.46-.04-.33.24-.44 1.14-.18.6.55 1.18-1.2.17.19.65 1.12 1.14-1.24.64 1.2 1.35-1.21 1.37-.9-.19-.36 1.25-.28 1.23-.24.04-.93 1.23.16 1.34-.16 1.28-.8 1.17-.04.45h-.04l-.61 1.73-.23 1.75-.51 1.69-.38 1.92-.73-.08-.51 1.53.19.15-.54 1.52-.84 1.43-.38.72-.72 1.67 1.83-.7.87-1.67.85 1.23 1.64-1.34.61-1.92 1.6-.42-.48.34 1.2-.81 1.36-.73 1.29-.81 1.02-1.2 1.61-.37 1.11-1.07 1.35-.82-1.45.58.55-1.34 1.56-.24 1.17-.93 1.09-.93.37.37 1.79-1.21-.52-.01-.59.55.67-.44.62-.28.22-.4-.11-.28.34-.21-.19-.3.64-1.55.86.07-.38.29-.69 1.64-.13.11 1.51-1.1.43-2.12-.28.31 1-.82.02.1.53-.32-.58.51.42.93 1.54-1.05 1.43-.62.99-1.21 1.35-.75.92-1.28.45.68.61-.92.63-.15.46-.81.6-.83.32.37 1.31-.49-.45-1.66 1.34.11.48-1.42 1.52-.52.41.95 1.3-1.35.86-1.25.32.46 1.57-.9.46-1.28 1.38-.88.4.93 1.48-1.18.03-.06.79-1.36.89-1.27 1.34-.82 1.22-.92 1.37-.78.53.25 1.45-.78.52-.41 1.16-.89 1.18-.86.81-1-.04.29.78-.7.16.16 1.53.21 1.69.83.93 1.62 2.09.13-.66.9 1.4 1.45 2.1-.13.99 1.55-1.09.1 1.55.57 1.11 1.09 1.32.8 1.06 1.16 1.55.48 1.14 1 2 .55.93 1.9.98 1.02.79-.44-.24.4 1.25.8 1 1.15.32-.54.23.5.34-.68 1.42.74.32.68-.32-.75-1.85.02-.26.26 1.87 1.09 1.82.08-.39-.65.83 1.12.11.03.44.05-.43-.31-.52.85 1.2 1.25 1.37 1.04 1.56.79 1.31 1.13.84-.05.14.08.74 1.25 1 .92.8-.21-.36.39 1.1.73 1.8-.61-1.1 1.25 1.03.71 1.54-.87.73 1.81-.29.46 1.24.85 1.16.78.35-.34.74 1.34 1.15.8 1.3.59.01.11.14-.2 1.26 1.32 1.76.62 1.41 1.11.81 1.32 1.2.79 1.48.75 1.25 1.08 1.47.77 1.26 1.08-.96-1.8-.6-1.9-.1-1.37-1.18-.9.62-.51-.27-.93-.89-1.51.48-.44-.63-2.14-1.5-.87.28-1.44-.12.02v-1.66l-.83-1.41.04-1.69-.83-1.41-.29-1.65-1.43-.69.33-1.46-.27-1.42-.4-.09v-1.16l.19-.04-.42-.9-.71-.5.32-.73.07-.54-.75.53-.03-.82-.92.67-.88-1.28.1-.23-.04.32 1.66.89.68-.29-.71-1.69-1.9-1.1-.14.83-.35-1.28.12-.09-.22-.45.11.24 1.19-.44-.53-1.32-.17-1.82-.7-1.64-.63-1.61.45-.06-.21-.82-.74-.81.01-.55-.84-.58.63-.68-.52-.7-1.01.16-1.13-.32.95-.5.38-.89-2.08-.26.17-1.76 1.31-.29-1.2-1.01-.42-1.53 1.01-.29-.35-1.18-.92-1.17-.9-.98.28-.73.32-1.11-.35-.27-.21-.12-1.07-1.21-.65-1.49-.67-1.49-.92-1.07-.94-1.25.93-1.13.17 1.49.69 1.23-.63-1.53.95-1.06-.65-1.57-.69-1.73.51-.28-1.1-1.09.65.06-.5-.71 1.3-.71.93-1.15 1.59-.44-1.61.51.9-1.42 1.61-.32.95-.28-1.33.07.99-1.02 1.37-.74 1.19-1.17-.54 1.36 1.06-.66 1.26-.5.52-1.58 1.33-.8 1.21-.97 1.37-.72 1.42-.65 1.13-1.1 1.04-1.11.24.17.53-.07 1.1-1.75.29 1.12 1.07-1.27 1.31-.89 1.25-.98 1.41-.75 1.31-.9 1.12-1.15 1.54-.58 1.33-.92.88-1.19.95-1.09 1.31-.64 1.09-1.09.08.44 1.37-.94 1.42-.87 1.12-1.28.17.21.14.16 1.24-1.7 1.85-.88-.4-.26 1.02-.8.89-1.08.59.54-.13.23 1.42-1.29 1.65-.97 1.46-1.21.11-.91 1.22-.66 1.1-1.4-1.07 1.92 1.47-.64 1.37-.81.89-1.49 1.62-.46 1.27-.95 1.08-1.22 1.3-.86-1.06-.14-.75.74.02-.36z"/><path class="cls-1" d="M7.21 68.83l-1.07-.24.1.3-.99-.22-.81.16.44-.51.11-.83.68.52 1.85-.89-.31 1.71zM13.66 68.86l-.3-1.03 1.58-.57 1.18.93-1.33.11-1.13.56z"/><path class="cls-1" d="M20.33 82.89l.21.55z" transform="translate(-.23 -5.83)"/><path class="cls-1" d="M19.8 70.6l-.61-.69 1.54-1.01.04.97-.97.73z"/><path class="cls-1" d="M26.09 82.89l.21.55zM48 73.79l-.48-.36z" transform="translate(-.23 -5.83)"/><path class="cls-1" d="M26.45 85.96l1.1-.75 1.19.81-1.13.35-1.16-.41zM32.46 74.5l-.3-.69 1.53-.66 1.38.57 1.7-.22-1.27.74-1.58-.24-1.46.5zM38.3 73.84l1.43.15 1.03-.13H41.68l-1.76.78-1.62-.8zM42.95 95.22l-.41-.14-.01.41.35.14-.27.14-.7-.62-.27.07-.14-.28v-.2l1.04-.08.13.42.28-.14v.28zM43.09 95.84v-.21l.41-.07-.41.28zM41.98 73.86l1.84-.3 1.85-.1 1.55-.94-.99 1.16-1.39.65-1.52.18-1.34-.65zM46.81 98.83l.57-.79 1.21.01.07.92-1.85-.14z"/><path class="cls-1" d="M47.07 102.82l2.14-.36zM49.92 102.47l1.43-.36z" transform="translate(-.23 -5.83)"/><path class="cls-1" d="M56.21 77.06l-.07.07H56l-.07-.07v-.14l.07-.06h.14l.07.06v.14zM56.41 76.99v-.55l.35.48-.35.07z"/><path class="cls-1" d="M63 114.65l.42-.14zM64 121.49l.35.69z" transform="translate(-.23 -5.83)"/><path class="cls-1" d="M49.39 146.65l-.82-1.26.46-2.11 1.16 1.04-.62 1.01-.18 1.32zM55.41 145.78l-.24-.95.72.35-.48.6z"/><path class="cls-1" d="M58.37 130.67l1.19.35z" transform="translate(-.23 -5.83)"/><path class="cls-1" d="M68.74 101.27h-.95l.83-.47.12.47z"/><path class="cls-1" d="M68 104.24l.36.6zM67.3 99.73l-1.43.59zM66 128.88l-1.19-.24z" transform="translate(-.23 -5.83)"/><path class="cls-1" d="M60.76 126.14l1.22.47 1.16.6-1.23-.41-1.15-.66zM65.09 156.14l-1.73 1.53-.29-1.53 1.15-.52.98-1.02-.11 1.54zM63.98 127.81l1.21.38 1.17.45-1.26-.23-1.12-.6z"/><path class="cls-1" d="M65.89 111.34l.83-.28zM66.7 134.71l1.31.12zM67.89 112.44l-.41-.14z" transform="translate(-.23 -5.83)"/><path class="cls-1" d="M68.62 116.5v-.24l.35-.12.24.48-.59-.12zM68.64 104.61l-1.18.27 2.14-.55-.96.28z"/><path class="cls-1" d="M69.69 108.78l.62-.27z" transform="translate(-.23 -5.83)"/><path class="cls-1" d="M72.99 68.12l-1.84-.35 1.13-.43.71.78zM71 101.75h-.36l.24-1.19.71.12-.35.95.12-.95-.36.12.12.83-.12.12z"/><path class="cls-1" d="M71.42 109.89l1-.34zM72.31 120.11l.83.55zM71.62 116.44l1.93-.13zM73.48 123.35z" transform="translate(-.23 -5.83)"/><path class="cls-1" d="M99.64 19.58l1.41 1.18-.92.31-.98-.71.49-.78zM99.01 62.08l-.34-.07.06-.21.28.28z"/><path class="cls-1" d="M99.1 22.49l-.35.14zM97.51 73.43l.21.21zM96.27 60.45l-.27-.34zM96.2 26.42l-.27-.34zM95 25.8l.07.35z" transform="translate(-.23 -5.83)"/><path class="cls-1" d="M94.92 55.94l-.24.47.83.72h-.83l.35-.24-.47-.48-.24.96-1.66-.48.23-.95.36.23h-.48l.72.83 1.43-1.06zM93.76 59.04l-.34-.07.14-.2.2.27zM93.49 54.63l.47-.24.24.24-.95 1.19.24-1.19zM93.25 53.44l-.12-.36.12.59h-.47l.47-.23zM92.77 54.15l.48.12v.83l-.6-.24-.23.12.36.36-.6-.24.59-.95z"/><path class="cls-1" d="M90.54 38.36l-.35-.28zM90.67 65.43l-.27.34z" transform="translate(-.23 -5.83)"/><path class="cls-1" d="M88.38 60.7l.07.35-.28-.14.21-.21zM88.17 60.42l-.35.42-.06-.35.41-.07zM85.42 31.91l1.14 1.07-.62 1.11-.19 1.4-.82-1.32.49-2.26z"/><path class="cls-1" d="M85.84 113.06l-2.14.28z" transform="translate(-.23 -5.83)"/><path class="cls-1" d="M83.75 61.94l.21.14-.41-.07.2-.07z"/><path class="cls-1" d="M83.42 66.32L83 66zM81.29 56.23l.91 1.71zM81.56 66l.62-.07z" transform="translate(-.23 -5.83)"/><path class="cls-1" d="M81.54 61.8l-.34.07-.14-.2.48.13zM81.27 66.57l1.52.42 1.44.61-1.75-.44-1.7-.59h.49z"/><path class="cls-1" d="M83.15 113.41l-1 .06zM82 109.68l.41.21z" transform="translate(-.23 -5.83)"/><path class="cls-1" d="M79.27 54.97v.35h-.07l-.07.06-.07-.41h.21z"/><path class="cls-1" d="M78.8 60.59l.07.41zM76.45 123.21l-.48.07zM74.79 137.33l1.19.35zM75.69 123.49l.35-.14zM76.1 137.8l1.31.36z" transform="translate(-.23 -5.83)"/><path class="cls-1" d="M77.54 117.03l-.07-.13.42.13h-.35z"/><path class="cls-1" d="M77.21 70.95l1.59.41zM80.73 72.05l-1.93-.49zM79.84 76.82l.62.34zM80.46 113.75l-.83-.07zM86.26 138.05l.28.42z" transform="translate(-.23 -5.83)"/><path class="cls-1" d="M79.62 117.44l.13-.07 1.35.71 1.37.69 1.36.69 1.33.75 1.29.83-1.38-.7-1.38-.68-1.37-.73-1.37-.72-1.33-.77zM85.82 107.23l1.32-.4 1.37-.15-1.33.35-1.36.2zM87.69 116.62v-.06l-.63-.28.21-.63v.49l.14.2.07-.27.21.55z"/><path class="cls-1" d="M88.26 124.59zM88.74 122.59l.41-.06z" transform="translate(-.23 -5.83)"/><path class="cls-1" d="M88.93 116.14l.28.2-.28.21v-.41zM89.21 118.83l1.59.27-1.8-.2.21-.07z"/><path class="cls-1" d="M89.57 112.17l1.24-.21zM92.82 126.73l-2.08-.73z" transform="translate(-.23 -5.83)"/><path class="cls-1" d="M92.58 124.08h-.06l-1.25-.6-1.25-.63-1.23-.64 1.33.49 1.25.66 1.21.72zM91.35 126.03l.71-1.19-.12.35.59-.47.6-.6-.8 1.03-.98.88zM94.31 134.64l-.13-.55.41.2-.28.35zM91.28 119.32l.83-.01 1.52.28 1.5.35 1.5.4 1.48.46 1.45.51-1.64-.45-1.65-.43-1.66-.39-1.66-.38-1.67-.34z"/><path class="cls-1" d="M92.06 111.75l-.83.21z" transform="translate(-.23 -5.83)"/><path class="cls-1" d="M91.69 74.03l.35-.56.34.14-.14.41-.55.01zM93.61 108.05l.36-.59.23.12v.24l-.59.23zM95.87 108.65l-1.07-.36.83-.35-.24-.48.24-.24.6.48-.36.95zM95.16 106.99l-.24-.84.71.84h-.47z"/><path class="cls-1" d="M95.28 107.22l-.12.6h-.48l-.36-.48.96-.12z"/><path class="cls-1" d="M96.13 128.32l.69.21zM97.65 129.08l1.38.62zM99.51 130l1.38.49zM100.55 127.28l-.69-.13zM100.48 110.71l.83-.34zM101 130.67l.76.07zM101.72 113l.21.35z" transform="translate(-.23 -5.83)"/><path class="cls-1" d="M101.49 108.82l.49-.28.07.28h-.56zM101.98 117.66v-.14l.21-.07.13.28-.34-.07zM103.5 109.03l.07-.56-.21.07.07.49-.07.07h-.21l.14-.7.42.07-.21.56zM85.07 67.93l-.15-.1 1.59.55 1.59.52 1.6.51 1.61.5 1.61.47 1.61.47 1.6.51 1.62.42 1.63.41 1.64.34 1.65.36 1.65.3-1.65-.23-1.64-.26-1.64-.34-1.63-.33-1.61-.45-1.62-.42-1.59-.47-1.57-.58-1.6-.49-1.58-.52-1.57-.56-1.55-.61zM104.95 79.96l-.14-.27.27.07-.13.2z"/><path class="cls-1" d="M119.77 83.42l-.59.12z" transform="translate(-.23 -5.83)"/><path class="cls-1" d="M118 112.55l-.21.55-.62-.21.48-.2-.14-.28.14-.14.35.28z"/><path class="cls-1" d="M117.1 112.61l-.21-.27.55-.07-.07.35-.27-.01zM117.65 112.14h-.28l-.13-.49.41.49zM116.56 68.74l.74.97-.55.9-.19-1.87zM116.82 112.48v.13l-.34.14.2-.34.14.07zM116.27 81.07l-.07-.21.07.34H116l.27-.13z"/><path class="cls-1" d="M116.5 137.22l-.27-.28z" transform="translate(-.23 -5.83)"/><path class="cls-1" d="M115.58 122.49l-.07.21.35-.28.34-.35-1.04 1.11.42-.69zM114.19 108.77h-.35l-.12-.48.47.48z"/><path class="cls-1" d="M113.8 109.4z" transform="translate(-.23 -5.83)"/><path class="cls-1" d="M112.47 102.47l.14-.55.69.55v.69l-.41.2.27-.13-.48-.62-.21-.14zM111.3 68.09l.2.07-.27.2.07-.27zM111.58 126.38l.95-1.07.47.12v.47l-.36.36-.83.12.24.35-.83.36.36-.71zM110.62 127.09h.48l-.48.24v-.24zM110.98 140.9h-.59l.47-1.19.36-.12-.48.59.24.72zM110.13 96.05l.06.07-.2.13.27.21h-.34l.14-.48.07.07zM109.43 126.62l-.47-.12.83.12h-.36zM109.3 97.57l-.35-.42.55-.06.14.27-.34.21z"/><path class="cls-1" d="M110.15 103.47l-.42.28z" transform="translate(-.23 -5.83)"/><path class="cls-1" d="M109.78 97.91l.35.14-.28.14-.07-.28z"/><path class="cls-1" d="M110.14 131.38l.24.59z" transform="translate(-.23 -5.83)"/><path class="cls-1" d="M109.64 52.83l.35.27h-.35v-.27zM109.23 94.8l.41.42.07.34-.21.69-.34-.48.2-.07-.34-.82.21-.08z"/><path class="cls-1" d="M109.52 102.22l-.41.21z" transform="translate(-.23 -5.83)"/><path class="cls-1" d="M108.36 126.62l1.43 1.19.24-.12-.47-.48h.71l-.71.95-.72-.71-.12.48-.36-1.31zM107.78 73.19v-.2l.28.28-.28-.08zM108.05 64.88l-1.54-.35 1.54-1.02v1.37zM107.41 137.09l.24.83-.59-.48.35-.35zM106.7 41.66l.71 1.31-1.43-.71.72-.6z"/><path class="cls-1" d="M106.68 86.52l-.59-.47zM105.66 132.19l.69.2zM107.18 132.67l-.76-.21zM106.92 143.87l.12-1.31z" transform="translate(-.23 -5.83)"/><path class="cls-1" d="M108.74 138.92l-.02.07-.01.01-.02.03-.16.55.07-.11-.03.33.04.16-.22-.13-.1.02-.07.49-.02.09-.01.36-.21.2-.59-2.01-.33-.1.35-.84.17.48.34.26.2-.12v-.03l.03.01h.25l-.56-.62.42-.76.62 1.18-.34-.35.48 1.1-.28-.27z"/><path class="cls-1" d="M108.26 138.44l-.14-.21-.06.14.2.07zM110.03 140.54l-.72-.71.6-.6.48.12-.48.84.48.11-.36.24z"/><path class="cls-1" d="M110.83 151.31l.14-.48zM110.49 147.21l.59.24zM111.18 150.76l.35.41z" transform="translate(-.23 -5.83)"/><path class="cls-1" d="M112.29 137.92l-.36-.48.48-.11-.12.59z"/><path class="cls-1" d="M112.87 143.87l1 .35zM114.18 143.63l.12.71zM114.3 145.9l.24-.6z" transform="translate(-.23 -5.83)"/><path class="cls-1" d="M115.16 135.19h-.02l-.11.47-1.91-.58-2.02-.25h2.04l2 .36.01.01.59.47-.58-.48z"/><path class="cls-1" d="M118.36 150.69l.27.28zM118.84 150.69l.35-.14z" transform="translate(-.23 -5.83)"/><path class="cls-1" d="M115.74 135.3l1.59-.07 1.59.21 1.58.22-1.59-.03-1.59-.13-1.58-.2z"/><path class="cls-1" d="M121.95 143.71l.49.62z" transform="translate(-.23 -5.83)"/><path class="cls-1" d="M139.97 141.13l.97 1.95-1.9-.03-.03-1.17-.74-1.16 1.7.41zM135.25 136.23l.07-.07.14.34-.14-.14-.13-.13h.06z"/><path class="cls-1" d="M130.72 105.54l-.28-.27z" transform="translate(-.23 -5.83)"/><path class="cls-1" d="M128.71 68.19l1.66.95-1.42-.59-.6.35-.23.13.23.35 1.43.01-.48.59-1.66-.6 1.07-1.19zM128.35 130.36v.07l-.14-.23-.46-.41 1.72.88-1.12-.31z"/><path class="cls-1" d="M128.58 137.16l.14-.35zM128.3 136.19l-.56-.21z" transform="translate(-.23 -5.83)"/><path class="cls-1" d="M128.97 128.49l-.07.28-2.27-.48 2.34.21v-.01.01l.34.27-.34-.28zM127.31 130.08l-.2-.27.27-.07-.07.34zM126.56 131.81h-.35l.28-.69.2-.07-.27.34.14.42zM126.21 131.46l-.21.14-.41-.41.34-.35.28.07-.28.48.28.07z"/><path class="cls-1" d="M126.71 138.05l-.35-.14z" transform="translate(-.23 -5.83)"/><path class="cls-1" d="M126.35 123.94v-.14h.28l-.28.14zM126.9 123.39l.55-.62.28.06v.28l-.21.21-.48.07.14.21-.49.2.21-.41zM128.14 112.89l.28.28h-.2l-.08-.28zM127.28 69.98l.24.47.95-.23-1.43.35.24-.59z"/><path class="cls-1" d="M127.2 104.43l-.14.35zM126.44 109.06z" transform="translate(-.23 -5.83)"/><path class="cls-1" d="M127.67 110.75l-.68 1-1.03-.23 1.71-.77z"/><path class="cls-1" d="M126.16 128.73l.14.35z" transform="translate(-.23 -5.83)"/><path class="cls-1" d="M125.87 123.53h-.21l-.28-.08.49.08zM125.04 123.53l.83.68.13-.06-.28-.28h.42l-.42.55-.41-.41-.07.27-.2-.75z"/><path class="cls-1" d="M125.47 136.53l-.34-.21z" transform="translate(-.23 -5.83)"/><path class="cls-1" d="M124.97 130.84l.21.14-.42.21.21-.35zM124.76 131.46l.07-.13.07.27-.21-.21.07.07zM124.48 130.15l.01.56-.21-.08.2-.48zM124.28 129.81l.21-.21.13.48-.34-.27zM124.07 74.23l.42.76-.83-.41.41-.35z"/><path class="cls-1" d="M124.3 136l.07-.76z" transform="translate(-.23 -5.83)"/><path class="cls-1" d="M123.17 152.8l.14-.07-.42-.21.56.21-.28.07z"/><path class="cls-1" d="M124.16 102.71l-.34-.28z" transform="translate(-.23 -5.83)"/><path class="cls-1" d="M126.98 158.02l-1.98-1.21 1.39-.74.84.95 1.26.63-1.51.37zM125.86 148.51l.11.01.12-.13.24.6-.24-.24-.23-.24zM123.66 139.47l.2-.07 1.3.79 1.35.71 1.38.64 1.36.68 1.31.78-1.42-.64-1.4-.66-1.39-.7-1.35-.75-1.34-.78z"/><path class="cls-1" d="M131.41 149l1.38.49z" transform="translate(-.23 -5.83)"/><path class="cls-1" d="M132.01 161.29l.55.06-.62.21.07-.27z"/><path class="cls-1" d="M132.65 167.46l.42-.14zM133.07 166.91l.62.27z" transform="translate(-.23 -5.83)"/><path class="cls-1" d="M134.29 121.84l-1.73.19-.84-1.67 1.32.67 1.25.81zM132.08 128.77l-1.38-.05-1.38-.16 1.38.01 1.38.2zM129.9 103.27l-.11-1.58 1.43 1.19-1.32.39z"/><path class="cls-1" d="M131.41 101l.34-.07z" transform="translate(-.23 -5.83)"/><path class="cls-1" d="M133.53 69.61l.14-.28.34.21-.48.07z"/><path class="cls-1" d="M134.45 75.23l.48.14zM134.9 80.47l1.37-1.37zM137.9 107.26l.28.28zM141.62 88.83zM140.87 88.69l-.35-.14z" transform="translate(-.23 -5.83)"/><path class="cls-1" d="M140.71 83.83l-.07-.35-.28.14-.27-.14v-.13h.62l.14.34-.14.14z"/><path class="cls-1" d="M141.42 90.14l.35.48zM144.59 85.72l-.28-.21z" transform="translate(-.23 -5.83)"/><path class="cls-1" d="M149.41 74.58l-.28-.35.28.14v.21zM150.51 73.68h.21l.07.28-.28-.28zM161.21 74.65l.21-.49v.76l-.21-.14v-.13zM151.2 74.65l-.2-.62.62.48h-.21l-.21.14zM151.48 75.68l-.07-.34.21.2-.14.14zM151.41 74.92v-.21h.42l.2.42-.62-.21zM153.96 88.73l.14.55-.27-.48.13-.07z"/><path class="cls-1" d="M154.12 95.32l.41.27zM154.64 92.35z" transform="translate(-.23 -5.83)"/><path class="cls-1" d="M155.07 89.9l.14-.14.27.35-.41-.21z"/><path class="cls-1" d="M158.33 73.79l.71.47z" transform="translate(-.23 -5.83)"/><path class="cls-1" d="M160.13 68.67l.23-.24.48.6-.71-.36zM161.63 76.3h-.62l.06-.2.35-.14.21.07v.27z"/><path class="cls-1" d="M162.34 80.13l-.42-.55z" transform="translate(-.23 -5.83)"/><path class="cls-1" d="M162.11 72.64l-.21-.27h.35l-.14.27zM162.46 75.54l-.28-.83.55.63-.27.2z"/><path class="cls-1" d="M169 82.62l-.55-.07z" transform="translate(-.23 -5.83)"/><path class="cls-1" d="M168.37 80.97l-.58-.77.37-1.16.89.22-.68 1.71zM169.15 77.48l-.21-.42.42.21-.21.21z"/><path class="cls-1" d="M169.72 83.31l.35.21z" transform="translate(-.23 -5.83)"/><path class="cls-1" d="M169.41 70.1l.23.36.36-.24v1.42l-.24-.59.13 1.79-1.08-1.79.47-.48-.47-.71h1.31l.12-.12-.83.36zM170.95 71.88v-.35l-.47.11v-.59l.83.83h-.36zM171.55 70.45l-.48.36-.59-.59 1.07-.24-.24.12.24.35z"/><path class="cls-1" d="M172.13 79.26l-.12-.72z" transform="translate(-.23 -5.83)"/><path class="cls-2" d="M74.58 22.86h.12a.3.3 0 0 1 0 .36c-.1-.06-.06-.22-.12-.36zM73.74 23c.07-.16.32 0 .24.18-.24.07-.13-.18-.24-.18zM74.46 23.28c0 .2-.23.09-.36.06.05-.21.15-.01.36-.06zM103.61 23.34h.24c0 .1 0 .23.06.24-.07.13-.26-.14-.3-.24zM79.35 23.58c0-.08.15 0 .24-.06-.1 0 0 .29-.18.24.01-.08.01-.17-.06-.18zM83 23.64c.16 0 .12.12.24.12 0 .18-.13-.06-.24 0s0 .06.06.06c-.06.18-.14-.14-.06-.18zM105.73 23.7a.34.34 0 0 0 .24.06.53.53 0 0 0-.06.36.29.29 0 0 0-.18-.06c.11-.06.01-.22 0-.36zM105.24 25.27c.13.1.12 0 .24.06-.17.27.18.07.12.36-.18-.08-.42-.09-.36-.42zM105.91 26.12c.1.08.24.13.24.3-.15-.01-.29-.08-.24-.3zM75 27.56c.27.12.33.23.6.12.13.18-.1.41.24.42-.11.16-.36 0-.3-.24-.1.08-.24.08-.12-.06a.29.29 0 0 1-.42-.24zM75.61 28.53c.14 0 .28 0 .24.24-.08-.08-.32 0-.24-.24zM93.05 30.34c0 .12-.18.25-.3.12.05-.12.25-.22.3-.12zM89.49 33.24c.18.08.19.18.06.3-.2-.05-.03-.11-.06-.3zM90.28 33.48c.1.08.24.13.24.3-.17-.01-.26-.1-.24-.3zM85.26 44c.15 0 .31.05.3.24-.22.03-.29-.08-.3-.24zM71.44 46.28a.39.39 0 0 0-.06.3c-.14 0-.18.1-.36.06.14-.21.21-.24.06-.48.36-.23.04.31.36.12zM75.43 47.84c.18.06.12.36.18.54-.18-.05-.12-.38-.18-.54zM72.23 51.22c.19-.11.48.2.54.42-.25-.07-.33-.3-.54-.42zM108.68 58.71c.09-.19.27 0 .42 0-.1.15-.27.09-.42 0zM64 59.43c0 .47-.51.45-.91.54.18-.29.54-.67.91-.54zM67 59.67a.48.48 0 0 1-.48.18c.09-.16.34-.13.48-.18zM65.83 59.86c.26.21-.6.31-1 .3.29-.16.73-.16 1-.3zM102.47 62c.12.06.09.27.3.24 0 .21-.18 0-.3 0zM90.34 63.24c.22 0 .24.12.24.3-.19.01-.21-.16-.24-.3zM75.31 63.66c.12.09-.06.21.06.36-.37.07-.15-.31-.06-.36zM88.41 67.16c.09.05.19.09.18.24s-.13-.11-.3-.06c.01-.08.1-.1.12-.18zM85.69 67.88c.08.26-.2.16-.24.3-.17-.1.04-.35.24-.3zM64.2 68.85c.24 0 .44.09.42.36-.18-.08-.45-.07-.42-.36zM77.48 69.69c.09-.15.27.13.42.12s-.21 0-.3.06-.03-.16-.12-.18zM92.93 69.81c.14 0 .29 0 .24.24a.4.4 0 0 1-.3-.06.28.28 0 0 0 .06-.18zM66.32 69.93c.26-.14.61.15.84.24-.27.16-.6-.17-.84-.24zM79.83 69.93c.08 0 .09.11.18.12-.1.11-.36.17-.36-.06.09.01.17.01.18-.06zM18.75 71.56c.09 0 .15.09.24.12a.29.29 0 0 1-.3.12c-.02-.12.05-.15.06-.24zM120.33 71.74h.18c0 .23.07.17 0 .36-.08 0-.05-.15-.06-.24s-.11-.04-.12-.12zM157.57 72a.23.23 0 0 1 .18.36.34.34 0 0 1-.18-.36zM64.62 72.47c.17 0 .33 0 .3.18-.17.01-.32.01-.3-.18zM75.31 73.07c-.38.43-1.12-.11-1.39-.36.4-.04.87.29 1.39.36zM75.31 73.25a4.11 4.11 0 0 1 1.69.42c-.49.25-1.32-.15-1.69-.42zM67.7 73.56a1.19 1.19 0 0 1 .48.36c-.13.08-.52-.08-.48-.36zM80.26 74.88a20.17 20.17 0 0 1-3-.9c.05-.18.38-.24.42 0a11.25 11.25 0 0 1 2.58.9zM91.66 74.88c.14 0 .07.18.18.18-.09.2-.36-.06-.18-.18zM80.86 75.06a115.84 115.84 0 0 0 17 4.71C91.66 79 86.2 77.07 81 75.19c-.12.02-.13-.05-.14-.13zM103.92 75.31c.1 0 .11.06.18.06 0 .16-.08.2-.24.18s.04-.16.06-.24zM123.47 76.39c.12.14.3-.12.3.18-.26-.09-.28.21-.42.06.03-.09.19-.05.12-.24zM124 76.45c.09-.15.27.13.42.12-.19.21-.42-.05-.42-.12zM148.46 79c0 .12-.17.08-.12.24-.09-.05-.23 0-.18-.24a.23.23 0 0 1 .3 0zM87.08 80c.19-.05.18.1.3.12 0 .19-.09.24-.12.36-.27 0-.3.08-.48 0 .07-.3.33-.12.3-.48zM138.2 80.19h.18c0 .1 0 .23.06.24-.08.16-.3-.06-.24-.24zM148 80.25c.17.1.47.3.36.48-.15-.15-.36-.25-.36-.48zM115.08 80.68a.56.56 0 0 1 .36.66.72.72 0 0 0-.72-.36c.13-.13.55.02.36-.3zM148.4 81.1a1 1 0 0 1 .48.55c-.12 0 0 .23-.24.18.12-.23-.14-.53-.24-.73zM139.16 81.82c-.11 0-.11 0-.12.12-.2-.06 0-.11-.06-.3.13-.01.19.05.18.18zM147.73 82.19a.28.28 0 0 0 .18.06c-.1.12 0 .08 0 .24-.18-.08-.26 0-.54 0a.3.3 0 0 0 .06-.18c.09.09.32.06.3-.12zM55.93 82.61c.2 0 .09.39.3.42a.19.19 0 0 1-.3.06.58.58 0 0 0 0-.48zM55.57 83h.12c0 .05 0 .06.06.06v.12c-.05 0-.06 0-.06.06h-.12c0-.05 0-.06-.06-.06V83h.06zM24.19 83.15c.15.07.17.27.18.48-.15-.07-.12-.32-.18-.48zM154.31 83.15c.18 0 .21.16.36.18 0 .11-.2 0-.18.18a.65.65 0 0 1-.18-.36zM18.64 83.63a1.31 1.31 0 0 1-.73.18c.09-.18.46-.13.73-.18zM98.24 85.45c.13 0 .16 0 .24.06s-.11.09-.12.18a.27.27 0 0 1-.12-.24zM132.58 85.45c.16 0 .3 0 .24.18-.15.01-.26-.03-.24-.18zM155.4 88.16c-.22-.09-.77.31-.84-.06.34.04.68-.31.84.06zM129.26 88.1c.15 0 .19.09.3.12.01.18-.36.12-.3-.12zM154.31 88.16c.06 0 .06.14.18.12s-.31.12-.12.18c-.17.21-.11-.22-.06-.3zM130.23 88.34c0 .48-.41.09-.54 0 .13-.26.31.19.54 0zM129.08 88.65c.15-.12.22 0 .54 0 0 .18.17.12.12.3-.05 0-.11.05-.12.12s0-.21-.06-.3c0 .08-.23 0-.24.12s-.05-.19-.24-.12c.04-.06.08-.11 0-.12zM130 89.49c.09.15.28.2.3.42-.16-.07-.41-.15-.3-.42zM141.21 93.35c.2.11 0 .28.12.48-.15-.07-.13-.31-.24-.42.08.01.11-.01.12-.06zM141.15 94c.21 0 .2.21.36.24-.12.18-.35-.06-.36-.24zM142.3 94.26c.11.07.13.23.24.3-.11.16-.27-.13-.36-.18s.12-.04.12-.12zM43.8 98.54a1.41 1.41 0 0 1 .12.36c.09 0 .05-.19.24-.12V99c-.17 0-.31 0-.36-.12-.15.07-.11.26 0 .36-.05-.24.33-.23.3.12a.27.27 0 0 0-.24.12c-.16-.22-.58-.19-.6-.54A.35.35 0 0 1 43 99c.14-.14.12-.22-.12-.24 0-.05.09-.16 0-.18.28-.27.48-.02.92-.04zm-.24.48s-.07 0-.06-.06h.18v-.24c-.15 0-.13.11-.3.06 0 .11.13.39.18.22zM44.65 99.33c0 .22-.22.18-.36.24v-.18c.15.16.18-.07.36-.06zM114.66 100.23c.09-.14.3.1.3.24-.17-.01-.16-.19-.3-.24zM102.71 101.14c-.11.09-.26.15-.36.24-.13-.09.17-.27.36-.24zM102.65 101.62c-.08 0 0-.15-.06-.24s.22.06.3.12c-.02.24-.19-.05-.24.12zM117.62 102c.12 0 .11.42-.12.3-.01-.17.09-.2.12-.3zM120.7 102.95c-.19-.13-.7-.11-.24-.24.06.09.24.07.24.24zM127 104.46c.15-.22.11.25.24.24-.19.23-.19-.2-.24-.24zM117 106c.3-.36.48.36 0 0zM69.76 106.45a1 1 0 0 1-.91.3c.26-.21.56-.15.91-.3zM78.08 106.57c.16 0 .29.31.36.18.19.25-.38.07-.36-.18zM67.46 107c0 .29-.69.25-.84.24a1.68 1.68 0 0 1-1 .24 8.8 8.8 0 0 1 1.84-.48zM95 107.17c.13.23-.53.19-.72.3.06-.25.53-.13.72-.3zM64.75 107.77c-.06.26-.5.15-.72.24.12-.19.37-.26.72-.24zM86.9 108.38c-.13.17-.52.08-.73.18.08-.22.45-.16.73-.18zM85.81 108.56c-.25.12-1 .5-1.09.18.45.02.66-.19 1.09-.18zM84 109a11.94 11.94 0 0 1-2.35.48A6.94 6.94 0 0 1 84 109zM81.46 109.53a9.93 9.93 0 0 1-1.87.24 7.09 7.09 0 0 1 1.87-.24zM95.35 109.47c.17 0 .17.15.18.3-.13-.04-.23-.1-.18-.3zM79.11 109.83a1.26 1.26 0 0 1-.91.06 1.32 1.32 0 0 1 .91-.06zM43.44 109.89c.09-.18.4.09.24.18s-.08-.2-.24-.18zM76.76 110.13a3.68 3.68 0 0 0-.72-.06s.74-.26.72.06zM44.95 110c-.05.11-.11.21-.3.18-.01-.18.14-.18.3-.18zM95.77 110.67c.15.08-.11.18.06.24-.08.16-.37 0-.48 0 .08-.14.26-.17.42-.24zM61.85 110.79c.35.13-.24.28-.36.12s.37.09.36-.12zM108.62 114.05c.05 0 .06.06.12.06v.12c-.17-.18-.11.15-.3.12-.03-.18.16-.15.18-.3zM118.64 114.47c.19 0 .27.05.24.25 0 0-.16-.1-.18 0s-.05-.15-.06-.25zM62.39 116.89c.13.17.31.3.3.6-.1-.2-.35-.25-.3-.6zM84.36 117.31c.12 0 .16.12.24.18s-.22.06-.24.18c-.2-.12-.02-.17 0-.36zM84.36 117.8c-.08.08-.27.16-.36.06s.23-.09.36-.06zM72.83 118.46c.12-.2.17 0 .42-.06a.25.25 0 0 1-.42.06z" transform="translate(-.23 -5.83)"/><path class="cls-2" d="M72.89 118.52c-.08.19-.12 0-.3.12-.01-.18.22-.21.3-.12zM83.58 119.61c.12-.17.38 0 .54 0-.12.17-.38-.02-.54 0zM86 119.91a4.24 4.24 0 0 1-1.57-.18c-.53-.11.16-.06.18-.06.17.01 1.01.22 1.39.24zM93.65 121.84c-2.33-.7-4.56-1.2-7.24-1.75-.79-.17.43-.05.73 0a35.57 35.57 0 0 1 6.51 1.75zM116.71 123.23c.13 0 .13.15.12.3-.24.01-.16-.16-.12-.3zM117.07 124c.12.1.08 0 .24 0s-.2.27-.24.12zM95.35 125c-.17.17-.43-.09-.66-.06.1-.28.39.06.66.06zM119.67 128.17a9.14 9.14 0 0 1 2.41.18 15.07 15.07 0 0 1-2.41-.18zM115.14 128.9c.24.09-.07.43-.06.67-.24-.16.03-.44.06-.67zM115.44 129.08c.11.07 0 .32.12.42-.14 0-.13-.23-.3-.24s.28.03.18-.18zM118 129.2c0 .17-.08.16-.06.3-.09-.05-.19-.09-.18-.24a.33.33 0 0 1 .24-.06zM118.76 129.44c.13 0 0 .26.06.36-.24-.09-.12-.16-.06-.36zM115.44 129.57c.27 0 0 .36 0 .48a.27.27 0 0 0-.18-.06.4.4 0 0 0 .18-.42zM118.1 129.57a1.76 1.76 0 0 0 .49.18c-.13.14-.52.03-.49-.18zM118.94 130.29c.22 0 .07.33-.12.31.03-.13.18-.16.12-.31zM108 130.41c.19 0 .27.05.24.24-.17.03-.24-.05-.24-.24zM115.74 130.59c.14 0 .14.16.06.24s-.19 0-.18-.18.06 0 .06.06.05-.07.06-.12zM116.89 131.25c.19 0 .12.17.3.12-.02.21-.32.07-.3-.12zM81.83 131.37c.23 0 .05.35.24.36-.13.17-.31-.13-.24-.36zM88.95 133c.13.11.14.3.36.18 0 .15-.05.31-.24.3a1 1 0 0 1-.12-.48zM101.14 136.63c0 .07 0 .11-.06.12s.11.05.18.06c-.06.35-.46-.17-.12-.18zM114.72 137.71c0-.07.11 0 .18-.06 1.76 1.24 4 2 5.85 3.14a49.31 49.31 0 0 1-6.03-3.08zM110.62 142.3c0 .12-.18.25-.3.12s.14-.13.3-.12zM109.89 142.42c.19 0 .27.05.24.24-.07-.09-.25-.07-.24-.24zM103.61 142.48c.23 0 .29.15.3.36a1.14 1.14 0 0 1-.3-.36zM103.43 142.54c.1.05 0 .44-.12.42a2.33 2.33 0 0 1 .12-.42zM95.53 143c.24.15.1.28.42.12 0 .19-.34.26-.12.42-.3.1-.23-.28-.3-.54zM95.16 143c.16 0 .21.19.18.42-.14-.03-.16-.22-.18-.42zM105 150.08c-.15.11-.07.08-.06.3-.21 0-.1-.22-.24-.24s.23-.14.3-.06zM35 154.61c.21.12.7 0 1 .12-.12.19-.92.13-1-.12zM123.29 156.84c-.1 0-.43-.1-.54-.24a.47.47 0 0 1 .54.24zM122.5 156.84c-.08.17-.33.16-.54.18 0-.11.07-.13.06-.24.29.03.34-.1.48.06zM122.75 157c-.1.08-.23.26-.36.12.12-.12.25-.26.36-.12zM115.74 157.21c.1.1.38 0 .36.24-.22.02-.35-.05-.36-.24zM116.11 159.68c.2 0 .07.32-.12.31.01-.16.09-.19.12-.31zM121.54 162.52c-.33.1 0 .52-.24.66-.05-.09-.07-.93.24-.66zM121.84 162.88c.2.06 0 .11.06.3-.1 0-.1-.06-.18-.06V163c.1 0 .11 0 .12-.12zM83.52 22.86c0 .06-.07 0-.12.06s.09.19.18.24c-.1.21-.12-.15-.24-.12s.13.31-.06.42c-.12-.24-.49-.23-.72-.36 0 0 .37 0 .06-.12.07-.14.24.09.3-.12zM73.62 23c.14.13-.23.5-.36.36.13-.13.29-.2.36-.36zM104.22 24.31a2.28 2.28 0 0 1-.18-.36c.2-.23.29 0 .61 0a.61.61 0 0 0 .48.54c-.21.08-.13.16-.18.3 0-.33-.42-.27-.42-.6-.06 0-.06.14-.18.12 0 .19.17.11.12.3-.29.22-.42-.16-.66-.18.29-.01.05-.22.41-.12zM103.68 25.69c.19.24.2 0 .42-.06a.14.14 0 0 0 .12.24.4.4 0 0 1-.06.3c0-.06-.34-.3-.24-.12-.08.12-.27-.16-.24-.36zM104.76 26c.54.27-.26.36-.42.3 0-.29.36 0 .31-.24.07 0 0 .11.06.18a.14.14 0 0 0 .05-.24zM75.49 27.44s.49-.22.42.12a2.26 2.26 0 0 1-.42-.12zM71.5 49.41a.59.59 0 0 1 .42-.66c-.06.3.16.32.18.54-.25 0-.57.24-.78.12.05-.1.11-.01.18 0zM75.73 63.84h.18c0 .18-.08.23 0 .3s-.06 0-.06 0-.06 0-.06.06.08-.2-.06-.36zM63.05 66.25c1.13.8 2.24 2.15 3.44 3.08a19.62 19.62 0 0 1-3.44-3.08zM79 68.37c-.12-.1.47 0 .36.3-.23 0-.24-.21-.36-.3zM78.26 68.37c.16.12-.66.51-.54.06.18-.01.48.18.54-.06zM83.33 68.67c.19 0 .18-.1.36-.06-.13.14-.36.21-.3.36s-.04-.12-.06-.3zM61.49 68.73c.26-.1.37.47.66.54-.35.07-.39-.46-.66-.54zM83.88 68.85c.07.05 0 .11.06.3-.2.08 0-.2-.24-.12-.02-.14.17-.03.18-.18zM65.11 69.27c.24-.14.39.33.79.24-.16.24-.7-.03-.79-.24zM63 70.3c.11-.11.35.17.48.24-.17.16-.33-.19-.48-.24zM69 71.5a5 5 0 0 1 1.09.85A3.32 3.32 0 0 1 69 71.5zM76.21 77.84c.17-.13.41.19.54.3a3 3 0 0 1-.54-.3zM100.84 79.77v-.18c.19 0 .17.15.24.24s-.08-.12-.24-.06zM138.62 80.5c.17-.09.39.29.54.42 0 .2-.34-.19-.18 0 0 .09-.18 0-.18.12 0-.16.07-.4-.18-.54zM147.55 81c0-.08.21-.22.18-.42.29.13 0 .44 0 .66-.08 0-.09-.11-.18-.12s.21-.19 0-.12zM137 80.68c.25 0-.08.18.24.12v.2c-.24 0-.24-.18-.24-.32zM139 81.1c.09-.08.13.11.36 0-.31.26.21.07.18.36-.29 0-.27-.21-.54-.18 0-.1.08-.16 0-.18zM153.65 82.85c.1-.16.42 0 .48.06s-.3-.09-.48-.06zM154.79 83.51c.13-.31.25.05.31.18-.1.19-.1-.26-.31-.18zM17.85 83.81a6.31 6.31 0 0 1-1.45.42 6.38 6.38 0 0 1 1.45-.42zM108.2 86.47a.19.19 0 0 1 .06.3c-.11.06-.2-.18-.24 0-.16-.05.1-.17.24-.12a.28.28 0 0 1-.06-.18zM155 87.07c.1-.13.33.11.48.12-.11.13-.61-.23-.3.12.08.15-.26-.2-.18-.24zM148 95c.11 0 0 .06-.12.06a.17.17 0 0 0 .12.18c0 .12-.27 0-.24.18.09-.19-.24-.11-.3-.3.28.17.24-.04.54-.12zM121.3 99c-.18-.17.28.13.3-.06.19.17-.21.16-.3.06zM102.83 99.69c.05 0 .06 0 .06.06s0 .06.06.06a.44.44 0 0 1-.18.12c.05.09.09.19.24.18-.05.18-.15-.08-.3 0a1 1 0 0 1 .12-.42zM102.16 100.05c-.14 0-.19.35-.36.18.04-.14.2-.13.36-.18zM43 100.72a.5.5 0 0 1 .36-.06c0-.06-.14-.06-.12-.18.32-.07.4 0 .66.12 0 .13-.26 0-.36.06s.11 0 .18.06c-.15.15-.3.15-.42.42a.28.28 0 0 0-.18-.06c0-.12.28 0 .18-.24-.19 0-.36.22-.48 0-.13 0 .09.16-.06.24a.29.29 0 0 1 .18-.06c0 .16-.17.16-.24.24a9.58 9.58 0 0 0-.54-1.09c.29.11.91.17.84.55zM102.16 101.08c-.17-.05-.21-.24-.3-.36.11-.12.33.19.48-.06a.27.27 0 0 1 .12.24c-.15 0-.2.1-.3.18zM43.5 104.52c.22 0 .6.32.85.48-.24 0-.54-.39-.85-.48zM105.54 106c-.24-.22-.56-.86-.42-.54-.06-.14-.22.34-.18-.12 0-.06.26-.18.12-.48.31.05.33.4.6.48a1.71 1.71 0 0 0 0 .61c-.11.18-.25.1-.36.18-.21-.13.12-.13.24-.13zM67.88 105.54a3.43 3.43 0 0 1-.54.24c.09-.17.31-.21.54-.24zM45.25 105.66c.24 0 .59.34.84.48-.24.05-.55-.37-.84-.48zM105.42 106.33c.11-.06.22.08.49 0-.1.19-.36.09-.49 0zM65.41 108.86c.28-.09 1.46.21.36.12-.05.02-.37.02-.36-.12zM43.68 110.37c-.21.19-.61.2-.91.3s.62-.27.91-.3zM96.92 110.55c-.14-.13.3 0 .36.06 0 .28.15.4-.18.48.1-.21.14-.21.06-.48-.1 0-.1.05-.18.06.13.15-.06.34.06.42s0 .06-.06.06h-.18c.04-.21.2-.55.12-.6zM109.11 113.39c.19-.17.33.23.36.42-.14.08-.22-.16-.24 0-.1-.05.22-.41-.12-.42zM108.8 114c.13-.06.4-.14.48-.06s-.11.13-.06.3c-.11-.09-.32-.13-.24 0s-.18-.14-.18-.24z" transform="translate(-.23 -5.83)"/><path class="cls-2" d="M109 114.47c0-.15.32-.08.42-.18s-.16-.08-.12-.24c.1 0 .11 0 .12-.12s.21.15.3.24c-.15.07-.22.22-.18.48-.16-.03-.22-.21-.54-.18zM69.63 115.68c.3-.14.45.39.72.48-.17.02-.48-.35-.72-.48zM83.27 117.68a.47.47 0 0 1-.54-.24c0-.23.2-.28.18-.54.18.09 0 .26 0 .42s.11.09.12.18.05-.15.06-.24c.22.06.36.37.18.48s-.03-.06 0-.06zM74.34 118c.06-.13.4 0 .36.12s-.25-.18-.3 0c-.09-.04.06-.12-.06-.12zM71.08 118.52c-.27-.12-.27.07-.42 0 .01-.1.45-.24.42 0zM76.21 118.46c0-.1.11.05.12-.06a54.44 54.44 0 0 1 5.85 3.2c-1.86-.94-4.07-2.04-5.97-3.14zM95.77 118.64v-.12a.27.27 0 0 1 .18-.06c0 .14 0 .23.12.24s-.16-.11-.3-.06zM85.75 120.81a11.92 11.92 0 0 1 1.81.66 10.14 10.14 0 0 1-1.81-.66zM93.72 121.84c.13-.13.4.13.6.12-.1.1-.48-.04-.6-.12zM107.66 122.87c.17 0-.09.09-.06.18.2 0 .13-.23.3-.24-.22 0 0-.31.3-.3a3.89 3.89 0 0 1-.91 1c-.01-.14.27-.51.37-.64zM84.24 122.62a14 14 0 0 1 3.32 1.63c.09.07 0 0-.06 0-1.12-.51-2.19-1.07-3.26-1.63zM90.46 122.87c0-.17.45.13.6.18-.2.17-.35-.21-.6-.18zM118.1 123.59c-.22-.12-.16.09-.42.06 0 .06.14.06.12.18-.22 0-.22.18-.42.18 0-.12.41-.19.18-.36.24-.1.5-.18.48-.54a.33.33 0 0 0 .24.06v.24c-.19-.05-.04.09-.18.18zM91.78 123.53a5.34 5.34 0 0 1 1.21.54c-.38.04-.82-.38-1.21-.54zM116.23 123.71c.07-.17.47-.27.42.06 0-.08-.37-.08-.18 0-.05.18-.09-.14-.24-.06zM116.17 124.19c-.08 0 0 .15-.06.24-.08-.18-.33-.44-.18-.66 0 .42.5.39.72.6 0 0 .06-.06.12-.06a1.42 1.42 0 0 1-.24-.24c0-.12.2.07.36 0 .05.33-.16.4-.36.48.1-.34-.34-.14-.36-.36zM93.42 124.37a12 12 0 0 1 1.21.42 2 2 0 0 1-1.21-.42zM98.79 126.25c-.08-.11.47.11.6.18-.14.11-.39-.14-.6-.18zM99.45 126.49c.1-.06.5.1.67.18-.12.1-.46-.15-.67-.18zM119.67 128.36c-.21 0-.18-.18-.3-.24s0 .15-.06.24c-.38-.42-1.4-.21-2-.42.77-.02 2.06-.09 2.36.42zM115.81 129.87c.18 0 .21.11.3.18s-.41.05-.3-.18zM115.87 130.17c.15 0 0 .42.18.12.31.14-.13.23-.37.18-.04-.21.25-.08.19-.3zM116.71 130.17a.35.35 0 0 0 .24.06c-.13.18-.24.24-.24.42s.16-.09.24.06-.18 0-.18.12c-.11-.26-.28-.09-.36-.36.3-.02.28-.01.3-.3zM117.37 130.35c.07 0 0 .49-.24.3-.06.23.15.17.12.36-.2 0-.19.11-.3 0a2.62 2.62 0 0 0 .24-.6c.09 0 .17.01.18-.06zM124.8 134.88c0-.07.06 0 .06 0s.06 0 .06-.06a.29.29 0 0 1 .12.3c-.05 0-.11-.05-.12-.12-.24.14.08-.07-.12-.12zM113 136.32c.14.18.38.26.42.54-.08-.2-.33-.27-.42-.54zM122.5 141.39c-.36.06-.86-.27-1.21-.42.16-.08.83.34 1.21.42zM114.42 149.3c0-.23-.18-.27-.36-.18 0-.37.51-.06.49.18-.19 0-.08.21-.24.06-.01-.06.06-.05.11-.06zM115 158.77c.19.07 0 .17.18.18 0 .14-.26.1-.18.36-.15-.07-.17-.27-.18-.48-.13 0-.12.09-.12.18s-.07-.16-.06-.24c.27.08.27-.26.42-.12-.09-.1.11-.24.12-.42.22 0 .1.35 0 .42s.13-.05.24 0-.12.09-.12.18-.21-.18-.3-.06zM121.72 162.4c.18 0 .11.25.12.42-.24-.15-.08.06-.24.18-.2-.21.25-.26.12-.6zM101.92 98.72c0-.07.11-.05.18-.06.09.26.17.06.36.36-.21.1-.07.21.06.3-.19.2-.11.37-.18.6a.88.88 0 0 1-.3-.42c.09 0 .17 0 .18-.06-.31 0-.02-.56-.3-.72zM70.72 112.36c-.31-.18-1 .22-1.69.12.03-.23 1.86-.55 1.69-.12zM101.26 137.89c0 .05 0 .05-.06.06.28.19-.11.52 0 .91-.11 0-.36.11-.18.18-.6-.09-.35-1.19-.54-1.87.16-.08.29-.09.18-.3.14 0 .16.2.3.24s.2-.25.42-.12c-.14-.2-.13-.56-.48-.54 0-.34.05-.63.36-.66 0 .52.59.46.55 1-.19 0 0-.29-.3-.3 0 .38.26.58.42 1-.24.08-.16-.16-.24-.24a.94.94 0 0 0-.12.91c-.22 0-.19-.16-.31-.27zM91.15 13.71l.62.31c-.18.28-.68-.02-.62-.31zM88.87 14.33c.16-.31.46.09.73 0-.24.26-.49.17-.73 0zM78.15 19.95c.21.11.16.46.52.42-.08.36-.31.07-.52 0zM108 31.71h.31c0 .29-.18.44-.52.42-.12-.35.34-.13.21-.42zM108.94 36.8h.31c0 .39.12.3 0 .62-.14 0-.08-.26-.1-.42-.15.05-.15-.07-.21-.2zM80.65 42.94c.17 0 .18.1.31.1 0 .27-.14.34-.42.31-.04-.21.08-.27.11-.41zM99.89 52.2a1 1 0 0 1 .62 1.15 1.23 1.23 0 0 0-1.25-.62c.23-.24.96-.03.63-.53zM70.87 60.42c.22 0 .27.07.42.1 0 .13-.18.16-.21.31a.46.46 0 0 1-.21-.41zM88.76 63.33c.11 0 .07.21.21.21-.36.26-.43.82-.83 1 0-.37.28-.55.21-1 .24.03.48.26.41-.21zM144.94 74c.34.2 0 .48.21.83-.26-.12-.23-.53-.42-.73.12.07.18.03.21-.1zM48.92 74.46c.16 0 .09.33.41.21.39.2-.49 0-.41.21-.12 0-.09-.19-.1-.31s.09-.04.1-.11zM48 74.88c.27 0 .45 0 .42.31-.29.03-.42-.04-.42-.31zM144.83 75.19c.37 0 .34.35.63.42-.23.28-.62-.14-.63-.42zM146.81 75.6c.2.12.22.4.42.52-.18.27-.46-.22-.62-.31.02-.11.2-.07.2-.21zM156.8 79.35c.38.1.06.31.1.63-.26-.15-.18-.36-.1-.63zM99.16 85.91c.16-.25.52.16.52.42-.29-.03-.28-.33-.52-.42zM141.61 91.42c.22.23.3-.05.62 0 .15.32-.77.32-.62 0zM21.77 96.62a1.68 1.68 0 0 1-1.56.52c.45-.36.97-.26 1.56-.52zM36.12 96.83c.27 0 .5.53.62.31.32.51-.65.11-.62-.31zM65.25 97.87c.22.39-.92.33-1.25.52.15-.45 1-.23 1.25-.52zM51.31 99.95c-.23.3-.9.14-1.25.32.15-.39.77-.27 1.25-.32zM49.44 100.26c-.44.21-1.64.87-1.87.31.76.04 1.13-.32 1.87-.31zM46.32 101.09a20.58 20.58 0 0 1-4.06.84 12 12 0 0 1 4.06-.84zM41.95 101.93a17.06 17.06 0 0 1-3.23.41 12.18 12.18 0 0 1 3.23-.41zM65.88 101.82c.29 0 .3.25.31.52a.38.38 0 0 1-.31-.52zM37.89 102.44a2.17 2.17 0 0 1-1.56.11 2.24 2.24 0 0 1 1.56-.11zM33.83 103a6.26 6.26 0 0 0-1.25-.1c-.05-.08 1.29-.5 1.25.1zM66.6 103.9c.25.14-.19.31.1.42-.14.27-.64 0-.83 0 .13-.24.47-.32.73-.42zM88.76 109.72c.08 0 .1.11.21.11v.17c-.3-.31-.18.26-.52.21-.05-.29.28-.21.31-.49zM106 110.45q.49-.07.42.42c-.08-.07-.29-.16-.31 0-.11-.03-.11-.26-.11-.42zM46.94 115.34c.21 0 .28.21.42.31 0 .21-.39.1-.42.31-.35-.21-.04-.3 0-.62zM46.94 116.18c-.14.15-.46.27-.62.1.06-.34.39-.15.62-.1zM45.59 119.3c.21-.3.65 0 .94 0-.21.3-.65-.04-.94 0zM49.75 119.82a7.26 7.26 0 0 1-2.7-.31c-.92-.18.27-.11.31-.1.31.01 1.75.38 2.39.41zM63 123.15c-4-1.2-7.86-2.06-12.48-3-1.35-.28.74-.09 1.25 0a62 62 0 0 1 11.23 3zM102.7 125.54c.23 0 .22.26.21.52-.42.01-.28-.27-.21-.52zM103.33 126.89c.21.17.13 0 .42 0 .11.26-.35.46-.42.21zM65.88 128.56c-.3.29-.74-.16-1.15-.1.18-.46.68.17 1.15.1zM107.8 134.07c1.36-.28 2.83.22 4.16.31a26.56 26.56 0 0 1-4.16-.31zM100 135.32c.41.15-.12.74-.1 1.15-.43-.27.05-.75.1-1.15zM100.52 135.63c.19.12.08.54.21.73-.23-.08-.23-.4-.52-.42-.05-.25.47.06.31-.31zM104.89 135.84c.09.29-.15.27-.11.52-.15-.09-.33-.16-.31-.42a.6.6 0 0 1 .42-.1zM106.24 136.25c.23 0 0 .44.1.63-.41-.18-.21-.28-.1-.63z" transform="translate(-.23 -5.83)"/><path class="cls-2" d="M100.52 136.46c.46 0 0 .63 0 .83a.49.49 0 0 0-.31-.1.7.7 0 0 0 .31-.73zM105.09 136.46a2.7 2.7 0 0 0 .84.31c-.22.23-.93.06-.84-.31zM106.55 137.71c.39.08.13.56-.21.52.05-.23.23-.23.21-.52zM87.72 137.92c.32 0 .46.09.41.42-.32.04-.46-.1-.41-.42zM101 138.23c.24 0 .24.28.11.41s-.33-.08-.31-.31c.09 0 .1 0 .1.1s.1-.12.1-.2zM103 139.38c.32-.08.2.28.52.21-.03.34-.52.11-.52-.21zM42.57 139.58c.4-.06.09.6.42.62-.23.29-.53-.2-.42-.62zM54.85 142.39c.23.19.24.52.62.31-.06.25-.09.54-.42.52a1.62 1.62 0 0 1-.2-.83zM99.27 150.5c0-.12.19-.08.31-.1 3 2.14 7 3.37 10.09 5.41a84.56 84.56 0 0 1-10.4-5.31zM89.39 14.75c0 .19.13.22.1.42-.51-.11-.82.26-.94-.52.65.7.35 0 1.14-.1-.18.53 1.12-.05 1.35.52-.09.3-.26-.14-.52 0-.09 0-.18.09-.21.21-.14.45.5.13.42.52-.59-.25-.16 0-.73.1.23-.24.09-.28.21-.52-.09-.31-.33.06-.52 0 0-.12 0-.19-.1-.21s.13-.08.21-.1c-.09-.16-.16-.34-.41-.32zM93.13 16.93h.31c.05.33-.29.46.21.41 0 .33-.09.47-.42.42-.23-.41.27-.5-.1-.83zM75.34 50.64v-.31c.32 0 .29.26.42.42s-.14-.23-.42-.11zM88 62.19a.33.33 0 0 1 .1.52c-.19.1-.35-.31-.41 0-.28-.09.18-.29.41-.21a.49.49 0 0 1-.1-.31zM87.2 64c.07-.49.66-.38.52-.83.18 0 .22.13.41.1-.49.25-.11.32 0 .73-.32.08-.2-.29-.52-.21-.08 0-.11.1-.21.1q0 .34.31.31c-.21.34-.33-.2-.51-.2zM87.72 64.89a1.19 1.19 0 0 0 .62.73c.74-.42.36-.78 1.25-.93 0 .23 0 .39-.21.41.29.16.64.27.73.62-.37-.09-.5.24-.73 0 .1-.14.17 0 .31-.21-.17-.16-.42.08-.42-.42-.24.11-.22.48-.21.83a6.81 6.81 0 0 0-1.46-.42c.19-.36-.28-.55.21-.83.23-.06.15.2.31.2-.01.29-.12-.12-.4.02zM60.47 70.51c-.18 0-.61-.38-.42-.1 0 .1-.13.08-.21.1s0-.1-.1-.1c.08-.25.81-.41.73.1zM119.14 75.4c.5.27 1.22.3 1.45.83-.33-.3-.92 0-1.25-.52-.06.16-.48.8-.52.31-.08 0-.1.11-.21.11a.29.29 0 0 0 .21.31c.47-.53.88.16 1.25 0 0 .36-.31.31-.42.52a2.67 2.67 0 0 0-1.46-.52c.09-.58.87-.44.95-1.04zM155.44 76.75c.24.31-.6.26-.73.31 0 .14.19.16.21.31.11-.07.11-.24.31-.21.18.6-.16.62 0 1.25-.21-.07-.42-.31-.21-.52-.49.47-.1 1.21.1 1.56-.8.32-.55-1.14-.94-1.56 0-.25.32-.23.41-.42-.13-.21-.5-.19-.41-.62.59.19.86-.5 1.14 0 .11.02.12-.04.12-.1zM117.68 77.48c-.34-.18.12-.42.21-.52s.24.18.21.42c.26-.09.49-.52.83-.21-.14.57-.93.06-1.25.31zM156.59 77c.19.08-.06.11-.21.1a.29.29 0 0 0 .21.31c0 .21-.46 0-.42.31.16-.33-.42-.18-.52-.52.54.19.47-.2.94-.2zM156.07 78.31c-.26 0-.32-.2-.42.1.08.22-.13-.12 0-.52a3.27 3.27 0 0 1 .73.73c0 .15-.13 0-.31 0zM110.61 83.72c-.31-.3.48.24.52-.11.32.39-.37.39-.52.11zM68.58 103.69c-.23-.23.51 0 .62.11 0 .48.25.68-.31.83.17-.37.24-.35.1-.83-.17 0-.18.1-.31.1.22.27-.1.59.1.73 0 .09 0 .1-.1.1h-.31c.09-.37.43-.95.21-1.04zM89.59 108.58c.33-.28.58.39.62.73-.24.14-.39-.27-.42 0-.15-.09.4-.71-.2-.73zM89.07 109.62c.23-.09.69-.23.83-.1s-.19.23-.11.52c-.19-.15-.55-.22-.41 0-.09.25-.31-.23-.31-.42z" transform="translate(-.23 -5.83)"/><path class="cls-2" d="M89.49 110.45c.09-.26.55-.14.73-.31 0-.21-.28-.13-.21-.42.18 0 .2-.08.21-.21.26.05.37.25.52.42-.26.12-.39.37-.31.83-.36-.05-.43-.36-.94-.31zM45.07 116a.81.81 0 0 1-.94-.41c0-.4.35-.48.31-.94.31.16-.09.45 0 .72s.18.16.21.31c.14 0 .09-.26.1-.42.38.1.61.63.31.83-.06-.04-.06-.09.01-.09zM66.6 117.63v-.21a.51.51 0 0 1 .31-.1c0 .24 0 .39.21.42-.07.26-.27-.2-.52-.11zM49.33 121.38c.94.07 2.07.84 3.12 1.14-.95-.05-2.07-.83-3.12-1.14zM63.07 123.15c.23-.22.68.22 1 .21-.14.17-.79-.08-1-.21zM87.1 124.92c.3.05-.16.16-.1.31.34 0 .22-.4.52-.41-.37.06.05-.54.52-.52a6.57 6.57 0 0 1-1.57 1.7c-.03-.22.45-.77.63-1.08zM46.73 124.5a24.14 24.14 0 0 1 5.72 2.81c.15.13 0 0-.1 0-1.93-.89-3.77-1.85-5.62-2.81zM57.45 124.92c0-.29.77.22 1 .31-.31.3-.57-.37-1-.31zM105.09 126.16c-.38-.21-.27.15-.73.11.07.1.24.11.21.31-.37 0-.38.31-.73.31 0-.22.7-.33.31-.62.42-.17.86-.31.83-.93a.62.62 0 0 0 .42.1v.41c-.33-.08-.06.15-.31.31zM59.74 126.06a9.35 9.35 0 0 1 2.08.94c-.66.06-1.42-.66-2.08-.94zM101.87 126.37c.12-.29.81-.47.73.11 0-.13-.64-.13-.31 0-.1.3-.16-.25-.42-.11zM101.76 127.21c-.14 0-.09.26-.1.42-.15-.31-.57-.76-.31-1.14 0 .73.86.67 1.25 1 .08 0 .1-.1.21-.1a2.53 2.53 0 0 1-.42-.42c0-.2.35.12.62 0 .09.57-.27.69-.62.83.18-.57-.58-.22-.63-.59zM62.55 127.51a21.74 21.74 0 0 1 2.08.73 3.43 3.43 0 0 1-2.08-.73zM71.8 130.74c-.14-.18.81.19 1 .31-.19.2-.69-.23-1-.31zM72.95 131.16c.18-.1.87.17 1.15.31-.26.18-.79-.26-1.15-.31zM107.8 134.38c-.36 0-.31-.31-.52-.42s-.09.26-.1.42c-.66-.73-2.41-.36-3.43-.73 1.3-.01 3.54-.14 4.05.73zM101.14 137c.3 0 .36.2.52.31s-.66.07-.52-.31zM101.24 137.5c.26-.07 0 .72.31.21.53.23-.22.39-.62.31-.08-.35.42-.13.31-.52zM102.7 137.5a.57.57 0 0 0 .42.1c-.23.31-.42.42-.42.73s.28-.15.42.1c0 .15-.31 0-.32.21-.19-.45-.48-.16-.62-.62.51-.02.48-.02.52-.52zM103.84 137.81c.11.09 0 .85-.41.52-.11.39.26.29.21.62-.33-.06-.32.19-.52 0a4.59 4.59 0 0 0 .41-1c.15-.02.3-.02.31-.14zM116.64 145.62c0-.12.1-.06.1 0s.1 0 .1-.11a.51.51 0 0 1 .21.52c-.09 0-.19-.09-.21-.21-.4.26.09-.11-.2-.2zM96.35 148.11c.24.32.66.45.73.94-.19-.36-.62-.48-.73-.94zM112.69 156.85c-.63.1-1.48-.46-2.08-.73.26-.12 1.39.59 2.08.73zM91.15 13.71l.62.31c-.18.28-.68-.02-.62-.31zM88.87 14.33c.16-.31.46.09.73 0-.24.26-.49.17-.73 0zM78.15 19.95c.21.11.16.46.52.42-.08.36-.31.07-.52 0zM108 31.71h.31c0 .29-.18.44-.52.42-.12-.35.34-.13.21-.42zM108.94 36.8h.31c0 .39.12.3 0 .62-.14 0-.08-.26-.1-.42-.15.05-.15-.07-.21-.2zM80.65 42.94c.17 0 .18.1.31.1 0 .27-.14.34-.42.31-.04-.21.08-.27.11-.41zM99.89 52.2a1 1 0 0 1 .62 1.15 1.23 1.23 0 0 0-1.25-.62c.23-.24.96-.03.63-.53zM70.87 60.42c.22 0 .27.07.42.1 0 .13-.18.16-.21.31a.46.46 0 0 1-.21-.41zM88.76 63.33c.11 0 .07.21.21.21-.36.26-.43.82-.83 1 0-.37.28-.55.21-1 .24.03.48.26.41-.21zM144.94 74c.34.2 0 .48.21.83-.26-.12-.23-.53-.42-.73.12.07.18.03.21-.1zM48.92 74.46c.16 0 .09.33.41.21.39.2-.49 0-.41.21-.12 0-.09-.19-.1-.31s.09-.04.1-.11zM48 74.88c.27 0 .45 0 .42.31-.29.03-.42-.04-.42-.31zM144.83 75.19c.37 0 .34.35.63.42-.23.28-.62-.14-.63-.42zM146.81 75.6c.2.12.22.4.42.52-.18.27-.46-.22-.62-.31.02-.11.2-.07.2-.21zM156.8 79.35c.38.1.06.31.1.63-.26-.15-.18-.36-.1-.63zM99.16 85.91c.16-.25.52.16.52.42-.29-.03-.28-.33-.52-.42zM141.61 91.42c.22.23.3-.05.62 0 .15.32-.77.32-.62 0zM21.77 96.62a1.68 1.68 0 0 1-1.56.52c.45-.36.97-.26 1.56-.52zM36.12 96.83c.27 0 .5.53.62.31.32.51-.65.11-.62-.31zM65.25 97.87c.22.39-.92.33-1.25.52.15-.45 1-.23 1.25-.52zM51.31 99.95c-.23.3-.9.14-1.25.32.15-.39.77-.27 1.25-.32zM49.44 100.26c-.44.21-1.64.87-1.87.31.76.04 1.13-.32 1.87-.31zM46.32 101.09a20.58 20.58 0 0 1-4.06.84 12 12 0 0 1 4.06-.84zM41.95 101.93a17.06 17.06 0 0 1-3.23.41 12.18 12.18 0 0 1 3.23-.41zM65.88 101.82c.29 0 .3.25.31.52a.38.38 0 0 1-.31-.52zM37.89 102.44a2.17 2.17 0 0 1-1.56.11 2.24 2.24 0 0 1 1.56-.11zM33.83 103a6.26 6.26 0 0 0-1.25-.1c-.05-.08 1.29-.5 1.25.1zM66.6 103.9c.25.14-.19.31.1.42-.14.27-.64 0-.83 0 .13-.24.47-.32.73-.42zM88.76 109.72c.08 0 .1.11.21.11v.17c-.3-.31-.18.26-.52.21-.05-.29.28-.21.31-.49zM106 110.45q.49-.07.42.42c-.08-.07-.29-.16-.31 0-.11-.03-.11-.26-.11-.42zM46.94 115.34c.21 0 .28.21.42.31 0 .21-.39.1-.42.31-.35-.21-.04-.3 0-.62zM46.94 116.18c-.14.15-.46.27-.62.1.06-.34.39-.15.62-.1zM45.59 119.3c.21-.3.65 0 .94 0-.21.3-.65-.04-.94 0zM49.75 119.82a7.26 7.26 0 0 1-2.7-.31c-.92-.18.27-.11.31-.1.31.01 1.75.38 2.39.41zM63 123.15c-4-1.2-7.86-2.06-12.48-3-1.35-.28.74-.09 1.25 0a62 62 0 0 1 11.23 3zM102.7 125.54c.23 0 .22.26.21.52-.42.01-.28-.27-.21-.52zM103.33 126.89c.21.17.13 0 .42 0 .11.26-.35.46-.42.21zM65.88 128.56c-.3.29-.74-.16-1.15-.1.18-.46.68.17 1.15.1zM107.8 134.07c1.36-.28 2.83.22 4.16.31a26.56 26.56 0 0 1-4.16-.31zM100 135.32c.41.15-.12.74-.1 1.15-.43-.27.05-.75.1-1.15zM100.52 135.63c.19.12.08.54.21.73-.23-.08-.23-.4-.52-.42-.05-.25.47.06.31-.31zM104.89 135.84c.09.29-.15.27-.11.52-.15-.09-.33-.16-.31-.42a.6.6 0 0 1 .42-.1zM106.24 136.25c.23 0 0 .44.1.63-.41-.18-.21-.28-.1-.63zM100.52 136.46c.46 0 0 .63 0 .83a.49.49 0 0 0-.31-.1.7.7 0 0 0 .31-.73zM105.09 136.46a2.7 2.7 0 0 0 .84.31c-.22.23-.93.06-.84-.31zM106.55 137.71c.39.08.13.56-.21.52.05-.23.23-.23.21-.52zM87.72 137.92c.32 0 .46.09.41.42-.32.04-.46-.1-.41-.42zM101 138.23c.24 0 .24.28.11.41s-.33-.08-.31-.31c.09 0 .1 0 .1.1s.1-.12.1-.2zM103 139.38c.32-.08.2.28.52.21-.03.34-.52.11-.52-.21zM42.57 139.58c.4-.06.09.6.42.62-.23.29-.53-.2-.42-.62zM54.85 142.39c.23.19.24.52.62.31-.06.25-.09.54-.42.52a1.62 1.62 0 0 1-.2-.83zM99.27 150.5c0-.12.19-.08.31-.1 3 2.14 7 3.37 10.09 5.41a84.56 84.56 0 0 1-10.4-5.31zM89.39 14.75c0 .19.13.22.1.42-.51-.11-.82.26-.94-.52.65.7.35 0 1.14-.1-.18.53 1.12-.05 1.35.52-.09.3-.26-.14-.52 0-.09 0-.18.09-.21.21-.14.45.5.13.42.52-.59-.25-.16 0-.73.1.23-.24.09-.28.21-.52-.09-.31-.33.06-.52 0 0-.12 0-.19-.1-.21s.13-.08.21-.1c-.09-.16-.16-.34-.41-.32zM93.13 16.93h.31c.05.33-.29.46.21.41 0 .33-.09.47-.42.42-.23-.41.27-.5-.1-.83zM75.34 50.64v-.31c.32 0 .29.26.42.42s-.14-.23-.42-.11zM88 62.19a.33.33 0 0 1 .1.52c-.19.1-.35-.31-.41 0-.28-.09.18-.29.41-.21a.49.49 0 0 1-.1-.31zM87.2 64c.07-.49.66-.38.52-.83.18 0 .22.13.41.1-.49.25-.11.32 0 .73-.32.08-.2-.29-.52-.21-.08 0-.11.1-.21.1q0 .34.31.31c-.21.34-.33-.2-.51-.2zM87.72 64.89a1.19 1.19 0 0 0 .62.73c.74-.42.36-.78 1.25-.93 0 .23 0 .39-.21.41.29.16.64.27.73.62-.37-.09-.5.24-.73 0 .1-.14.17 0 .31-.21-.17-.16-.42.08-.42-.42-.24.11-.22.48-.21.83a6.81 6.81 0 0 0-1.46-.42c.19-.36-.28-.55.21-.83.23-.06.15.2.31.2-.01.29-.12-.12-.4.02zM60.47 70.51c-.18 0-.61-.38-.42-.1 0 .1-.13.08-.21.1s0-.1-.1-.1c.08-.25.81-.41.73.1zM119.14 75.4c.5.27 1.22.3 1.45.83-.33-.3-.92 0-1.25-.52-.06.16-.48.8-.52.31-.08 0-.1.11-.21.11a.29.29 0 0 0 .21.31c.47-.53.88.16 1.25 0 0 .36-.31.31-.42.52a2.67 2.67 0 0 0-1.46-.52c.09-.58.87-.44.95-1.04zM155.44 76.75c.24.31-.6.26-.73.31 0 .14.19.16.21.31.11-.07.11-.24.31-.21.18.6-.16.62 0 1.25-.21-.07-.42-.31-.21-.52-.49.47-.1 1.21.1 1.56-.8.32-.55-1.14-.94-1.56 0-.25.32-.23.41-.42-.13-.21-.5-.19-.41-.62.59.19.86-.5 1.14 0 .11.02.12-.04.12-.1zM117.68 77.48c-.34-.18.12-.42.21-.52s.24.18.21.42c.26-.09.49-.52.83-.21-.14.57-.93.06-1.25.31zM156.59 77c.19.08-.06.11-.21.1a.29.29 0 0 0 .21.31c0 .21-.46 0-.42.31.16-.33-.42-.18-.52-.52.54.19.47-.2.94-.2zM156.07 78.31c-.26 0-.32-.2-.42.1.08.22-.13-.12 0-.52a3.27 3.27 0 0 1 .73.73c0 .15-.13 0-.31 0zM110.61 83.72c-.31-.3.48.24.52-.11.32.39-.37.39-.52.11zM68.58 103.69c-.23-.23.51 0 .62.11 0 .48.25.68-.31.83.17-.37.24-.35.1-.83-.17 0-.18.1-.31.1.22.27-.1.59.1.73 0 .09 0 .1-.1.1h-.31c.09-.37.43-.95.21-1.04zM89.59 108.58c.33-.28.58.39.62.73-.24.14-.39-.27-.42 0-.15-.09.4-.71-.2-.73z" transform="translate(-.23 -5.83)"/><path class="cls-2" d="M89.07 109.62c.23-.09.69-.23.83-.1s-.19.23-.11.52c-.19-.15-.55-.22-.41 0-.09.25-.31-.23-.31-.42z" transform="translate(-.23 -5.83)"/><path class="cls-2" d="M89.49 110.45c.09-.26.55-.14.73-.31 0-.21-.28-.13-.21-.42.18 0 .2-.08.21-.21.26.05.37.25.52.42-.26.12-.39.37-.31.83-.36-.05-.43-.36-.94-.31zM45.07 116a.81.81 0 0 1-.94-.41c0-.4.35-.48.31-.94.31.16-.09.45 0 .72s.18.16.21.31c.14 0 .09-.26.1-.42.38.1.61.63.31.83-.06-.04-.06-.09.01-.09zM66.6 117.63v-.21a.51.51 0 0 1 .31-.1c0 .24 0 .39.21.42-.07.26-.27-.2-.52-.11zM49.33 121.38c.94.07 2.07.84 3.12 1.14-.95-.05-2.07-.83-3.12-1.14zM63.07 123.15c.23-.22.68.22 1 .21-.14.17-.79-.08-1-.21zM87.1 124.92c.3.05-.16.16-.1.31.34 0 .22-.4.52-.41-.37.06.05-.54.52-.52a6.57 6.57 0 0 1-1.57 1.7c-.03-.22.45-.77.63-1.08zM46.73 124.5a24.14 24.14 0 0 1 5.72 2.81c.15.13 0 0-.1 0-1.93-.89-3.77-1.85-5.62-2.81zM57.45 124.92c0-.29.77.22 1 .31-.31.3-.57-.37-1-.31zM105.09 126.16c-.38-.21-.27.15-.73.11.07.1.24.11.21.31-.37 0-.38.31-.73.31 0-.22.7-.33.31-.62.42-.17.86-.31.83-.93a.62.62 0 0 0 .42.1v.41c-.33-.08-.06.15-.31.31zM59.74 126.06a9.35 9.35 0 0 1 2.08.94c-.66.06-1.42-.66-2.08-.94zM101.87 126.37c.12-.29.81-.47.73.11 0-.13-.64-.13-.31 0-.1.3-.16-.25-.42-.11zM101.76 127.21c-.14 0-.09.26-.1.42-.15-.31-.57-.76-.31-1.14 0 .73.86.67 1.25 1 .08 0 .1-.1.21-.1a2.53 2.53 0 0 1-.42-.42c0-.2.35.12.62 0 .09.57-.27.69-.62.83.18-.57-.58-.22-.63-.59zM62.55 127.51a21.74 21.74 0 0 1 2.08.73 3.43 3.43 0 0 1-2.08-.73zM71.8 130.74c-.14-.18.81.19 1 .31-.19.2-.69-.23-1-.31zM72.95 131.16c.18-.1.87.17 1.15.31-.26.18-.79-.26-1.15-.31zM107.8 134.38c-.36 0-.31-.31-.52-.42s-.09.26-.1.42c-.66-.73-2.41-.36-3.43-.73 1.3-.01 3.54-.14 4.05.73zM101.14 137c.3 0 .36.2.52.31s-.66.07-.52-.31zM101.24 137.5c.26-.07 0 .72.31.21.53.23-.22.39-.62.31-.08-.35.42-.13.31-.52zM102.7 137.5a.57.57 0 0 0 .42.1c-.23.31-.42.42-.42.73s.28-.15.42.1c0 .15-.31 0-.32.21-.19-.45-.48-.16-.62-.62.51-.02.48-.02.52-.52zM103.84 137.81c.11.09 0 .85-.41.52-.11.39.26.29.21.62-.33-.06-.32.19-.52 0a4.59 4.59 0 0 0 .41-1c.15-.02.3-.02.31-.14zM116.64 145.62c0-.12.1-.06.1 0s.1 0 .1-.11a.51.51 0 0 1 .21.52c-.09 0-.19-.09-.21-.21-.4.26.09-.11-.2-.2zM96.35 148.11c.24.32.66.45.73.94-.19-.36-.62-.48-.73-.94zM112.69 156.85c-.63.1-1.48-.46-2.08-.73.26-.12 1.39.59 2.08.73z" transform="translate(-.23 -5.83)"/></svg>