<svg id="Layer_1" data-name="Layer 1" xmlns="http://www.w3.org/2000/svg" viewBox="0 0 528.02 59.02"><defs><style>.cls-1{fill:#b3282d;}.cls-2{fill:#231f20;}.cls-3{fill:#fff;}</style></defs><title>logo</title><path class="cls-1" d="M60.54,21.58l-2.33.05-.06.17H56.34l-1.69-.34.17,0-1.92.06-1.92,0,.07.24-.17-.34-1,0,0,.32-.12-.28-.72.14-1.72-.12-.64.16-.09-.06H46l-1.63.18-1.64,0,.2-.33h-.44l-1.65.33,0,.07-.53-.07h0l-.43,0,.47-.27-.58,0,.14,0-.48,0-.14.07-.07.06-.05-.08-.69-.07h0v0l0,.08-.68-.07-.48-2-.15.1,0,.45-.1-.94L37,19l-.11-.22-.14.58-.5-1.45.59.4-.28-.9-.87-1.5-.51-1.7.24-.09-.08-.19-.41-.43.34.07-.75-1.9L33.85,9.7,33.3,7.84h.15l-.51-1.38-.53-1.37-.14.15-.36-.84h.25l.11,0-.56-1.8-.53,0-.05-.85.3.43L30.7,0h0l-.38,1h-.23l-.13.4-.22,1.34-.17-.29-.23.62L29,4.44l-.54,1.31.34-.41L28.4,7l-.27-.12-.21.81,0,0,.2-.17V7.13l0,.41L28,7.76V8H28l.23.07-.07.51L28,8.7l.15-.14L27.91,8l0,0L27.82,9.2,28.07,9l-.12.5,0,0-.15.19,0-.15-.32-.24-.28.8h.16l-.22.13-.34,1.5-.2-.06-.13.68,0,.45-.42.31.54.48-.64.15.43.44-.41.41-.28-.13v1.1l-.46-.27,0,.36,0,1.22-.54.42.09-.2-.11,0-.07.2.18.09-.1,1.21-.38,1.18-.35.17L23.56,21l0,.61-.07-.23-.09.21-1.52,0-1.53-.13.54.15-1.08,0h-.18l.31.05-1.47,0,.41-.3-.8.16-2.32,0-.15.15-.06,0-.93.15-.06-.32-.24-.06-.53.42.36-.33-2,0-2-.19-2.19.41-.05-.31-1.5,0-1.5-.13-1.5.11H3.06l0-.11H1.55L0,21.56l1.22.75,1.17.91L3.65,24,3.72,24l-.21-.27.62.73.24,0-.14-.21L5.38,25l-.72-.1.75.48L7,26.24l1.52,1.11-.15.33,1.17.87,1.24.77,1.19.82,1.8,1.18-.14.06.16,0,.77,0-.71.21,1.1.77,1.13.71v-.2l.75.23-.1.4-.24-.13,1.62,1.22.35-.11.76.51-.94-.1.75.3-.4,1.27.07.06.17-1.14.09,1.26-.35.89-.37,0,0,.22.1,1,1.22.37,1.19.36-1.19-.36-1.29-.23-.25.18-.15-.16,0-.08-.37.73-.05.51-.25.18-.55,1.66.42-.45-.46,1.62L16.45,43l-.49.85.13.09-.08.16-.11.54,0,.06-.07,0,.09.46-.08.29-.17.43h-.06l0-.09-.08-.08-.21.67-.27,1-.08,0,0,.13-.15.45v.41l-.17.19-.2.25.55.39-.47.07.13.45-.25.39L14.15,50l-.17.88h-.08l-.18.43-.1.87-.31.3-.1.14,0,0-.53,2.22-.17,0-.28.46.08.05-.38,1-.12.23-.19.58.88-.73.18.19.52-.36.84-.89-.17.4,1.44-.94,1.29-1.15-.28.35L17.79,53l.06.08.47-.54-.15,0-.16.33.29-.14.14-.23.11,0,0-.11.05-.08-.14-.12.27-.45.15,0,0,.11-.38.46.1.07L19.1,52l.3-.58-.23,0,.37-.19,0,0,.13,0-.06,0,.14.25,2-1.39h0l.26-.15h.23l.17-.28.15-.16.15.07.29-.29-.06-.69.5.27,0-.57.59-.08.15.22.65-.81.18.29.38-.46.59-.49.06,0,.56-.25,0,0,.83-.91,1-.71.22.13.38-.39.18-.12.73-.6.31-.16,0,0,.25-.22-.07-.06,1.31.42.73.7-.1.2.54.29,1,.63-.38,0,1.3.75,1.2.84.9.86.34.3.19,0,0,0,.69.68.09-.16v.06l.13,0,.48.18.11.12-.09-.17-.56-.13-.11.21.68.21.5.22-.13-.28.28.37.12-.21-.1.21,0-.05-.12.17,1.69,1.43.2.09,0,0,.69.52.07.13.09-.1.29.28.57-.12-.21.26.2.26.44-.1.33.44-.19.24.41.26.51.13-.1.11,1.06.84.14-.15-.05.06,1.32,1.14.78.49,1.74,1.15L49,56.26l-.37-.74.17-.14-.15-.29-.46-.46.18-.12-.1-.71L47.81,53,48,53l-.3-1.25-.51-1.17-.36-1.22,0-.08L46.7,49h0l-.17-.25-.08-.23.14-.23-.07-.16-.19.08,0-.2-.3.24-.25-.43.07-.26v.2l.44.41.21-.1-.35-.48-.47-.44-.05.31L45.45,47v-.19l.09.22.34-.17-.69-2.16.22,0-.17-.23,0-.29-.13-.2-.22-.14.13-.26-.1-.37-.8.07.42-.39-.59-.16.1-.55.35-.1L44,41.29l.15-.11L44,40.83l-.53-.72.14-.65,0-.12-.2.09L42.77,38l-.38-1,.25.88-.14-.58.16-.28-.23-1.12,0,0-.35-.6.32.15-.1-.22,1.18-.75-.54.18.86-.43.32-.23-.52,0,1.21-.91-.11.5.52-.64,1.38-1L48,31l.07.15.07-.17.41-.45.09.25,1.58-1.31,1.66-1.19,1.43-1.19.09.21,1.23-1,.06.05,0,0,1.06-.74,0-.08.53-.65.25.14-.08.17L57.85,24l-.11-.51.81-.29-.26.48,1.38-1.16,1.45-1-.29.14-.28.07Zm-58.25.63-.34,0H2l-.33-.09-.2,0,.1-.08v-.3l.22.19.59-.32Zm2.09,0-.18-.43,1,.19Zm2,2.59.16.27Zm0-2L6,22.53l.58-.36Zm1.9,2,.16.27Zm7.12-2.88-.25-.21ZM8.43,27.69h0Zm2-3.66-.2-.21.59-.27,1,.13Zm1.82-.26.74.05.2,0,.17,0Zm1.55,6.94h-.17v0l.12,0,0,0-.26-.12-.14,0,0-.07,0-.11.37.09,0,.13.24-.21Zm0,.21.05-.18.1,0Zm-.39-7.14,1.74-.5ZM15,31.87l.58-.38,0,.4Zm0-.66.77-.16Zm.92-.06.55-.21Zm2.14-6.3,0,.06L18,24.86v0l0,.05v-.1l.06,0v.12Zm0-.06,0-.25.19.21Zm2,10.27.16-.15Zm.34,2.16.2.31Zm-4.59,10-.38-.4.22-.73.38.34ZM17.78,47l-.11-.41.29.17Zm.89-6.74.49.1Zm3.47-7.64-.43,0,.36-.19Zm-.37-.93L22,32Zm-.19-1.47-.54.28Zm-.4,9.4-.5-.05Zm-1.67,1,.89.33ZM21,50.31l-.6.58-.1-.61.69-.46Zm-.42-9.17.87.25ZM21.08,34l.36-.18Zm.26,7.52.53,0Zm.41-7.16-.18-.16Zm.31,3.19L22,37.4h.21l0,.17Zm0-3.84-.48,0,.78-.19Zm.22-.55.22-.19ZM23.49,22l-.71-.11Zm-.67,10.84-.21,0,.16-.37.23,0-.05.21v-.23l-.1,0,0,.27Zm0,.72.43-.2Zm.29,3.27.37.13Zm-.2-1.13h0Zm.59,2.21.22.06ZM32,6.27l.54.36-.69-.06ZM31.88,20l-.23,0,.1-.12Zm0-14.67-.24.08Zm-.56,16.39.17.09Zm-.36-4.12-.18-.2Zm0-11-.18-.2Zm-.43-.26.06.23ZM30.53,18v.15l.2.29-.27,0,.21-.08-.24-.16-.08.35-.56-.18.07-.36.06.16-.19-.07.32.2ZM30.19,19l-.16,0,.06-.17ZM30,17.58l.1-.07.18.1L30,18Zm0-.41L29.93,17l.07.29-.17,0Zm-.19.27.25.11,0,.2-.21-.1h-.16l.18.17-.2-.07Zm-.73-6.93-.2-.18Zm0,8.66-.1.23Zm-.72.35.13.19-.17-.07Zm0-.07-.06.14-.13-.12Zm-.95-9.21.46.44-.31.75L27.32,11Zm.11,24.33-.77.12Zm-.64-14.66.17.09-.24,0Zm-.13-.4-.21-.07ZM26,16.21l.39.64Zm.08,3.17.19-.08Zm.12.5L26.1,20,26,19.86Zm-.1,1.53,1,.42L26,21.46Zm.56,13.24-.46.05Zm-.45-1.22h0ZM25.53,17.7l0,.08-.12.05h0l.06-.17Zm-.25-.1.08.23Zm-.74,20.18-.27,0ZM24,42.4l.49.08Zm.29-4.46.22-.08Zm.12,4.61.54.08ZM25,37.73l-.14,0,.23,0ZM24.72,21l.63.12Zm1.21.37-.72-.22Zm-.37,1.53.3,0Zm.27,11.93-.29,0Zm1.81,7.77.2.13Zm-2.07-4.7.1-.14,1.07.62,1,.63-1.05-.65Zm2-3.29,1-.21Zm.64,3,0,0L28,37.46l.09-.2-.11.18.13.06,0-.14Zm.06.67.32,0Zm.15-.65.25-.07Zm.14-.23.2.06-.17.12Zm.12.85.59.09h-.66Zm0-4,.48-.11Zm1.11,4.71L29,38.74Zm0,1-.08.12-1.18-.69Zm-.4.69.17-.5v.18l.18-.14.1-.17Zm.91,2.78-.08-.28.19.12Zm-1-4.93.29-.13,1.21.34,1.18.39-1.3-.44Zm.21-4.38-.36.16Zm-.11-10.24.07-.22.21.07-.06.13Zm.63,11,.06-.26.17.06v.08Zm.79.19L30.45,35l.29-.2-.05-.14h.1l.14,0Zm-.24-.53-.17-.24.31.22Zm0,0v.26l-.21-.05-.13-.14Zm.15,5,.33,0Zm.47.22.57.18Zm.61.27.55.14Zm.38-.89-.34,0Zm-.08-5.28.32-.22Zm.15,6.42.35-.05Zm.25-5.74.16.2Zm0,.57.2-.19,0,.17Zm.2,2.88-.08-.13.16,0,0,.1Zm.47-2.79,0-.17,0,0v.17l0-.09,0,.1V35h.17ZM27.35,21.93v-.17l1.52.58,1.54.5,1.55.5,1.59.23L32,23.35l-1.56-.42-1.55-.45Zm6.43,3.87-.13-.18.17.07ZM38.47,25l-.26.14ZM38,36.27l0,.22-.28-.1.17-.08,0,0,0-.09Zm-.29,0-.18-.14.26,0,0,.11Zm.17-.14-.06.05L37.71,36Zm-.41-14,0,.71Zm.13,14.09-.08.15h-.07l.09-.12Zm-.2-10.13,0-.11.06.21-.11,0Zm0,16.28-.18-.18Zm-.27-2.93,0,0h.08l.09-.13-.37.27Zm-.39-4.37-.09.05-.11-.24Zm-.21-1.73-.29,0ZM36.15,33v-.22l.31.21,0,.23-.11,0,.1,0-.14-.2Zm-.36-11.1H36l-.18.13Zm.07,18.81.26-.35.25,0v.16l-.1,0-.28.12.09.17-.29.1Zm-.25.2.19,0-.22.16Zm.12,4.51-.3,0,.23-.39.13,0-.17.08Zm-.26-14.48.07,0-.14,0,.06.07,0-.09v-.06Zm-.23,9.83-.26,0,.35,0Zm-.08-9.3-.2-.18.26,0,.05.09Zm.23,0-.17.2Zm-.09.08.22.06-.16.07Zm0,8.91.15.3ZM35.27,17l.18.07-.19.07Zm-.09,13.54.19.16-.05.11-.09.21v-.13l0-.06-.14-.22Zm0,.57-.22.06Zm-.27,9.67.48.34v0L35.26,41l.14.07-.13.23L35,41.08l0,.15Zm-.22-17.15,0-.19.14.16Zm.11-2.69-.61-.13.6-.36Zm-.27,23.23.18.34-.27-.2Zm-.23-30.75.34.49-.54-.27Zm0,12.62-.3-.16ZM33.9,40.74l.33,0Zm.55.12h0Zm-.11,3.65,0-.54Zm.63.28.1,0-.07,0h0l-.15.19.12,0v.15h-.12l-.08,0-.05.11.22.08-.16,0v.18l-.13-.73-.27,0,.25-.22.07.13.06,0,0,0,0,0,0,0,.11-.05-.25-.17.21-.3,0,.38,0,0,.19.33Zm-.1-.19-.07-.16,0,.14Zm.5.7L35.1,45l.25-.15.16,0-.24.29.23,0Zm.19,1.59,0-.27Zm-.11-1.37.28,0Zm.22,1.14.2.22Zm.49-2.21-.23-.2.25,0Zm.06,0,.42.11Zm.42-.07.07.35Zm0,.79.06-.3ZM37,43.59l0,.05-.07.08-1.24-.28,1.25.21,0-.07,0-.05.18.19Zm1,3.05.18.18Zm.15,0,.22-.12ZM37.2,43.6l1.66.07Zm1.94.79.25.29Zm5.92,1,.38.7-.71-.05-.22-.74Zm-1.51-1.57v-.08l.05.21-.07-.07,0-.11ZM42,32.16l-.1-.22Zm-.6-10.23.64.38-.55-.21-.17.1h-.18l.18.19.46,0-.17.24L41,22.39ZM41.27,42v.08l0-.15-.12-.13.44.28Zm0,.32,0-.23Zm0-.36L41,41.86Zm.23-.55,0,.05h-.06l-.71-.17.7.16,0-.07,0-.05.11.13Zm-.48.5-.19-.14H41Zm-.25.57-.22,0,.16-.23h0Zm-.1-.15-.18.11-.07-.2.14-.1h0v.17Zm.08.23-.21-.08Zm-.11-2.63.08-.14.06.07Zm.18-.19.13-.21h.19v.09l-.06,0-.17.1.06.12-.18,0Zm.42-3.41.19.17-.14,0ZM40.95,22.5l.14.12h.28l-.48.11Zm-.11,9.23-.09.2Zm-.25,1.5,0,.1Zm.52,2.42-.66.26Zm-.61,3.92.12.22Zm0,.24,0-.05-.18,0Zm-.28,0,.29.17,0,.06-.06-.1,0,.07,0,.11L40.29,40V40Zm.07,2.31-.2-.11Zm-.16.06.08,0-.12.17Zm0,.18,0-.1,0,.19-.06-.08ZM40,41.9l.1.25L40,42.08ZM40,41.85v-.11l.15.18ZM39.89,23.9l.24.31L39.78,24ZM39.94,42l0-.36Zm-.33,7.28v-.06l-.06,0,.19.05Zm.3-18-.22-.1Zm1,19.7-.73-.4.55-.28.65.52Zm-.39-3.07.12-.1h0l.06.2-.1-.17ZM39.77,45l.14-.13,1,.65,1.06.58-1.08-.61Zm2.42,1.19.56.12Zm.29,5.77.28,0-.3.1Zm.11.15.26-.05Zm.13-.19L43,52Zm.52-12.67-.63.17-.22-.62Zm-.69,2.25-1,0Zm-.76-8.17,0-.62.51.47Zm.41-2.62.14-.14Zm.75-8.24,0-.18.18.15Zm.22-.09.29,0Zm.17,1.73.5-.56Zm.95,8.59.22.11Zm1.27-6-.32,0Zm-.24,0-.21-.08Zm0,.37,0-.06-.07,0-.1-.07.09,0,.1,0,.09.11Zm.12.08.19.26Zm1.07-1.36-.18-.16Zm1.61-1.7-.16-.22.15.1Zm.31-.35.18,0,0,.14Zm3.49.37,0-.28,0,.34-.07-.05Zm-3.27,0-.11-.17.3.12h-.09Zm.13.37-.11-.19.16.12Zm0-.25-.08-.09h.24l0,.12Zm.84,4.37.12.23-.2-.17Zm-.06.25.25.1Zm.18-1,.3,0ZM49.88,29l.07-.16.12.2Zm1-7.12.34.17Zm.64.28.1-.19.18.28ZM52,24.62l-.25.05.05-.17.12,0h0Zm.14-.64L52,23.7Zm0-.56L52,23.27l.21,0Zm0,.93-.1-.35.25.28Zm2.1.39-.29,0Zm-.13,1.37L54,25.44l.39.08ZM54.47,25l-.15-.23.21.12Zm.05,0,.24.07Zm0-2.37.09,0h.08l0,.47-.14-.26.09.63-.36-.54.17-.17-.16-.28.37.1h0Zm.45.59,0-.07-.1,0V22.9l.17.3Zm.24-.51-.21,0-.18-.12.35,0-.15,0Zm.1,1-.09-.35Z" transform="translate(-0.05 -0.02)"/><path class="cls-2" d="M26,5.29h0a.1.1,0,0,1,0,.12S26,5.33,26,5.29Z" transform="translate(-0.05 -0.02)"/><path class="cls-2" d="M25.69,5.33c0-.05.1,0,.08.06S25.72,5.34,25.69,5.33Z" transform="translate(-0.05 -0.02)"/><path class="cls-2" d="M25.92,5.43c0,.06-.07,0-.12,0S25.85,5.45,25.92,5.43Z" transform="translate(-0.05 -0.02)"/><path class="cls-2" d="M35.31,5.45h.08s0,.07,0,.08S35.32,5.48,35.31,5.45Z" transform="translate(-0.05 -0.02)"/><path class="cls-2" d="M27.49,5.53s0,0,.08,0,0,.1-.06.08S27.52,5.53,27.49,5.53Z" transform="translate(-0.05 -0.02)"/><path class="cls-2" d="M28.68,5.55c.05,0,0,0,.08,0s0,0-.08,0,0,0,0,0S28.64,5.56,28.68,5.55Z" transform="translate(-0.05 -0.02)"/><path class="cls-2" d="M36,5.57a.11.11,0,0,0,.08,0,.17.17,0,0,0,0,.12l-.06,0S36,5.61,36,5.57Z" transform="translate(-0.05 -0.02)"/><path class="cls-2" d="M23.47,5.92s-.09.05-.12,0a.09.09,0,0,0,0-.06C23.43,5.86,23.41,5.93,23.47,5.92Z" transform="translate(-0.05 -0.02)"/><path class="cls-2" d="M35.84,6.07s0,0,.08,0,.06,0,0,.12S35.82,6.18,35.84,6.07Z" transform="translate(-0.05 -0.02)"/><path class="cls-2" d="M22.34,6.25s0,.07,0,.12S22.31,6.28,22.34,6.25Z" transform="translate(-0.05 -0.02)"/><path class="cls-2" d="M36.05,6.34s.08,0,.08.1S36,6.42,36.05,6.34Z" transform="translate(-0.05 -0.02)"/><path class="cls-2" d="M22.38,6.48c.05,0,.06,0,.06.1S22.34,6.52,22.38,6.48Z" transform="translate(-0.05 -0.02)"/><path class="cls-2" d="M26.09,6.81c.09,0,.11.07.19,0s0,.13.08.14-.12,0-.1-.08-.08,0,0,0A.09.09,0,0,1,26.09,6.81Z" transform="translate(-0.05 -0.02)"/><path class="cls-2" d="M26.29,7.12s.09,0,.08.08S26.26,7.2,26.29,7.12Z" transform="translate(-0.05 -0.02)"/><path class="cls-2" d="M31.91,7.7s-.06.08-.1,0S31.88,7.67,31.91,7.7Z" transform="translate(-0.05 -0.02)"/><path class="cls-2" d="M30.76,8.64c.06,0,.06.06,0,.1S30.77,8.7,30.76,8.64Z" transform="translate(-0.05 -0.02)"/><path class="cls-2" d="M31,8.72s.08,0,.08.1S31,8.78,31,8.72Z" transform="translate(-0.05 -0.02)"/><path class="cls-2" d="M21.54,10.06c.08,0,.05.09.08.14s0,.13,0,.18C21.45,10.34,21.61,10.19,21.54,10.06Z" transform="translate(-0.05 -0.02)"/><path class="cls-2" d="M21.45,10.12s.08,0,.08.06S21.43,10.18,21.45,10.12Z" transform="translate(-0.05 -0.02)"/><path class="cls-2" d="M29.4,12.1s.1,0,.1.08S29.4,12.15,29.4,12.1Z" transform="translate(-0.05 -0.02)"/><path class="cls-2" d="M24.25,12.57c.13,0,0-.14.06-.23a.25.25,0,0,1,.16.19C24.36,12.48,24.36,12.58,24.25,12.57Z" transform="translate(-0.05 -0.02)"/><path class="cls-2" d="M24.34,12.55s0,0,0,0,0,.08,0,.12,0,0,0,0S24.37,12.57,24.34,12.55Z" transform="translate(-0.05 -0.02)"/><path class="cls-2" d="M24.66,12.76c0-.05.1,0,.14,0s0,0,0,0v0C24.71,12.82,24.71,12.77,24.66,12.76Z" transform="translate(-0.05 -0.02)"/><path class="cls-2" d="M24.95,12.84a.13.13,0,0,0,0,.1s-.06,0-.12,0,.07-.08,0-.16C24.94,12.73,24.84,12.9,24.95,12.84Z" transform="translate(-0.05 -0.02)"/><path class="cls-2" d="M26.23,13.34c.06,0,0,.12.06.17S26.25,13.4,26.23,13.34Z" transform="translate(-0.05 -0.02)"/><path class="cls-2" d="M25.2,14.43c.06,0,.15.07.18.14S25.27,14.47,25.2,14.43Z" transform="translate(-0.05 -0.02)"/><path class="cls-2" d="M36.94,16.84c0-.06.09,0,.14,0S37,16.87,36.94,16.84Z" transform="translate(-0.05 -0.02)"/><path class="cls-2" d="M22.56,17.08c0,.15-.16.15-.29.17C22.31,17.16,22.43,17,22.56,17.08Z" transform="translate(-0.05 -0.02)"/><path class="cls-2" d="M23.53,17.15a.16.16,0,0,1-.16.06C23.39,17.16,23.47,17.17,23.53,17.15Z" transform="translate(-0.05 -0.02)"/><path class="cls-2" d="M23.14,17.21c.08.07-.19.1-.31.1C22.91,17.25,23.05,17.26,23.14,17.21Z" transform="translate(-0.05 -0.02)"/><path class="cls-2" d="M34.94,17.89s0,.09.1.08-.06,0-.1,0Z" transform="translate(-0.05 -0.02)"/><path class="cls-2" d="M31,18.3c.07,0,.08,0,.08.1S31,18.35,31,18.3Z" transform="translate(-0.05 -0.02)"/><path class="cls-2" d="M26.19,18.44s0,.07,0,.12S26.17,18.45,26.19,18.44Z" transform="translate(-0.05 -0.02)"/><path class="cls-2" d="M30.41,19.57s.06,0,.06.08,0,0-.1,0S30.41,19.59,30.41,19.57Z" transform="translate(-0.05 -0.02)"/><path class="cls-2" d="M29.54,19.8c0,.08-.06.05-.08.1S29.47,19.78,29.54,19.8Z" transform="translate(-0.05 -0.02)"/><path class="cls-2" d="M22.61,20.11c.08,0,.14,0,.14.12S22.6,20.2,22.61,20.11Z" transform="translate(-0.05 -0.02)"/><path class="cls-2" d="M26.89,20.38s.09,0,.14,0-.07,0-.1,0S26.92,20.39,26.89,20.38Z" transform="translate(-0.05 -0.02)"/><path class="cls-2" d="M31.87,20.42s.09,0,.08.08a.13.13,0,0,1-.1,0A.09.09,0,0,0,31.87,20.42Z" transform="translate(-0.05 -0.02)"/><path class="cls-2" d="M23.29,20.46c.08,0,.2,0,.27.08C23.48,20.59,23.37,20.48,23.29,20.46Z" transform="translate(-0.05 -0.02)"/><path class="cls-2" d="M27.65,20.46s0,0,.06,0-.11.06-.12,0S27.65,20.48,27.65,20.46Z" transform="translate(-0.05 -0.02)"/><path class="cls-2" d="M8,21,8,21a.09.09,0,0,1-.1,0S8,21,8,21Z" transform="translate(-0.05 -0.02)"/><path class="cls-2" d="M40.7,21h.06c0,.07,0,.06,0,.12s0,0,0-.08S40.7,21.07,40.7,21Z" transform="translate(-0.05 -0.02)"/><path class="cls-2" d="M52.7,21.12a.07.07,0,0,1,.06.12A.11.11,0,0,1,52.7,21.12Z" transform="translate(-0.05 -0.02)"/><path class="cls-2" d="M22.75,21.28c.06,0,.11,0,.1.06S22.74,21.34,22.75,21.28Z" transform="translate(-0.05 -0.02)"/><path class="cls-2" d="M26.19,21.47c-.12.14-.36,0-.45-.12C25.87,21.34,26,21.46,26.19,21.47Z" transform="translate(-0.05 -0.02)"/><path class="cls-2" d="M26.19,21.53a1.32,1.32,0,0,1,.54.14C26.58,21.74,26.31,21.61,26.19,21.53Z" transform="translate(-0.05 -0.02)"/><path class="cls-2" d="M23.74,21.63a.38.38,0,0,1,.16.12S23.73,21.72,23.74,21.63Z" transform="translate(-0.05 -0.02)"/><path class="cls-2" d="M27.79,22.05a6.5,6.5,0,0,1-1-.29c0-.06.12-.08.14,0A3.62,3.62,0,0,1,27.79,22.05Z" transform="translate(-0.05 -0.02)"/><path class="cls-2" d="M31.46,22.05s0,.06.06.06S31.4,22.09,31.46,22.05Z" transform="translate(-0.05 -0.02)"/><path class="cls-2" d="M28,22.11a37.32,37.32,0,0,0,5.46,1.52A24.27,24.27,0,0,1,28,22.15S28,22.14,28,22.11Z" transform="translate(-0.05 -0.02)"/><path class="cls-2" d="M35.41,22.19s0,0,.06,0,0,.06-.08.06S35.4,22.22,35.41,22.19Z" transform="translate(-0.05 -0.02)"/><path class="cls-2" d="M41.71,22.54s.1,0,.1.06-.09.07-.14,0S41.73,22.6,41.71,22.54Z" transform="translate(-0.05 -0.02)"/><path class="cls-2" d="M41.86,22.56s.09,0,.14,0S41.89,22.58,41.86,22.56Z" transform="translate(-0.05 -0.02)"/><path class="cls-2" d="M49.76,23.4s-.05,0,0,.08-.08,0-.06-.08A.07.07,0,0,1,49.76,23.4Z" transform="translate(-0.05 -0.02)"/><path class="cls-2" d="M30,23.71c.06,0,.06,0,.1,0s0,.08,0,.12-.1,0-.16,0S30,23.82,30,23.71Z" transform="translate(-0.05 -0.02)"/><path class="cls-2" d="M46.45,23.77h.06s0,.07,0,.08S46.44,23.82,46.45,23.77Z" transform="translate(-0.05 -0.02)"/><path class="cls-2" d="M49.6,23.78c.06,0,.15.1.12.16S49.62,23.86,49.6,23.78Z" transform="translate(-0.05 -0.02)"/><path class="cls-2" d="M39,23.92a.18.18,0,0,1,.12.21.23.23,0,0,0-.23-.12S39.07,24,39,23.92Z" transform="translate(-0.05 -0.02)"/><path class="cls-2" d="M49.74,24.06a.31.31,0,0,1,.16.18s0,.08-.08.06S49.77,24.12,49.74,24.06Z" transform="translate(-0.05 -0.02)"/><path class="cls-2" d="M46.76,24.29s0,0,0,0,0,0,0-.1S46.77,24.25,46.76,24.29Z" transform="translate(-0.05 -0.02)"/><path class="cls-2" d="M49.53,24.41l.06,0s0,0,0,.08-.09,0-.18,0a.1.1,0,0,0,0-.06S49.53,24.46,49.53,24.41Z" transform="translate(-0.05 -0.02)"/><path class="cls-2" d="M19.95,24.54c.06,0,0,.13.1.14a.06.06,0,0,1-.1,0A.19.19,0,0,0,19.95,24.54Z" transform="translate(-0.05 -0.02)"/><path class="cls-2" d="M19.83,24.66h0s0,0,0,0v0s0,0,0,0h0s0,0,0,0v0S19.83,24.67,19.83,24.66Z" transform="translate(-0.05 -0.02)"/><path class="cls-2" d="M9.72,24.72s.06.09.06.16S9.74,24.77,9.72,24.72Z" transform="translate(-0.05 -0.02)"/><path class="cls-2" d="M51.64,24.72c.06,0,.07.05.12.06s-.06,0-.06.06A.21.21,0,0,1,51.64,24.72Z" transform="translate(-0.05 -0.02)"/><path class="cls-2" d="M7.93,24.87a.42.42,0,0,1-.23.06C7.74,24.87,7.85,24.89,7.93,24.87Z" transform="translate(-0.05 -0.02)"/><path class="cls-2" d="M33.58,25.46s.05,0,.08,0,0,0,0,.06A.09.09,0,0,1,33.58,25.46Z" transform="translate(-0.05 -0.02)"/><path class="cls-2" d="M44.64,25.46c.05,0,.1,0,.08.06S44.64,25.51,44.64,25.46Z" transform="translate(-0.05 -0.02)"/><path class="cls-2" d="M52,26.33c-.07,0-.25.1-.27,0S51.94,26.21,52,26.33Z" transform="translate(-0.05 -0.02)"/><path class="cls-2" d="M43.58,26.31s.06,0,.1,0S43.55,26.39,43.58,26.31Z" transform="translate(-0.05 -0.02)"/><path class="cls-2" d="M51.64,26.33s0,0,.06,0-.1,0,0,.06S51.63,26.36,51.64,26.33Z" transform="translate(-0.05 -0.02)"/><path class="cls-2" d="M43.89,26.39c0,.15-.13,0-.17,0S43.8,26.45,43.89,26.39Z" transform="translate(-0.05 -0.02)"/><path class="cls-2" d="M43.52,26.49s.07,0,.17,0,.05,0,0,.1,0,0,0,0,0-.07,0-.1-.08,0-.08,0,0-.06-.08,0S43.54,26.49,43.52,26.49Z" transform="translate(-0.05 -0.02)"/><path class="cls-2" d="M43.83,26.76s.09.07.1.14S43.78,26.85,43.83,26.76Z" transform="translate(-0.05 -0.02)"/><path class="cls-2" d="M47.43,28c.06,0,0,.09,0,.16s0-.1-.08-.14S47.42,28,47.43,28Z" transform="translate(-0.05 -0.02)"/><path class="cls-2" d="M47.41,28.22c.07,0,.07.07.12.08S47.41,28.27,47.41,28.22Z" transform="translate(-0.05 -0.02)"/><path class="cls-2" d="M47.78,28.3s0,.08.08.1-.09,0-.12-.06S47.78,28.32,47.78,28.3Z" transform="translate(-0.05 -0.02)"/><path class="cls-2" d="M16,29.68a.45.45,0,0,1,0,.12s0-.06.08,0v.08c-.06,0-.1,0-.12,0s0,.08,0,.12.1-.07.1,0a.09.09,0,0,0-.08,0c-.05-.07-.19-.06-.19-.17a.11.11,0,0,1-.08,0s0-.07,0-.08,0-.05,0-.06S15.9,29.68,16,29.68Zm-.08.16s0,0,0,0H16v-.08s0,0-.1,0S15.95,29.88,16,29.83Z" transform="translate(-0.05 -0.02)"/><path class="cls-2" d="M16.31,29.93c0,.07-.07.06-.12.08v-.06C16.25,30,16.26,29.93,16.31,29.93Z" transform="translate(-0.05 -0.02)"/><path class="cls-2" d="M38.87,30.22s.1,0,.1.08S38.91,30.24,38.87,30.22Z" transform="translate(-0.05 -0.02)"/><path class="cls-2" d="M35,30.51l-.12.08S35,30.5,35,30.51Z" transform="translate(-0.05 -0.02)"/><path class="cls-2" d="M35,30.67s0,0,0-.08l.1,0C35.07,30.71,35,30.61,35,30.67Z" transform="translate(-0.05 -0.02)"/><path class="cls-2" d="M39.82,30.78s0,.14,0,.1S39.81,30.82,39.82,30.78Z" transform="translate(-0.05 -0.02)"/><path class="cls-2" d="M40.81,31.1c-.06,0-.23,0-.08-.08S40.82,31,40.81,31.1Z" transform="translate(-0.05 -0.02)"/><path class="cls-2" d="M42.84,31.58c0-.07,0,.08.08.08S42.86,31.6,42.84,31.58Z" transform="translate(-0.05 -0.02)"/><path class="cls-2" d="M39.61,32.09c.1-.11.15.11,0,0Z" transform="translate(-0.05 -0.02)"/><path class="cls-2" d="M24.4,32.22a.32.32,0,0,1-.29.1C24.2,32.25,24.29,32.27,24.4,32.22Z" transform="translate(-0.05 -0.02)"/><path class="cls-2" d="M27.09,32.26c.05,0,.09.1.12.06S27.08,32.34,27.09,32.26Z" transform="translate(-0.05 -0.02)"/><path class="cls-2" d="M23.66,32.4c0,.09-.22.08-.27.08a.54.54,0,0,1-.33.08A2.83,2.83,0,0,1,23.66,32.4Z" transform="translate(-0.05 -0.02)"/><path class="cls-2" d="M32.53,32.46c0,.07-.17.06-.23.1S32.48,32.51,32.53,32.46Z" transform="translate(-0.05 -0.02)"/><path class="cls-2" d="M22.79,32.65c0,.08-.16,0-.23.08S22.68,32.64,22.79,32.65Z" transform="translate(-0.05 -0.02)"/><path class="cls-2" d="M29.93,32.85c0,.06-.17,0-.23.06S29.84,32.85,29.93,32.85Z" transform="translate(-0.05 -0.02)"/><path class="cls-2" d="M29.58,32.9c-.08,0-.31.16-.35.06C29.37,33,29.44,32.9,29.58,32.9Z" transform="translate(-0.05 -0.02)"/><path class="cls-2" d="M29,33.06a3.85,3.85,0,0,1-.76.16A2.23,2.23,0,0,1,29,33.06Z" transform="translate(-0.05 -0.02)"/><path class="cls-2" d="M28.18,33.22a3.2,3.2,0,0,1-.6.08A2.28,2.28,0,0,1,28.18,33.22Z" transform="translate(-0.05 -0.02)"/><path class="cls-2" d="M32.65,33.2c.05,0,.06,0,.06.1S32.63,33.26,32.65,33.2Z" transform="translate(-0.05 -0.02)"/><path class="cls-2" d="M27.42,33.31a.4.4,0,0,1-.29,0A.42.42,0,0,1,27.42,33.31Z" transform="translate(-0.05 -0.02)"/><path class="cls-2" d="M15.93,33.33c0-.06.13,0,.08.06S16,33.33,15.93,33.33Z" transform="translate(-0.05 -0.02)"/><path class="cls-2" d="M26.66,33.41a1.19,1.19,0,0,0-.23,0S26.67,33.31,26.66,33.41Z" transform="translate(-0.05 -0.02)"/><path class="cls-2" d="M16.41,33.37s0,.07-.1.06S16.36,33.37,16.41,33.37Z" transform="translate(-0.05 -0.02)"/><path class="cls-2" d="M32.78,33.59s0,.06,0,.08-.12,0-.16,0S32.73,33.61,32.78,33.59Z" transform="translate(-0.05 -0.02)"/><path class="cls-2" d="M21.86,33.62c.11,0-.08.09-.12,0S21.86,33.68,21.86,33.62Z" transform="translate(-0.05 -0.02)"/><path class="cls-2" d="M36.93,34.67l0,0v0c-.06-.06,0,0-.1,0S36.92,34.72,36.93,34.67Z" transform="translate(-0.05 -0.02)"/><path class="cls-2" d="M40.15,34.81c.06,0,.09,0,.08.08s-.05,0-.06,0S40.16,34.84,40.15,34.81Z" transform="translate(-0.05 -0.02)"/><path class="cls-2" d="M22,35.59c0,.06.1.1.1.19C22.09,35.72,22,35.7,22,35.59Z" transform="translate(-0.05 -0.02)"/><path class="cls-2" d="M29.11,35.72s.05,0,.08.06-.07,0-.08.06S29.1,35.78,29.11,35.72Z" transform="translate(-0.05 -0.02)"/><path class="cls-2" d="M29.11,35.88s-.09.05-.12,0S29.07,35.87,29.11,35.88Z" transform="translate(-0.05 -0.02)"/><path class="cls-2" d="M25.39,36.09c0-.06.05,0,.14,0A.08.08,0,0,1,25.39,36.09Z" transform="translate(-0.05 -0.02)"/><path class="cls-2" d="M25.41,36.11c0,.06,0,0-.1,0S25.39,36.08,25.41,36.11Z" transform="translate(-0.05 -0.02)"/><path class="cls-2" d="M28.86,36.46c0-.06.12,0,.17,0S28.91,36.46,28.86,36.46Z" transform="translate(-0.05 -0.02)"/><path class="cls-2" d="M29.63,36.56a1.36,1.36,0,0,1-.51-.06c-.17,0,.05,0,.06,0S29.51,36.56,29.63,36.56Z" transform="translate(-0.05 -0.02)"/><path class="cls-2" d="M32.1,37.18c-.75-.23-1.47-.39-2.33-.56-.25-.05.14,0,.23,0A11.46,11.46,0,0,1,32.1,37.18Z" transform="translate(-0.05 -0.02)"/><path class="cls-2" d="M39.53,37.63s0,0,0,.1S39.52,37.68,39.53,37.63Z" transform="translate(-0.05 -0.02)"/><path class="cls-2" d="M39.65,37.88s0,0,.08,0-.07.09-.08,0Z" transform="translate(-0.05 -0.02)"/><path class="cls-2" d="M32.65,38.19c-.06.05-.14,0-.21,0S32.56,38.21,32.65,38.19Z" transform="translate(-0.05 -0.02)"/><path class="cls-2" d="M40.48,39.22a3,3,0,0,1,.78.06A4.86,4.86,0,0,1,40.48,39.22Z" transform="translate(-0.05 -0.02)"/><path class="cls-2" d="M39,39.46c.08,0,0,.14,0,.21S39,39.53,39,39.46Z" transform="translate(-0.05 -0.02)"/><path class="cls-2" d="M39.12,39.52s0,.1,0,.14,0-.07-.1-.08S39.15,39.58,39.12,39.52Z" transform="translate(-0.05 -0.02)"/><path class="cls-2" d="M39.94,39.55c0,.05,0,.05,0,.1s-.06,0-.06-.08A.11.11,0,0,1,39.94,39.55Z" transform="translate(-0.05 -0.02)"/><path class="cls-2" d="M40.19,39.63s0,.08,0,.12S40.17,39.7,40.19,39.63Z" transform="translate(-0.05 -0.02)"/><path class="cls-2" d="M39.12,39.67c.09,0,0,.12,0,.15l-.06,0A.13.13,0,0,0,39.12,39.67Z" transform="translate(-0.05 -0.02)"/><path class="cls-2" d="M40,39.67a.57.57,0,0,0,.16.06S40,39.74,40,39.67Z" transform="translate(-0.05 -0.02)"/><path class="cls-2" d="M40.25,39.9c.07,0,0,.11,0,.1S40.25,40,40.25,39.9Z" transform="translate(-0.05 -0.02)"/><path class="cls-2" d="M36.73,39.94c.06,0,.09,0,.08.08S36.72,40,36.73,39.94Z" transform="translate(-0.05 -0.02)"/><path class="cls-2" d="M39.22,40s0,.05,0,.08-.06,0-.06-.06,0,0,0,0S39.22,40,39.22,40Z" transform="translate(-0.05 -0.02)"/><path class="cls-2" d="M39.59,40.22c.06,0,0,.05.1,0S39.58,40.28,39.59,40.22Z" transform="translate(-0.05 -0.02)"/><path class="cls-2" d="M28.29,40.25c.07,0,0,.11.08.12S28.27,40.33,28.29,40.25Z" transform="translate(-0.05 -0.02)"/><path class="cls-2" d="M30.59,40.78s0,.1.12.06,0,.1-.08.1A.31.31,0,0,1,30.59,40.78Z" transform="translate(-0.05 -0.02)"/><path class="cls-2" d="M34.51,41.95s0,0,0,0,0,0,.06,0S34.4,42,34.51,41.95Z" transform="translate(-0.05 -0.02)"/><path class="cls-2" d="M38.89,42.3s0,0,.06,0c.57.4,1.3.63,1.89,1A15.89,15.89,0,0,1,38.89,42.3Z" transform="translate(-0.05 -0.02)"/><path class="cls-2" d="M37.57,43.77s-.06.08-.1,0S37.52,43.77,37.57,43.77Z" transform="translate(-0.05 -0.02)"/><path class="cls-2" d="M37.33,43.81c.06,0,.09,0,.08.08S37.33,43.87,37.33,43.81Z" transform="translate(-0.05 -0.02)"/><path class="cls-2" d="M35.31,43.83c.07,0,.09,0,.1.12A.37.37,0,0,1,35.31,43.83Z" transform="translate(-0.05 -0.02)"/><path class="cls-2" d="M35.25,43.85s0,.14,0,.14A.75.75,0,0,1,35.25,43.85Z" transform="translate(-0.05 -0.02)"/><path class="cls-2" d="M32.71,44c.08,0,0,.09.14,0s-.11.08,0,.14C32.71,44.21,32.73,44.08,32.71,44Z" transform="translate(-0.05 -0.02)"/><path class="cls-2" d="M32.59,44c.05,0,.07.06.06.14S32.6,44.07,32.59,44Z" transform="translate(-0.05 -0.02)"/><path class="cls-2" d="M35.76,46.28s0,0,0,.1,0-.07-.08-.08S35.73,46.26,35.76,46.28Z" transform="translate(-0.05 -0.02)"/><path class="cls-2" d="M13.2,47.74c.07,0,.23,0,.33,0S13.23,47.82,13.2,47.74Z" transform="translate(-0.05 -0.02)"/><path class="cls-2" d="M41.65,48.46s-.14,0-.17-.08A.15.15,0,0,1,41.65,48.46Z" transform="translate(-0.05 -0.02)"/><path class="cls-2" d="M41.4,48.46c0,.05-.1.05-.17.06s0,0,0-.08S41.35,48.41,41.4,48.46Z" transform="translate(-0.05 -0.02)"/><path class="cls-2" d="M41.48,48.5s-.07.08-.12,0S41.44,48.46,41.48,48.5Z" transform="translate(-0.05 -0.02)"/><path class="cls-2" d="M39.22,48.58s.12,0,.12.08S39.22,48.64,39.22,48.58Z" transform="translate(-0.05 -0.02)"/><path class="cls-2" d="M39.34,49.37c.07,0,0,.1,0,.1S39.33,49.41,39.34,49.37Z" transform="translate(-0.05 -0.02)"/><path class="cls-2" d="M41.09,50.29c-.11,0,0,.17-.08.21S41,50.2,41.09,50.29Z" transform="translate(-0.05 -0.02)"/><path class="cls-2" d="M41.18,50.4c.07,0,0,0,0,.1s0,0-.06,0v0S41.18,50.43,41.18,50.4Z" transform="translate(-0.05 -0.02)"/><path class="cls-2" d="M28.84,5.29s0,0,0,0,0,.06.06.08,0,0-.08,0,0,.1,0,.14-.16-.07-.23-.12.12,0,0,0,.08,0,.1,0Z" transform="translate(-0.05 -0.02)"/><path class="cls-2" d="M25.65,5.33s-.07.16-.12.12S25.63,5.39,25.65,5.33Z" transform="translate(-0.05 -0.02)"/><path class="cls-2" d="M35.51,5.76l-.06-.12c.06-.07.1,0,.2,0a.2.2,0,0,0,.15.18c-.07,0,0,.05-.06.1,0-.11-.13-.09-.14-.19s0,0-.06,0,.05,0,0,.1-.13-.05-.21-.06C35.47,5.8,35.39,5.73,35.51,5.76Z" transform="translate(-0.05 -0.02)"/><path class="cls-2" d="M35.33,6.21c.06.08.06,0,.14,0a0,0,0,0,0,0,.08.13.13,0,0,1,0,.1s-.11-.1-.08,0S35.32,6.27,35.33,6.21Z" transform="translate(-0.05 -0.02)"/><path class="cls-2" d="M35.68,6.3c.17.09-.08.12-.14.1s.11,0,.1-.08,0,0,0,.06A0,0,0,0,0,35.68,6.3Z" transform="translate(-0.05 -0.02)"/><path class="cls-2" d="M26.25,6.77s.16-.07.14,0A.73.73,0,0,1,26.25,6.77Z" transform="translate(-0.05 -0.02)"/><path class="cls-2" d="M22.67,7.72s0,0,0,0,0,0,0,0,0,0,0,0h0V7.76A.05.05,0,0,0,22.67,7.72Z" transform="translate(-0.05 -0.02)"/><path class="cls-2" d="M24.5,12.74a.26.26,0,0,1,.14,0c0,.07,0,.08.06.12s0,0-.06,0,.16,0,.16.08,0,.1-.12.1-.07-.14-.14-.18S24.54,12.78,24.5,12.74Z" transform="translate(-0.05 -0.02)"/><path class="cls-2" d="M24.58,13.17l.18,0c0,.06-.07.07-.14.08S24.61,13.17,24.58,13.17Z" transform="translate(-0.05 -0.02)"/><path class="cls-2" d="M25,13.85a.19.19,0,0,1,.14-.21c0,.1.05.1.06.18s-.18.08-.25,0S24.94,13.85,25,13.85Z" transform="translate(-0.05 -0.02)"/><path class="cls-2" d="M23.14,14.26c-.06,0,0,0,0,.08s-.07,0-.08-.1,0,0,0,0S23.13,14.16,23.14,14.26Z" transform="translate(-0.05 -0.02)"/><path class="cls-2" d="M26.33,18.5h.06c0,.06,0,.07,0,.1s0,0,0,0,0,0,0,0S26.37,18.56,26.33,18.5Z" transform="translate(-0.05 -0.02)"/><path class="cls-2" d="M22.24,19.27c.36.26.72.69,1.11,1A6.32,6.32,0,0,1,22.24,19.27Z" transform="translate(-0.05 -0.02)"/><path class="cls-2" d="M27.38,20s.15,0,.12.1S27.42,20,27.38,20Z" transform="translate(-0.05 -0.02)"/><path class="cls-2" d="M27.14,20c.05,0-.21.16-.17,0S27.13,20,27.14,20Z" transform="translate(-0.05 -0.02)"/><path class="cls-2" d="M28.78,20.05c.06,0,.06,0,.12,0s-.11.07-.1.12S28.78,20.11,28.78,20.05Z" transform="translate(-0.05 -0.02)"/><path class="cls-2" d="M21.74,20.07c.08,0,.12.15.21.17C21.84,20.27,21.83,20.1,21.74,20.07Z" transform="translate(-0.05 -0.02)"/><path class="cls-2" d="M29,20.11s0,0,0,.1,0-.06-.08,0S29,20.15,29,20.11Z" transform="translate(-0.05 -0.02)"/><path class="cls-2" d="M22.91,20.25c.08,0,.13.11.25.08C23.11,20.4,22.94,20.31,22.91,20.25Z" transform="translate(-0.05 -0.02)"/><path class="cls-2" d="M22.23,20.58s.11.05.16.08S22.27,20.59,22.23,20.58Z" transform="translate(-0.05 -0.02)"/><path class="cls-2" d="M24.17,21a1.6,1.6,0,0,1,.35.27A1.07,1.07,0,0,1,24.17,21Z" transform="translate(-0.05 -0.02)"/><path class="cls-2" d="M26.48,23c.05,0,.13.06.17.1Z" transform="translate(-0.05 -0.02)"/><path class="cls-2" d="M34.42,23.63v-.06c.06,0,.05,0,.08.08S34.47,23.61,34.42,23.63Z" transform="translate(-0.05 -0.02)"/><path class="cls-2" d="M46.59,23.86c.05,0,.13.09.17.14s-.11-.06-.06,0-.06,0-.06,0S46.67,23.91,46.59,23.86Z" transform="translate(-0.05 -0.02)"/><path class="cls-2" d="M49.47,24s.07-.07.06-.14,0,.14,0,.21,0,0-.06,0S49.53,24,49.47,24Z" transform="translate(-0.05 -0.02)"/><path class="cls-2" d="M46.06,23.92c.08,0,0,.06.08,0V24C46.08,24,46.07,24,46.06,23.92Z" transform="translate(-0.05 -0.02)"/><path class="cls-2" d="M46.71,24.06s0,0,.12,0c-.1.08.07,0,.06.12s-.09-.07-.17-.06S46.74,24.06,46.71,24.06Z" transform="translate(-0.05 -0.02)"/><path class="cls-2" d="M51.43,24.62c0-.05.14,0,.16,0S51.49,24.61,51.43,24.62Z" transform="translate(-0.05 -0.02)"/><path class="cls-2" d="M51.8,24.83c0-.1.08,0,.1.06S51.87,24.81,51.8,24.83Z" transform="translate(-0.05 -0.02)"/><path class="cls-2" d="M7.68,24.93a2,2,0,0,1-.47.14A2.05,2.05,0,0,1,7.68,24.93Z" transform="translate(-0.05 -0.02)"/><path class="cls-2" d="M36.79,25.79a.06.06,0,0,1,0,.1s-.07-.06-.08,0,0-.05.08,0A.09.09,0,0,1,36.79,25.79Z" transform="translate(-0.05 -0.02)"/><path class="cls-2" d="M51.86,26S52,26,52,26s-.2-.07-.1,0S51.84,26,51.86,26Z" transform="translate(-0.05 -0.02)"/><path class="cls-2" d="M49.6,28.55s0,0,0,0a.05.05,0,0,0,0,.06s-.09,0-.08.06-.08,0-.1-.1S49.52,28.56,49.6,28.55Z" transform="translate(-0.05 -0.02)"/><path class="cls-2" d="M41,29.81c-.06-.06.09,0,.1,0S41,29.86,41,29.81Z" transform="translate(-0.05 -0.02)"/><path class="cls-2" d="M35.06,30s0,0,0,0,0,0,0,0l-.06,0s0,.06.08.06,0,0-.1,0A.31.31,0,0,1,35.06,30Z" transform="translate(-0.05 -0.02)"/><path class="cls-2" d="M34.84,30.16s-.06.11-.12.06S34.8,30.18,34.84,30.16Z" transform="translate(-0.05 -0.02)"/><path class="cls-2" d="M15.77,30.38a.16.16,0,0,1,.12,0s0,0,0-.06.13,0,.21,0-.08,0-.12,0,0,0,.06,0-.1,0-.14.14l-.06,0s.09,0,.06-.08-.11.07-.16,0,0,.05,0,.08l.06,0c0,.05-.05.05-.08.08a3.09,3.09,0,0,0-.17-.35C15.61,30.24,15.81,30.26,15.77,30.38Z" transform="translate(-0.05 -0.02)"/><path class="cls-2" d="M34.84,30.49c-.05,0-.07-.08-.1-.12s.11.06.16,0a.09.09,0,0,1,0,.08S34.87,30.47,34.84,30.49Z" transform="translate(-0.05 -0.02)"/><path class="cls-2" d="M15.94,31.6c.07,0,.19.1.27.16C16.14,31.77,16,31.63,15.94,31.6Z" transform="translate(-0.05 -0.02)"/><path class="cls-2" d="M35.93,32.09c-.08-.07-.18-.28-.14-.17s-.07.11-.06,0,.08-.06,0-.15.11.13.19.15a.55.55,0,0,0,0,.2c0,.06-.08,0-.12.06S35.89,32.08,35.93,32.09Z" transform="translate(-0.05 -0.02)"/><path class="cls-2" d="M23.8,31.93l-.18.08C23.65,32,23.73,31.94,23.8,31.93Z" transform="translate(-0.05 -0.02)"/><path class="cls-2" d="M16.51,32c.08,0,.19.11.27.16C16.7,32.14,16.6,32,16.51,32Z" transform="translate(-0.05 -0.02)"/><path class="cls-2" d="M35.89,32.18s.07,0,.16,0S35.94,32.22,35.89,32.18Z" transform="translate(-0.05 -0.02)"/><path class="cls-2" d="M23,33c.09,0,.47.07.12,0C23.1,33,23,33,23,33Z" transform="translate(-0.05 -0.02)"/><path class="cls-2" d="M16,33.49c-.07.06-.2.06-.29.1S15.91,33.5,16,33.49Z" transform="translate(-0.05 -0.02)"/><path class="cls-2" d="M33.15,33.55s.1,0,.12,0,0,.13-.06.16,0-.07,0-.16,0,0-.06,0,0,.11,0,.14,0,0,0,0h-.06C33.13,33.67,33.19,33.56,33.15,33.55Z" transform="translate(-0.05 -0.02)"/><path class="cls-2" d="M37.08,34.46c.06-.05.11.07.12.14s-.07-.05-.08,0S37.19,34.46,37.08,34.46Z" transform="translate(-0.05 -0.02)"/><path class="cls-2" d="M37,34.66s.13,0,.16,0,0,0,0,.1-.1,0-.08,0S37,34.69,37,34.66Z" transform="translate(-0.05 -0.02)"/><path class="cls-2" d="M37.06,34.81s.1,0,.14-.06-.05,0,0-.08,0,0,0,0,.07,0,.1.08-.07.07-.06.15S37.15,34.8,37.06,34.81Z" transform="translate(-0.05 -0.02)"/><path class="cls-2" d="M24.36,35.2c.1,0,.15.13.23.16S24.44,35.24,24.36,35.2Z" transform="translate(-0.05 -0.02)"/><path class="cls-2" d="M28.76,35.84a.15.15,0,0,1-.18-.08c0-.07.07-.09.06-.18s0,.09,0,.14,0,0,0,.06,0,0,0-.08.11.12.06.16S28.75,35.84,28.76,35.84Z" transform="translate(-0.05 -0.02)"/><path class="cls-2" d="M25.88,35.94s.13,0,.12,0-.08-.06-.1,0S25.92,35.94,25.88,35.94Z" transform="translate(-0.05 -0.02)"/><path class="cls-2" d="M24.83,36.11c-.09,0-.09,0-.14,0S24.84,36,24.83,36.11Z" transform="translate(-0.05 -0.02)"/><path class="cls-2" d="M26.48,36.09s0,0,0,0a17.54,17.54,0,0,1,1.89,1C27.81,36.8,27.1,36.45,26.48,36.09Z" transform="translate(-0.05 -0.02)"/><path class="cls-2" d="M32.78,36.15v0a.09.09,0,0,1,.06,0s0,.07,0,.08S32.83,36.13,32.78,36.15Z" transform="translate(-0.05 -0.02)"/><path class="cls-2" d="M29.56,36.85a3.84,3.84,0,0,1,.58.21A3.27,3.27,0,0,1,29.56,36.85Z" transform="translate(-0.05 -0.02)"/><path class="cls-2" d="M32.12,37.18s.13,0,.19,0S32.16,37.21,32.12,37.18Z" transform="translate(-0.05 -0.02)"/><path class="cls-2" d="M36.61,37.51c.06,0,0,0,0,.06s0-.08.1-.08,0-.1.1-.1a1.25,1.25,0,0,1-.29.31S36.58,37.57,36.61,37.51Z" transform="translate(-0.05 -0.02)"/><path class="cls-2" d="M29.07,37.43a4.5,4.5,0,0,1,1.07.53s0,0,0,0C29.76,37.79,29.42,37.61,29.07,37.43Z" transform="translate(-0.05 -0.02)"/><path class="cls-2" d="M31.07,37.51c0-.05.14,0,.19.06S31.15,37.5,31.07,37.51Z" transform="translate(-0.05 -0.02)"/><path class="cls-2" d="M40,37.75c-.07,0-.05,0-.14,0s0,0,0,.06-.07.06-.14.06.13-.06.06-.12c.08,0,.16-.06.16-.17a.11.11,0,0,0,.08,0v.08C40,37.67,40,37.72,40,37.75Z" transform="translate(-0.05 -0.02)"/><path class="cls-2" d="M31.5,37.73a1.72,1.72,0,0,1,.39.17C31.77,37.91,31.62,37.78,31.5,37.73Z" transform="translate(-0.05 -0.02)"/><path class="cls-2" d="M39.38,37.78c0-.05.15-.09.14,0s-.12,0-.06,0S39.42,37.76,39.38,37.78Z" transform="translate(-0.05 -0.02)"/><path class="cls-2" d="M39.36,37.94s0,0,0,.08-.11-.14-.06-.21c0,.14.16.12.23.19l0,0-.08-.08s.07,0,.12,0-.05.13-.12.16S39.36,38,39.36,37.94Z" transform="translate(-0.05 -0.02)"/><path class="cls-2" d="M32,38a3.86,3.86,0,0,1,.39.14A.64.64,0,0,1,32,38Z" transform="translate(-0.05 -0.02)"/><path class="cls-2" d="M33.76,38.6s.15,0,.19.06S33.81,38.62,33.76,38.6Z" transform="translate(-0.05 -0.02)"/><path class="cls-2" d="M34,38.68s.16,0,.21.06S34,38.69,34,38.68Z" transform="translate(-0.05 -0.02)"/><path class="cls-2" d="M40.48,39.28c-.07,0-.06-.06-.1-.08s0,0,0,.08c-.12-.14-.45-.07-.64-.14C40,39.14,40.39,39.12,40.48,39.28Z" transform="translate(-0.05 -0.02)"/><path class="cls-2" d="M39.24,39.77c.06,0,.07,0,.1.06S39.21,39.84,39.24,39.77Z" transform="translate(-0.05 -0.02)"/><path class="cls-2" d="M39.26,39.87s0,.13.06,0,0,.07-.12.06S39.28,39.94,39.26,39.87Z" transform="translate(-0.05 -0.02)"/><path class="cls-2" d="M39.53,39.87a.11.11,0,0,0,.08,0c0,.06-.08.08-.08.14s.05,0,.08,0-.06,0-.06,0-.09,0-.12-.12S39.52,40,39.53,39.87Z" transform="translate(-0.05 -0.02)"/><path class="cls-2" d="M39.74,39.92s0,.16-.08.1,0,.06,0,.12-.06,0-.1,0a.84.84,0,0,0,.08-.19S39.74,39.95,39.74,39.92Z" transform="translate(-0.05 -0.02)"/><path class="cls-2" d="M42.14,41.38s0,0,0,0,0,0,0,0a.09.09,0,0,1,0,.1s0,0,0,0S42.19,41.4,42.14,41.38Z" transform="translate(-0.05 -0.02)"/><path class="cls-2" d="M38.34,41.85c0,.06.12.08.14.18C38.44,42,38.36,41.93,38.34,41.85Z" transform="translate(-0.05 -0.02)"/><path class="cls-2" d="M41.4,43.48c-.12,0-.28-.09-.39-.14C41.06,43.32,41.27,43.46,41.4,43.48Z" transform="translate(-0.05 -0.02)"/><path class="cls-2" d="M38.79,46c0-.08-.06-.09-.12-.06s.16,0,.16.06,0,.07-.08,0S38.78,46,38.79,46Z" transform="translate(-0.05 -0.02)"/><path class="cls-2" d="M39,49.08c.06,0,0,.06.06.06s-.08,0-.06.12-.06-.09-.06-.16,0,0,0,.06,0-.05,0-.08.09-.08.14,0,0-.08,0-.14,0,.11,0,.14,0,0,.08,0,0,0,0,.06S39,49,39,49.08Z" transform="translate(-0.05 -0.02)"/><path class="cls-2" d="M41.14,50.25c.06,0,0,.08,0,.14s0,0-.08.06S41.19,50.36,41.14,50.25Z" transform="translate(-0.05 -0.02)"/><path class="cls-2" d="M34.77,29.74s0,0,.06,0,.06,0,.12.12,0,.07,0,.1,0,.12-.06.19a.28.28,0,0,1-.1-.14s.06,0,.06,0S34.86,29.79,34.77,29.74Z" transform="translate(-0.05 -0.02)"/><path class="cls-2" d="M24.71,34.13c-.1-.06-.31.07-.54,0C24.18,34.09,24.77,34,24.71,34.13Z" transform="translate(-0.05 -0.02)"/><path class="cls-2" d="M34.55,42.35s0,0,0,0,0,.17,0,.29-.12,0-.06.06c-.19,0-.11-.38-.18-.6.05,0,.09,0,.06-.1s.05.06.1.08.06-.08.14,0,0-.18-.16-.18,0-.2.12-.21c0,.17.19.15.18.33-.06,0,0-.09-.1-.1s.08.19.14.31-.05-.05-.08-.08a.3.3,0,0,0,0,.29C34.58,42.44,34.59,42.37,34.55,42.35Z" transform="translate(-0.05 -0.02)"/><path class="cls-2" d="M31.3,2.35l.2.1C31.44,2.54,31.28,2.45,31.3,2.35Z" transform="translate(-0.05 -0.02)"/><path class="cls-2" d="M30.56,2.55c.05-.1.15,0,.23,0C30.72,2.63,30.64,2.6,30.56,2.55Z" transform="translate(-0.05 -0.02)"/><path class="cls-2" d="M27.11,4.36c.07,0,.05.15.17.13s-.1,0-.17,0Z" transform="translate(-0.05 -0.02)"/><path class="cls-2" d="M36.73,8.14h.1c0,.09-.06.14-.17.13S36.77,8.25,36.73,8.14Z" transform="translate(-0.05 -0.02)"/><path class="cls-2" d="M21.81,8.71c.08,0,.16,0,.13.13a.22.22,0,0,1-.17,0A.15.15,0,0,0,21.81,8.71Z" transform="translate(-0.05 -0.02)"/><path class="cls-2" d="M37,9.79h.1c0,.12,0,.1,0,.2s0-.08,0-.13S37,9.83,37,9.79Z" transform="translate(-0.05 -0.02)"/><path class="cls-2" d="M27.91,11.76c.05,0,.06,0,.1,0s0,.11-.13.1S27.9,11.81,27.91,11.76Z" transform="translate(-0.05 -0.02)"/><path class="cls-2" d="M34.11,14.75a.31.31,0,0,1,.2.37.4.4,0,0,0-.4-.2C34,14.84,34.22,14.91,34.11,14.75Z" transform="translate(-0.05 -0.02)"/><path class="cls-2" d="M24.76,17.39c.07,0,.09,0,.13,0s-.06.05-.07.1A.15.15,0,0,1,24.76,17.39Z" transform="translate(-0.05 -0.02)"/><path class="cls-2" d="M30.53,18.33s0,.07.07.07c-.12.08-.14.26-.27.34,0-.12.09-.18.07-.34C30.47,18.41,30.55,18.48,30.53,18.33Z" transform="translate(-0.05 -0.02)"/><path class="cls-2" d="M48.62,21.78c.11.06,0,.15.07.27-.08,0-.08-.17-.13-.23S48.62,21.81,48.62,21.78Z" transform="translate(-0.05 -0.02)"/><path class="cls-2" d="M17.69,21.92c.05,0,0,.11.13.07s-.16,0-.13.07,0-.06,0-.1S17.69,21.94,17.69,21.92Z" transform="translate(-0.05 -0.02)"/><path class="cls-2" d="M17.39,22.05c.09,0,.14,0,.13.1S17.38,22.14,17.39,22.05Z" transform="translate(-0.05 -0.02)"/><path class="cls-2" d="M48.59,22.15c.12,0,.11.11.2.13C48.72,22.38,48.59,22.24,48.59,22.15Z" transform="translate(-0.05 -0.02)"/><path class="cls-2" d="M49.23,22.29c.06,0,.07.13.13.17s-.15-.07-.2-.1S49.23,22.33,49.23,22.29Z" transform="translate(-0.05 -0.02)"/><path class="cls-2" d="M52.45,23.49c.12,0,0,.1,0,.2S52.42,23.58,52.45,23.49Z" transform="translate(-0.05 -0.02)"/><path class="cls-2" d="M33.88,25.61c.05-.08.17.05.17.13S34,25.63,33.88,25.61Z" transform="translate(-0.05 -0.02)"/><path class="cls-2" d="M47.55,27.38c.07.07.1,0,.2,0S47.5,27.49,47.55,27.38Z" transform="translate(-0.05 -0.02)"/><path class="cls-2" d="M8.94,29.06a.54.54,0,0,1-.5.17C8.59,29.11,8.75,29.14,8.94,29.06Z" transform="translate(-0.05 -0.02)"/><path class="cls-2" d="M13.57,29.12c.09,0,.16.17.2.1C13.87,29.39,13.56,29.26,13.57,29.12Z" transform="translate(-0.05 -0.02)"/><path class="cls-2" d="M23,29.46c.07.13-.3.11-.4.17C22.6,29.48,22.86,29.55,23,29.46Z" transform="translate(-0.05 -0.02)"/><path class="cls-2" d="M18.46,30.13c-.07.1-.29,0-.4.1C18.11,30.11,18.31,30.14,18.46,30.13Z" transform="translate(-0.05 -0.02)"/><path class="cls-2" d="M17.86,30.23c-.14.07-.53.28-.6.1C17.5,30.34,17.62,30.23,17.86,30.23Z" transform="translate(-0.05 -0.02)"/><path class="cls-2" d="M16.85,30.5a6.63,6.63,0,0,1-1.31.27A3.87,3.87,0,0,1,16.85,30.5Z" transform="translate(-0.05 -0.02)"/><path class="cls-2" d="M15.44,30.77a5.5,5.5,0,0,1-1,.13A3.92,3.92,0,0,1,15.44,30.77Z" transform="translate(-0.05 -0.02)"/><path class="cls-2" d="M23.15,30.73c.09,0,.1.08.1.17A.12.12,0,0,1,23.15,30.73Z" transform="translate(-0.05 -0.02)"/><path class="cls-2" d="M14.14,30.93a.7.7,0,0,1-.5,0A.72.72,0,0,1,14.14,30.93Z" transform="translate(-0.05 -0.02)"/><path class="cls-2" d="M12.83,31.1a2,2,0,0,0-.4,0S12.84,30.92,12.83,31.1Z" transform="translate(-0.05 -0.02)"/><path class="cls-2" d="M23.39,31.4c.08,0-.06.1,0,.13s-.21,0-.27,0S23.3,31.44,23.39,31.4Z" transform="translate(-0.05 -0.02)"/><path class="cls-2" d="M30.53,33.28s0,0,.07,0v.07c-.1-.1-.06.08-.17.07S30.52,33.36,30.53,33.28Z" transform="translate(-0.05 -0.02)"/><path class="cls-2" d="M36.09,33.51q.16,0,.13.13s-.09-.05-.1,0S36.1,33.57,36.09,33.51Z" transform="translate(-0.05 -0.02)"/><path class="cls-2" d="M17.05,35.09c.07,0,.09.07.13.1s-.12,0-.13.1S17,35.19,17.05,35.09Z" transform="translate(-0.05 -0.02)"/><path class="cls-2" d="M17.05,35.36s-.15.09-.2,0S17,35.34,17.05,35.36Z" transform="translate(-0.05 -0.02)"/><path class="cls-2" d="M16.62,36.36c.07-.1.21,0,.3,0C16.85,36.46,16.71,36.35,16.62,36.36Z" transform="translate(-0.05 -0.02)"/><path class="cls-2" d="M18,36.53a2.34,2.34,0,0,1-.87-.1c-.3-.06.09,0,.1,0S17.75,36.52,18,36.53Z" transform="translate(-0.05 -0.02)"/><path class="cls-2" d="M22.21,37.6c-1.29-.39-2.53-.66-4-1-.44-.09.24,0,.4,0A20,20,0,0,1,22.21,37.6Z" transform="translate(-0.05 -0.02)"/><path class="cls-2" d="M35,38.37c.07,0,.07.08.07.17S35,38.46,35,38.37Z" transform="translate(-0.05 -0.02)"/><path class="cls-2" d="M35.22,38.81c.07.06,0,0,.13,0s-.11.15-.13.07Z" transform="translate(-0.05 -0.02)"/><path class="cls-2" d="M23.15,39.35c-.1.09-.24-.05-.37,0C22.84,39.17,23,39.37,23.15,39.35Z" transform="translate(-0.05 -0.02)"/><path class="cls-2" d="M36.66,41.12a5,5,0,0,1,1.34.1A8.56,8.56,0,0,1,36.66,41.12Z" transform="translate(-0.05 -0.02)"/><path class="cls-2" d="M34.15,41.52c.13,0,0,.24,0,.37C34,41.81,34.13,41.65,34.15,41.52Z" transform="translate(-0.05 -0.02)"/><path class="cls-2" d="M34.31,41.63c.06,0,0,.17.07.23s-.07-.13-.17-.13S34.37,41.74,34.31,41.63Z" transform="translate(-0.05 -0.02)"/><path class="cls-2" d="M35.72,41.69c0,.09,0,.09,0,.17s-.11-.05-.1-.13A.19.19,0,0,1,35.72,41.69Z" transform="translate(-0.05 -0.02)"/><path class="cls-2" d="M36.16,41.83c.07,0,0,.14,0,.2C36.06,42,36.12,41.94,36.16,41.83Z" transform="translate(-0.05 -0.02)"/><path class="cls-2" d="M34.31,41.89c.15,0,0,.2,0,.27a.16.16,0,0,0-.1,0A.23.23,0,0,0,34.31,41.89Z" transform="translate(-0.05 -0.02)"/><path class="cls-2" d="M35.79,41.89a.87.87,0,0,0,.27.1C36,42.07,35.77,42,35.79,41.89Z" transform="translate(-0.05 -0.02)"/><path class="cls-2" d="M36.26,42.3c.12,0,0,.18-.07.17S36.26,42.38,36.26,42.3Z" transform="translate(-0.05 -0.02)"/><path class="cls-2" d="M30.19,42.36c.1,0,.15,0,.13.13S30.18,42.47,30.19,42.36Z" transform="translate(-0.05 -0.02)"/><path class="cls-2" d="M34.48,42.46c.08,0,.08.09,0,.13s-.11,0-.1-.1,0,0,0,0S34.47,42.49,34.48,42.46Z" transform="translate(-0.05 -0.02)"/><path class="cls-2" d="M35.12,42.83c.1,0,.06.09.17.07S35.11,42.94,35.12,42.83Z" transform="translate(-0.05 -0.02)"/><path class="cls-2" d="M15.65,42.9c.13,0,0,.19.13.2C15.71,43.19,15.61,43,15.65,42.9Z" transform="translate(-0.05 -0.02)"/><path class="cls-2" d="M19.6,43.8c.07.06.08.17.2.1s0,.17-.13.17A.52.52,0,0,1,19.6,43.8Z" transform="translate(-0.05 -0.02)"/><path class="cls-2" d="M33.91,46.42s.06,0,.1,0c1,.69,2.25,1.09,3.25,1.74A27.24,27.24,0,0,1,33.91,46.42Z" transform="translate(-0.05 -0.02)"/><path class="cls-2" d="M30.73,2.68c0,.06,0,.07,0,.13-.16,0-.26.08-.3-.17.21.23.11,0,.37,0-.06.17.36,0,.44.17s-.08,0-.17,0-.06,0-.07.07.16,0,.13.17c-.19-.08-.05,0-.23,0C31,3,31,3,31,2.88s-.11,0-.17,0,0-.06,0-.07,0,0,.07,0S30.81,2.68,30.73,2.68Z" transform="translate(-0.05 -0.02)"/><path class="cls-2" d="M31.93,3.38H32c0,.1-.09.15.07.13s0,.15-.13.13S32.05,3.49,31.93,3.38Z" transform="translate(-0.05 -0.02)"/><path class="cls-2" d="M26.2,14.24v-.1c.1,0,.09.09.13.13S26.29,14.21,26.2,14.24Z" transform="translate(-0.05 -0.02)"/><path class="cls-2" d="M30.29,18a.11.11,0,0,1,0,.17c-.06,0-.11-.1-.13,0s.06-.09.13-.07A.16.16,0,0,1,30.29,18Z" transform="translate(-0.05 -0.02)"/><path class="cls-2" d="M30,18.53c0-.16.21-.12.17-.27s.07,0,.13,0c-.16.08,0,.1,0,.23s-.06-.09-.17-.07,0,0-.07,0,0,.11.1.1S30.08,18.53,30,18.53Z" transform="translate(-0.05 -0.02)"/><path class="cls-2" d="M30.19,18.83a.38.38,0,0,0,.2.23c.24-.13.12-.25.4-.3,0,.08,0,.13-.07.13.09.05.21.09.23.2s-.16.08-.23,0,.06,0,.1-.07-.13,0-.13-.13c-.08,0-.07.15-.07.27a2.19,2.19,0,0,0-.47-.13c.06-.11-.09-.18.07-.27s0,.06.1.07S30.27,18.79,30.19,18.83Z" transform="translate(-0.05 -0.02)"/><path class="cls-2" d="M21.41,20.64c-.06,0-.2-.12-.13,0s0,0-.07,0,0,0,0,0S21.44,20.49,21.41,20.64Z" transform="translate(-0.05 -0.02)"/><path class="cls-2" d="M40.31,22.22c.16.09.39.1.47.27-.11-.1-.3,0-.4-.17,0,.05-.15.26-.17.1,0,0,0,0-.07,0a.09.09,0,0,0,.07.1c.15-.17.28.05.4,0,0,.11-.1.1-.13.17a.86.86,0,0,0-.47-.17C40,22.37,40.29,22.41,40.31,22.22Z" transform="translate(-0.05 -0.02)"/><path class="cls-2" d="M52,22.66c.08.1-.19.08-.23.1s.06.05.07.1,0-.08.1-.07c.06.19-.05.2,0,.4-.07,0-.14-.1-.07-.17-.16.15,0,.39,0,.5-.26.1-.18-.37-.3-.5s.1-.08.13-.13-.16-.06-.13-.2c.19.06.28-.16.37,0C52,22.7,52,22.68,52,22.66Z" transform="translate(-0.05 -0.02)"/><path class="cls-2" d="M39.84,22.89c-.11-.06,0-.14.07-.17s.08.06.07.13.16-.17.27-.07C40.2,23,39.94,22.81,39.84,22.89Z" transform="translate(-0.05 -0.02)"/><path class="cls-2" d="M52.38,22.72c.06,0,0,0-.07,0a.09.09,0,0,0,.07.1c0,.07-.15,0-.13.1.05-.11-.13-.06-.17-.17C52.25,22.86,52.23,22.74,52.38,22.72Z" transform="translate(-0.05 -0.02)"/><path class="cls-2" d="M52.21,23.16c-.08,0-.1-.06-.13,0s0,0,0-.17a1.05,1.05,0,0,1,.23.23s0,0-.1,0Z" transform="translate(-0.05 -0.02)"/><path class="cls-2" d="M37.56,24.9c-.1-.1.15.08.17,0C37.84,25,37.62,25,37.56,24.9Z" transform="translate(-0.05 -0.02)"/><path class="cls-2" d="M24,31.34c-.07-.07.16,0,.2,0s.08.22-.1.27c.05-.12.08-.11,0-.27s-.06,0-.1,0,0,.19,0,.23,0,0,0,0H24C24,31.55,24.1,31.36,24,31.34Z" transform="translate(-0.05 -0.02)"/><path class="cls-2" d="M30.79,32.91c.11-.09.19.13.2.24s-.13-.09-.13,0S31,32.92,30.79,32.91Z" transform="translate(-0.05 -0.02)"/><path class="cls-2" d="M30.63,33.25c.07,0,.22-.07.27,0s-.06.07,0,.17-.18-.07-.13,0S30.63,33.31,30.63,33.25Z" transform="translate(-0.05 -0.02)"/><path class="cls-2" d="M30.76,33.51c0-.08.18,0,.23-.1s-.09,0-.07-.13.06,0,.07-.07.12.08.17.14-.12.12-.1.27C30.95,33.6,30.91,33.5,30.76,33.51Z" transform="translate(-0.05 -0.02)"/><path class="cls-2" d="M16.45,35.29a.26.26,0,0,1-.3-.13c0-.13.11-.16.1-.3.1.05,0,.15,0,.23s.06.05.07.1,0-.08,0-.13.2.2.1.27S16.43,35.29,16.45,35.29Z" transform="translate(-0.05 -0.02)"/><path class="cls-2" d="M23.39,35.83v-.07a.16.16,0,0,1,.1,0c0,.08,0,.13.07.13S23.47,35.8,23.39,35.83Z" transform="translate(-0.05 -0.02)"/><path class="cls-2" d="M17.82,37a6.62,6.62,0,0,1,1,.37A5.52,5.52,0,0,1,17.82,37Z" transform="translate(-0.05 -0.02)"/><path class="cls-2" d="M22.25,37.6c.07-.07.22.07.34.07C22.53,37.73,22.32,37.65,22.25,37.6Z" transform="translate(-0.05 -0.02)"/><path class="cls-2" d="M30,38.17c.1,0-.05.05,0,.1s.07-.13.17-.13c-.12,0,0-.17.17-.17a2.12,2.12,0,0,1-.5.54C29.78,38.45,29.93,38.27,30,38.17Z" transform="translate(-0.05 -0.02)"/><path class="cls-2" d="M17,38a7.78,7.78,0,0,1,1.84.9s0,0,0,0C18.17,38.66,17.58,38.35,17,38Z" transform="translate(-0.05 -0.02)"/><path class="cls-2" d="M20.44,38.17c0-.09.25.07.34.1C20.66,38.37,20.58,38.16,20.44,38.17Z" transform="translate(-0.05 -0.02)"/><path class="cls-2" d="M35.79,38.57c-.12-.07-.09,0-.23,0,0,0,.08,0,.07.1s-.12.1-.24.1.23-.11.1-.2c.13-.06.28-.1.27-.3a.2.2,0,0,0,.13,0v.13C35.78,38.45,35.87,38.52,35.79,38.57Z" transform="translate(-0.05 -0.02)"/><path class="cls-2" d="M21.18,38.54a3,3,0,0,1,.67.3C21.63,38.86,21.39,38.63,21.18,38.54Z" transform="translate(-0.05 -0.02)"/><path class="cls-2" d="M34.75,38.64c0-.09.26-.15.23,0,0,0-.2,0-.1,0S34.83,38.6,34.75,38.64Z" transform="translate(-0.05 -0.02)"/><path class="cls-2" d="M34.72,38.91s0,.08,0,.13-.18-.24-.1-.37c0,.23.28.22.4.33s0,0,.07,0a.81.81,0,0,1-.13-.13c0-.06.11,0,.2,0,0,.18-.09.22-.2.27C35,38.92,34.73,39,34.72,38.91Z" transform="translate(-0.05 -0.02)"/><path class="cls-2" d="M22.08,39a7,7,0,0,1,.67.23A1.1,1.1,0,0,1,22.08,39Z" transform="translate(-0.05 -0.02)"/><path class="cls-2" d="M25.06,40.05c0-.06.26.06.33.1S25.16,40.08,25.06,40.05Z" transform="translate(-0.05 -0.02)"/><path class="cls-2" d="M25.43,40.18c.06,0,.28.05.37.1C25.72,40.34,25.55,40.2,25.43,40.18Z" transform="translate(-0.05 -0.02)"/><path class="cls-2" d="M36.66,41.22c-.11,0-.1-.1-.17-.13s0,.08,0,.13c-.21-.23-.78-.12-1.11-.23C35.78,41,36.5,40.94,36.66,41.22Z" transform="translate(-0.05 -0.02)"/><path class="cls-2" d="M34.51,42.06c.1,0,.12.06.17.1S34.46,42.19,34.51,42.06Z" transform="translate(-0.05 -0.02)"/><path class="cls-2" d="M34.55,42.23c.08,0,0,.23.1.07.17.07-.07.13-.2.1S34.58,42.35,34.55,42.23Z" transform="translate(-0.05 -0.02)"/><path class="cls-2" d="M35,42.23a.19.19,0,0,0,.13,0c-.07.1-.13.14-.13.24s.09,0,.13,0-.1,0-.1.07c-.06-.15-.15-.05-.2-.2C35,42.38,35,42.39,35,42.23Z" transform="translate(-0.05 -0.02)"/><path class="cls-2" d="M35.39,42.33s0,.27-.13.17c0,.12.08.09.07.2s-.1.06-.17,0a1.48,1.48,0,0,0,.13-.34S35.38,42.37,35.39,42.33Z" transform="translate(-0.05 -0.02)"/><path class="cls-2" d="M39.51,44.84s0,0,0,0,0,0,0,0a.16.16,0,0,1,.07.17s-.06,0-.07-.07S39.6,44.87,39.51,44.84Z" transform="translate(-0.05 -0.02)"/><path class="cls-2" d="M33,45.65c.08.1.21.15.23.3C33.14,45.83,33,45.79,33,45.65Z" transform="translate(-0.05 -0.02)"/><path class="cls-2" d="M38.23,48.46c-.2,0-.48-.15-.67-.24C37.65,48.18,38,48.42,38.23,48.46Z" transform="translate(-0.05 -0.02)"/><path class="cls-2" d="M31.3,2.35l.2.1C31.44,2.54,31.28,2.45,31.3,2.35Z" transform="translate(-0.05 -0.02)"/><path class="cls-2" d="M30.56,2.55c.05-.1.15,0,.23,0C30.72,2.63,30.64,2.6,30.56,2.55Z" transform="translate(-0.05 -0.02)"/><path class="cls-2" d="M27.11,4.36c.07,0,.05.15.17.13s-.1,0-.17,0Z" transform="translate(-0.05 -0.02)"/><path class="cls-2" d="M36.73,8.14h.1c0,.09-.06.14-.17.13S36.77,8.25,36.73,8.14Z" transform="translate(-0.05 -0.02)"/><path class="cls-2" d="M21.81,8.71c.08,0,.16,0,.13.13a.22.22,0,0,1-.17,0A.15.15,0,0,0,21.81,8.71Z" transform="translate(-0.05 -0.02)"/><path class="cls-2" d="M37,9.79h.1c0,.12,0,.1,0,.2s0-.08,0-.13S37,9.83,37,9.79Z" transform="translate(-0.05 -0.02)"/><path class="cls-2" d="M27.91,11.76c.05,0,.06,0,.1,0s0,.11-.13.1S27.9,11.81,27.91,11.76Z" transform="translate(-0.05 -0.02)"/><path class="cls-2" d="M34.11,14.75a.31.31,0,0,1,.2.37.4.4,0,0,0-.4-.2C34,14.84,34.22,14.91,34.11,14.75Z" transform="translate(-0.05 -0.02)"/><path class="cls-2" d="M24.76,17.39c.07,0,.09,0,.13,0s-.06.05-.07.1A.15.15,0,0,1,24.76,17.39Z" transform="translate(-0.05 -0.02)"/><path class="cls-2" d="M30.53,18.33s0,.07.07.07c-.12.08-.14.26-.27.34,0-.12.09-.18.07-.34C30.47,18.41,30.55,18.48,30.53,18.33Z" transform="translate(-0.05 -0.02)"/><path class="cls-2" d="M48.62,21.78c.11.06,0,.15.07.27-.08,0-.08-.17-.13-.23S48.62,21.81,48.62,21.78Z" transform="translate(-0.05 -0.02)"/><path class="cls-2" d="M17.69,21.92c.05,0,0,.11.13.07s-.16,0-.13.07,0-.06,0-.1S17.69,21.94,17.69,21.92Z" transform="translate(-0.05 -0.02)"/><path class="cls-2" d="M17.39,22.05c.09,0,.14,0,.13.1S17.38,22.14,17.39,22.05Z" transform="translate(-0.05 -0.02)"/><path class="cls-2" d="M48.59,22.15c.12,0,.11.11.2.13C48.72,22.38,48.59,22.24,48.59,22.15Z" transform="translate(-0.05 -0.02)"/><path class="cls-2" d="M49.23,22.29c.06,0,.07.13.13.17s-.15-.07-.2-.1S49.23,22.33,49.23,22.29Z" transform="translate(-0.05 -0.02)"/><path class="cls-2" d="M52.45,23.49c.12,0,0,.1,0,.2S52.42,23.58,52.45,23.49Z" transform="translate(-0.05 -0.02)"/><path class="cls-2" d="M33.88,25.61c.05-.08.17.05.17.13S34,25.63,33.88,25.61Z" transform="translate(-0.05 -0.02)"/><path class="cls-2" d="M47.55,27.38c.07.07.1,0,.2,0S47.5,27.49,47.55,27.38Z" transform="translate(-0.05 -0.02)"/><path class="cls-2" d="M8.94,29.06a.54.54,0,0,1-.5.17C8.59,29.11,8.75,29.14,8.94,29.06Z" transform="translate(-0.05 -0.02)"/><path class="cls-2" d="M13.57,29.12c.09,0,.16.17.2.1C13.87,29.39,13.56,29.26,13.57,29.12Z" transform="translate(-0.05 -0.02)"/><path class="cls-2" d="M23,29.46c.07.13-.3.11-.4.17C22.6,29.48,22.86,29.55,23,29.46Z" transform="translate(-0.05 -0.02)"/><path class="cls-2" d="M18.46,30.13c-.07.1-.29,0-.4.1C18.11,30.11,18.31,30.14,18.46,30.13Z" transform="translate(-0.05 -0.02)"/><path class="cls-2" d="M17.86,30.23c-.14.07-.53.28-.6.1C17.5,30.34,17.62,30.23,17.86,30.23Z" transform="translate(-0.05 -0.02)"/><path class="cls-2" d="M16.85,30.5a6.63,6.63,0,0,1-1.31.27A3.87,3.87,0,0,1,16.85,30.5Z" transform="translate(-0.05 -0.02)"/><path class="cls-2" d="M15.44,30.77a5.5,5.5,0,0,1-1,.13A3.92,3.92,0,0,1,15.44,30.77Z" transform="translate(-0.05 -0.02)"/><path class="cls-2" d="M23.15,30.73c.09,0,.1.08.1.17A.12.12,0,0,1,23.15,30.73Z" transform="translate(-0.05 -0.02)"/><path class="cls-2" d="M14.14,30.93a.7.7,0,0,1-.5,0A.72.72,0,0,1,14.14,30.93Z" transform="translate(-0.05 -0.02)"/><path class="cls-2" d="M12.83,31.1a2,2,0,0,0-.4,0S12.84,30.92,12.83,31.1Z" transform="translate(-0.05 -0.02)"/><path class="cls-2" d="M23.39,31.4c.08,0-.06.1,0,.13s-.21,0-.27,0S23.3,31.44,23.39,31.4Z" transform="translate(-0.05 -0.02)"/><path class="cls-2" d="M30.53,33.28s0,0,.07,0v.07c-.1-.1-.06.08-.17.07S30.52,33.36,30.53,33.28Z" transform="translate(-0.05 -0.02)"/><path class="cls-2" d="M36.09,33.51q.16,0,.13.13s-.09-.05-.1,0S36.1,33.57,36.09,33.51Z" transform="translate(-0.05 -0.02)"/><path class="cls-2" d="M17.05,35.09c.07,0,.09.07.13.1s-.12,0-.13.1S17,35.19,17.05,35.09Z" transform="translate(-0.05 -0.02)"/><path class="cls-2" d="M17.05,35.36s-.15.09-.2,0S17,35.34,17.05,35.36Z" transform="translate(-0.05 -0.02)"/><path class="cls-2" d="M16.62,36.36c.07-.1.21,0,.3,0C16.85,36.46,16.71,36.35,16.62,36.36Z" transform="translate(-0.05 -0.02)"/><path class="cls-2" d="M18,36.53a2.34,2.34,0,0,1-.87-.1c-.3-.06.09,0,.1,0S17.75,36.52,18,36.53Z" transform="translate(-0.05 -0.02)"/><path class="cls-2" d="M22.21,37.6c-1.29-.39-2.53-.66-4-1-.44-.09.24,0,.4,0A20,20,0,0,1,22.21,37.6Z" transform="translate(-0.05 -0.02)"/><path class="cls-2" d="M35,38.37c.07,0,.07.08.07.17S35,38.46,35,38.37Z" transform="translate(-0.05 -0.02)"/><path class="cls-2" d="M35.22,38.81c.07.06,0,0,.13,0s-.11.15-.13.07Z" transform="translate(-0.05 -0.02)"/><path class="cls-2" d="M23.15,39.35c-.1.09-.24-.05-.37,0C22.84,39.17,23,39.37,23.15,39.35Z" transform="translate(-0.05 -0.02)"/><path class="cls-2" d="M36.66,41.12a5,5,0,0,1,1.34.1A8.56,8.56,0,0,1,36.66,41.12Z" transform="translate(-0.05 -0.02)"/><path class="cls-2" d="M34.15,41.52c.13,0,0,.24,0,.37C34,41.81,34.13,41.65,34.15,41.52Z" transform="translate(-0.05 -0.02)"/><path class="cls-2" d="M34.31,41.63c.06,0,0,.17.07.23s-.07-.13-.17-.13S34.37,41.74,34.31,41.63Z" transform="translate(-0.05 -0.02)"/><path class="cls-2" d="M35.72,41.69c0,.09,0,.09,0,.17s-.11-.05-.1-.13A.19.19,0,0,1,35.72,41.69Z" transform="translate(-0.05 -0.02)"/><path class="cls-2" d="M36.16,41.83c.07,0,0,.14,0,.2C36.06,42,36.12,41.94,36.16,41.83Z" transform="translate(-0.05 -0.02)"/><path class="cls-2" d="M34.31,41.89c.15,0,0,.2,0,.27a.16.16,0,0,0-.1,0A.23.23,0,0,0,34.31,41.89Z" transform="translate(-0.05 -0.02)"/><path class="cls-2" d="M35.79,41.89a.87.87,0,0,0,.27.1C36,42.07,35.77,42,35.79,41.89Z" transform="translate(-0.05 -0.02)"/><path class="cls-2" d="M36.26,42.3c.12,0,0,.18-.07.17S36.26,42.38,36.26,42.3Z" transform="translate(-0.05 -0.02)"/><path class="cls-2" d="M30.19,42.36c.1,0,.15,0,.13.13S30.18,42.47,30.19,42.36Z" transform="translate(-0.05 -0.02)"/><path class="cls-2" d="M34.48,42.46c.08,0,.08.09,0,.13s-.11,0-.1-.1,0,0,0,0S34.47,42.49,34.48,42.46Z" transform="translate(-0.05 -0.02)"/><path class="cls-2" d="M35.12,42.83c.1,0,.06.09.17.07S35.11,42.94,35.12,42.83Z" transform="translate(-0.05 -0.02)"/><path class="cls-2" d="M15.65,42.9c.13,0,0,.19.13.2C15.71,43.19,15.61,43,15.65,42.9Z" transform="translate(-0.05 -0.02)"/><path class="cls-2" d="M19.6,43.8c.07.06.08.17.2.1s0,.17-.13.17A.52.52,0,0,1,19.6,43.8Z" transform="translate(-0.05 -0.02)"/><path class="cls-2" d="M33.91,46.42s.06,0,.1,0c1,.69,2.25,1.09,3.25,1.74A27.24,27.24,0,0,1,33.91,46.42Z" transform="translate(-0.05 -0.02)"/><path class="cls-2" d="M30.73,2.68c0,.06,0,.07,0,.13-.16,0-.26.08-.3-.17.21.23.11,0,.37,0-.06.17.36,0,.44.17s-.08,0-.17,0-.06,0-.07.07.16,0,.13.17c-.19-.08-.05,0-.23,0C31,3,31,3,31,2.88s-.11,0-.17,0,0-.06,0-.07,0,0,.07,0S30.81,2.68,30.73,2.68Z" transform="translate(-0.05 -0.02)"/><path class="cls-2" d="M31.93,3.38H32c0,.1-.09.15.07.13s0,.15-.13.13S32.05,3.49,31.93,3.38Z" transform="translate(-0.05 -0.02)"/><path class="cls-2" d="M26.2,14.24v-.1c.1,0,.09.09.13.13S26.29,14.21,26.2,14.24Z" transform="translate(-0.05 -0.02)"/><path class="cls-2" d="M30.29,18a.11.11,0,0,1,0,.17c-.06,0-.11-.1-.13,0s.06-.09.13-.07A.16.16,0,0,1,30.29,18Z" transform="translate(-0.05 -0.02)"/><path class="cls-2" d="M30,18.53c0-.16.21-.12.17-.27s.07,0,.13,0c-.16.08,0,.1,0,.23s-.06-.09-.17-.07,0,0-.07,0,0,.11.1.1S30.08,18.53,30,18.53Z" transform="translate(-0.05 -0.02)"/><path class="cls-2" d="M30.19,18.83a.38.38,0,0,0,.2.23c.24-.13.12-.25.4-.3,0,.08,0,.13-.07.13.09.05.21.09.23.2s-.16.08-.23,0,.06,0,.1-.07-.13,0-.13-.13c-.08,0-.07.15-.07.27a2.19,2.19,0,0,0-.47-.13c.06-.11-.09-.18.07-.27s0,.06.1.07S30.27,18.79,30.19,18.83Z" transform="translate(-0.05 -0.02)"/><path class="cls-2" d="M21.41,20.64c-.06,0-.2-.12-.13,0s0,0-.07,0,0,0,0,0S21.44,20.49,21.41,20.64Z" transform="translate(-0.05 -0.02)"/><path class="cls-2" d="M40.31,22.22c.16.09.39.1.47.27-.11-.1-.3,0-.4-.17,0,.05-.15.26-.17.1,0,0,0,0-.07,0a.09.09,0,0,0,.07.1c.15-.17.28.05.4,0,0,.11-.1.1-.13.17a.86.86,0,0,0-.47-.17C40,22.37,40.29,22.41,40.31,22.22Z" transform="translate(-0.05 -0.02)"/><path class="cls-2" d="M52,22.66c.08.1-.19.08-.23.1s.06.05.07.1,0-.08.1-.07c.06.19-.05.2,0,.4-.07,0-.14-.1-.07-.17-.16.15,0,.39,0,.5-.26.1-.18-.37-.3-.5s.1-.08.13-.13-.16-.06-.13-.2c.19.06.28-.16.37,0C52,22.7,52,22.68,52,22.66Z" transform="translate(-0.05 -0.02)"/><path class="cls-2" d="M39.84,22.89c-.11-.06,0-.14.07-.17s.08.06.07.13.16-.17.27-.07C40.2,23,39.94,22.81,39.84,22.89Z" transform="translate(-0.05 -0.02)"/><path class="cls-2" d="M52.38,22.72c.06,0,0,0-.07,0a.09.09,0,0,0,.07.1c0,.07-.15,0-.13.1.05-.11-.13-.06-.17-.17C52.25,22.86,52.23,22.74,52.38,22.72Z" transform="translate(-0.05 -0.02)"/><path class="cls-2" d="M52.21,23.16c-.08,0-.1-.06-.13,0s0,0,0-.17a1.05,1.05,0,0,1,.23.23s0,0-.1,0Z" transform="translate(-0.05 -0.02)"/><path class="cls-2" d="M37.56,24.9c-.1-.1.15.08.17,0C37.84,25,37.62,25,37.56,24.9Z" transform="translate(-0.05 -0.02)"/><path class="cls-2" d="M24,31.34c-.07-.07.16,0,.2,0s.08.22-.1.27c.05-.12.08-.11,0-.27s-.06,0-.1,0,0,.19,0,.23,0,0,0,0H24C24,31.55,24.1,31.36,24,31.34Z" transform="translate(-0.05 -0.02)"/><path class="cls-2" d="M30.79,32.91c.11-.09.19.13.2.24s-.13-.09-.13,0S31,32.92,30.79,32.91Z" transform="translate(-0.05 -0.02)"/><path class="cls-2" d="M30.63,33.25c.07,0,.22-.07.27,0s-.06.07,0,.17-.18-.07-.13,0S30.63,33.31,30.63,33.25Z" transform="translate(-0.05 -0.02)"/><path class="cls-2" d="M30.76,33.51c0-.08.18,0,.23-.1s-.09,0-.07-.13.06,0,.07-.07.12.08.17.14-.12.12-.1.27C30.95,33.6,30.91,33.5,30.76,33.51Z" transform="translate(-0.05 -0.02)"/><path class="cls-2" d="M16.45,35.29a.26.26,0,0,1-.3-.13c0-.13.11-.16.1-.3.1.05,0,.15,0,.23s.06.05.07.1,0-.08,0-.13.2.2.1.27S16.43,35.29,16.45,35.29Z" transform="translate(-0.05 -0.02)"/><path class="cls-2" d="M23.39,35.83v-.07a.16.16,0,0,1,.1,0c0,.08,0,.13.07.13S23.47,35.8,23.39,35.83Z" transform="translate(-0.05 -0.02)"/><path class="cls-2" d="M17.82,37a6.62,6.62,0,0,1,1,.37A5.52,5.52,0,0,1,17.82,37Z" transform="translate(-0.05 -0.02)"/><path class="cls-2" d="M22.25,37.6c.07-.07.22.07.34.07C22.53,37.73,22.32,37.65,22.25,37.6Z" transform="translate(-0.05 -0.02)"/><path class="cls-2" d="M30,38.17c.1,0-.05.05,0,.1s.07-.13.17-.13c-.12,0,0-.17.17-.17a2.12,2.12,0,0,1-.5.54C29.78,38.45,29.93,38.27,30,38.17Z" transform="translate(-0.05 -0.02)"/><path class="cls-2" d="M17,38a7.78,7.78,0,0,1,1.84.9s0,0,0,0C18.17,38.66,17.58,38.35,17,38Z" transform="translate(-0.05 -0.02)"/><path class="cls-2" d="M20.44,38.17c0-.09.25.07.34.1C20.66,38.37,20.58,38.16,20.44,38.17Z" transform="translate(-0.05 -0.02)"/><path class="cls-2" d="M35.79,38.57c-.12-.07-.09,0-.23,0,0,0,.08,0,.07.1s-.12.1-.24.1.23-.11.1-.2c.13-.06.28-.1.27-.3a.2.2,0,0,0,.13,0v.13C35.78,38.45,35.87,38.52,35.79,38.57Z" transform="translate(-0.05 -0.02)"/><path class="cls-2" d="M21.18,38.54a3,3,0,0,1,.67.3C21.63,38.86,21.39,38.63,21.18,38.54Z" transform="translate(-0.05 -0.02)"/><path class="cls-2" d="M34.75,38.64c0-.09.26-.15.23,0,0,0-.2,0-.1,0S34.83,38.6,34.75,38.64Z" transform="translate(-0.05 -0.02)"/><path class="cls-2" d="M34.72,38.91s0,.08,0,.13-.18-.24-.1-.37c0,.23.28.22.4.33s0,0,.07,0a.81.81,0,0,1-.13-.13c0-.06.11,0,.2,0,0,.18-.09.22-.2.27C35,38.92,34.73,39,34.72,38.91Z" transform="translate(-0.05 -0.02)"/><path class="cls-2" d="M22.08,39a7,7,0,0,1,.67.23A1.1,1.1,0,0,1,22.08,39Z" transform="translate(-0.05 -0.02)"/><path class="cls-2" d="M25.06,40.05c0-.06.26.06.33.1S25.16,40.08,25.06,40.05Z" transform="translate(-0.05 -0.02)"/><path class="cls-2" d="M25.43,40.18c.06,0,.28.05.37.1C25.72,40.34,25.55,40.2,25.43,40.18Z" transform="translate(-0.05 -0.02)"/><path class="cls-2" d="M36.66,41.22c-.11,0-.1-.1-.17-.13s0,.08,0,.13c-.21-.23-.78-.12-1.11-.23C35.78,41,36.5,40.94,36.66,41.22Z" transform="translate(-0.05 -0.02)"/><path class="cls-2" d="M34.51,42.06c.1,0,.12.06.17.1S34.46,42.19,34.51,42.06Z" transform="translate(-0.05 -0.02)"/><path class="cls-2" d="M34.55,42.23c.08,0,0,.23.1.07.17.07-.07.13-.2.1S34.58,42.35,34.55,42.23Z" transform="translate(-0.05 -0.02)"/><path class="cls-2" d="M35,42.23a.19.19,0,0,0,.13,0c-.07.1-.13.14-.13.24s.09,0,.13,0-.1,0-.1.07c-.06-.15-.15-.05-.2-.2C35,42.38,35,42.39,35,42.23Z" transform="translate(-0.05 -0.02)"/><path class="cls-2" d="M35.39,42.33s0,.27-.13.17c0,.12.08.09.07.2s-.1.06-.17,0a1.48,1.48,0,0,0,.13-.34S35.38,42.37,35.39,42.33Z" transform="translate(-0.05 -0.02)"/><path class="cls-2" d="M39.51,44.84s0,0,0,0,0,0,0,0a.16.16,0,0,1,.07.17s-.06,0-.07-.07S39.6,44.87,39.51,44.84Z" transform="translate(-0.05 -0.02)"/><path class="cls-2" d="M33,45.65c.08.1.21.15.23.3C33.14,45.83,33,45.79,33,45.65Z" transform="translate(-0.05 -0.02)"/><path class="cls-2" d="M38.23,48.46c-.2,0-.48-.15-.67-.24C37.65,48.18,38,48.42,38.23,48.46Z" transform="translate(-0.05 -0.02)"/><path class="cls-3" d="M86,22.43h5.37l4.31,2.14q.72-2.14,4.86-2.14h1.09l3.23,3.23v2.69q0,1.24-2.71,1.63-3.23,0-3.23-2.17H97.82V31q-1,8.63-7,8.63L89.2,40.74l-6.46-2.17L79,40.74v1.6q3.23,0,3.23,1.09l1.6-1.09.54.54h.54l2.17-.54,1.6.54.54-.54h.54l3.77,1.09.54-.54h.52q4.86,0,8.63,7,0,6-7.54,8.06v-.52L93,58.49v-.54L88.65,59l-4.31-1.09-.54.54h-.52q-4.21,0-8.63-6.46v-.54a8,8,0,0,1,2.69-5.92q-2.14-3.23-2.14-4.83V39.66q1.76-3.23,4.86-3.23L79.51,31q0-4,4.29-7.54Zm2.14,23.15-1.06,1.09H84.34l-.54-.54-4.29,2.14L79,51.49h1.08l-.54.54v1.08q4.75,2.14,7.54,2.14l1.6-.54.54.54h.54l2.69-1.08v.54l6.46-2.14V49.89Q96.51,46.11,93,46.11l-1.63.54-.52-.54v-.54l-.54.54H89.2l-.54-.54ZM87.57,26.2q0,1.78-3.23,2.14l-1.06,2.14V31l.52,2.71-.52.52a5.12,5.12,0,0,0,3.77,1.63l.52,1.63h.54q5.4-1.63,5.4-4.86l1.06-1.08q0-2.45-4.29-4.83V26.2l-.54.54H88.65l-.54-.54Z" transform="translate(-0.05 -0.02)"/><path class="cls-3" d="M110.12,11.24q3.28.41,3.28,1.11l.54-.54h2.74l.54.54,1.65-.54.54.54H120l2.2-.54,1.63,3.82-.54.54v.54l.54,1.65h-.54l.54.54-.54,1.63.54,3.85-.54.54v.54l.54.54v.54l-.54.54v1.65h.54l-.54,3.82v4.93l-.54.54q.28,5.48,2.2,5.48l.54-.57,2.74.57h6l1.09,1.08V45.7q-.72,2.2-4.93,2.2v-.54l-.54.54h-.54l-1.63-.54-3.28.54L120,47.35l-5.48.54-.54-.54h-.54l-2.2.54h-2.71q-1.65-.54-1.65-3.28v-.54l2.74-.54h.54l.54.54h.54l.57-.54V43l2.71.57h2.74l1.65-1.65V38.05l-.54-3.28,1.09-3.28-.54-.54v-9.3l-.54-2.2.54-.54v-.54l-1.11-2.2-.54.54h-.54l-2.2-.54-2.17.54v-.54l-.54.54h-2.2L106.84,14Z" transform="translate(-0.05 -0.02)"/><path class="cls-3" d="M148.38,20.9,149.52,22l1.7-1.14q0,1.14,4,1.14Q162,26.3,162,32.81v.57l-2.84,2.27q0-1.14-1.71-1.14l-1.7.57-.57-.57-1.14,1.14-1.7-1.14-1.14,1.14-.57-.57h-.57l-2.25.57-.57-.57h-.57l-.57.57h-.57l-3.41-.57h-.57v2.27q0,3.07,5.11,7.39l.57-.57h.57l1.11,1.14q5.68,0,10.8-6.25l1.14,1.7V41.9q-3,4.68-10.23,6.23-9.43,0-12.48-10.77l-.57-4a16,16,0,0,1,5.68-10.2Zm-6.79,10.77v.57L145,33.38l1.14-1.14h5.66l.57.57.57-.57h.57l.57.57.57-.57h4v-.57q-.57-7.36-7.39-7.36h-.57Q141.58,25.22,141.58,31.67Z" transform="translate(-0.05 -0.02)"/><path class="cls-3" d="M184.13,21.31l1.71,1.14.57-.57H187q5.09,3.18,5.09,10.77v.57l-.54,3.38.54,1.71-.54,2.27.54,4.52h4.55l.57.57q1.14,3.38,1.14.57a6.54,6.54,0,0,1-5.68,2.82v-.57l-.57.57h-1.68l-.57-.57-.57.57h-1.7l-.57-.57-2.84,1.14-1.68-2.25V46.24q0-1.14,5.66-1.7V44L187,40.59l.57-3.41L187,34.93l.57-1.7L187,31h.57q0-4.52-4.52-5.09-6.82,4.7-6.82,6.79L174,35.47l.57,2.27-.57.57v.57l.57,1.71H174l.57.57L174,44l.57,1.7,2.82-.57q0,1.14,2.27,1.14v2.25l-5.66.57h-4l-2.25.57q-3.41-1.32-3.41-2.25v-.57q0-1.37,5.09-1.7l.57.57V44.54l-.57-.57,1.14-9-.57-.57v-.57l.57-1.71-.57-.57V31l.57-.57v-.57q-.75-3.38-1.7-3.38l-1.11,1.11-3.41-2.25a5.64,5.64,0,0,1,2.84-3.41h5.09q1.7,0,1.7,5.66h.57Q177.7,21.32,184.13,21.31Z" transform="translate(-0.05 -0.02)"/><path class="cls-3" d="M229.29,20.9,230.42,22l1.71-1.14q0,1.14,4,1.14,6.82,4.26,6.82,10.77v.57l-2.84,2.27q0-1.14-1.71-1.14l-1.7.57-.57-.57L235,35.65l-1.71-1.14-1.14,1.14-.57-.57H231l-2.25.57-.57-.57h-.57l-.57.57h-.57l-3.41-.57h-.57v2.27q0,3.07,5.11,7.39l.57-.57h.57l1.11,1.14q5.68,0,10.8-6.25l1.14,1.7V41.9q-3,4.68-10.23,6.23-9.43,0-12.48-10.77l-.57-4a16,16,0,0,1,5.68-10.2Zm-6.79,10.77v.57l3.41,1.14L227,32.24h5.66l.57.57.57-.57h.57l.57.57.57-.57h4v-.57q-.57-7.36-7.39-7.36h-.57Q222.49,25.22,222.49,31.67Z" transform="translate(-0.05 -0.02)"/><path class="cls-3" d="M248.71,11.24q3.28.41,3.28,1.11l.54-.54h2.74l.54.54,1.65-.54.54.54h.54l2.2-.54,1.63,3.82-.54.54v.54l.54,1.65h-.54l.54.54-.54,1.63.54,3.85-.54.54v.54l.54.54v.54l-.54.54v1.65h.54l-.54,3.82v4.93l-.54.54q.28,5.48,2.2,5.48L264,43l2.74.57h6l1.09,1.08V45.7q-.72,2.2-4.93,2.2v-.54l-.54.54h-.54l-1.63-.54-3.28.54-4.39-.54-5.48.54-.54-.54H252l-2.19.54h-2.71q-1.65-.54-1.65-3.28v-.54l2.74-.54h.54l.54.54h.54l.57-.54V43l2.71.57h2.74l1.65-1.65V38.05l-.54-3.28L258,31.49l-.54-.54v-9.3l-.54-2.2.54-.54v-.54l-1.11-2.2-.54.54h-.54l-2.2-.54-2.17.54v-.54l-.54.54h-2.19L245.43,14Z" transform="translate(-0.05 -0.02)"/><path class="cls-3" d="M279.68,11.24q3.28.41,3.28,1.11l.54-.54h2.74l.54.54,1.65-.54.54.54h.54l2.2-.54,1.63,3.82-.54.54v.54l.54,1.65h-.54l.54.54-.54,1.63.54,3.85-.54.54v.54l.54.54v.54l-.54.54v1.65h.54l-.54,3.82v4.93l-.54.54q.28,5.48,2.2,5.48L295,43l2.74.57h6l1.09,1.08V45.7q-.72,2.2-4.93,2.2v-.54l-.54.54h-.54l-1.63-.54-3.28.54-4.39-.54-5.48.54-.54-.54H283l-2.19.54h-2.71q-1.65-.54-1.65-3.28v-.54l2.74-.54h.54l.54.54h.54l.57-.54V43l2.71.57h2.74l1.65-1.65V38.05l-.54-3.28L289,31.49l-.54-.54v-9.3l-.54-2.2.54-.54v-.54l-1.11-2.2-.54.54h-.54l-2.2-.54-2.17.54v-.54l-.54.54h-2.19L276.4,14Z" transform="translate(-0.05 -0.02)"/><path class="cls-3" d="M317.94,20.9,319.08,22l1.71-1.14q0,1.14,4,1.14,6.82,4.26,6.82,10.77v.57l-2.84,2.27q0-1.14-1.71-1.14l-1.7.57-.57-.57-1.14,1.14-1.71-1.14-1.14,1.14-.57-.57h-.57l-2.25.57-.57-.57h-.57l-.57.57h-.57l-3.41-.57h-.57v2.27q0,3.07,5.11,7.39l.57-.57h.57l1.11,1.14q5.68,0,10.8-6.25l1.14,1.7V41.9q-3,4.68-10.23,6.23-9.43,0-12.48-10.77l-.57-4a16,16,0,0,1,5.68-10.2Zm-6.79,10.77v.57l3.41,1.14,1.14-1.14h5.66l.57.57.57-.57h.57l.57.57.57-.57h4v-.57q-.57-7.36-7.39-7.36h-.57Q311.15,25.22,311.15,31.67Z" transform="translate(-0.05 -0.02)"/><path class="cls-3" d="M353.69,21.31l1.71,1.14.57-.57h.57q5.09,3.18,5.09,10.77v.57l-.54,3.38.54,1.71-.54,2.27.54,4.52h4.55l.57.57q1.14,3.38,1.14.57a6.54,6.54,0,0,1-5.68,2.82v-.57l-.57.57h-1.68l-.57-.57-.57.57H357.1l-.57-.57-2.84,1.14L352,47.38V46.24q0-1.14,5.66-1.7V44l-1.14-3.38.57-3.41-.57-2.25.57-1.7L356.54,31h.57q0-4.52-4.52-5.09-6.82,4.7-6.82,6.79l-2.25,2.82.57,2.27-.57.57v.57l.57,1.71h-.57l.57.57L343.52,44l.57,1.7,2.82-.57q0,1.14,2.27,1.14v2.25l-5.66.57h-4l-2.25.57q-3.41-1.32-3.41-2.25v-.57q0-1.37,5.09-1.7l.57.57V44.54L339,44l1.14-9-.57-.57v-.57l.57-1.71-.57-.57V31l.57-.57v-.57q-.75-3.38-1.71-3.38l-1.11,1.11-3.41-2.25a5.64,5.64,0,0,1,2.84-3.41h5.09q1.71,0,1.7,5.66h.57Q347.26,21.32,353.69,21.31Z" transform="translate(-0.05 -0.02)"/><path class="cls-3" d="M399.27,21.12a25.32,25.32,0,0,1,8.83,3l2.37-2.37,2.37,1.76-.6,2.94.6,6.49-.6.61h-.58q-3.55-3.41-3.55-5.31l-.58.58h-.58q0-1.62-7.68-3.55l-.61.61-.58-.61q0,1.18-3.55,1.18a1.57,1.57,0,0,1-1.76,1.79V30q2.06,4.13,4.7,4.13l2.37-.58q2.94.74,2.94,1.76l.61-.6h4.13l.58.6.61-.6h.58L414,39.42V40l-.61,2.37.61,2.37A21.77,21.77,0,0,1,405.76,50l-.61-.58-2.94.58q-3.47,0-10-2.34v.61Q392.2,50,391,50h-1.18q-1.18,0-1.18-1.73l.58-3.55-1.76-6.49.61-.58h.58q2,0,5.89,5.89,1.18,0,1.18,2.37l.61-.6h.58L401,47.67l2.37-1.18.58.6h.61q5.31,0,5.89-6.49,0-4.13-12.38-4.13l-1.76.58q-.08-.83-7.1-3.52l-.58-5.92Q388.65,23.13,399.27,21.12Z" transform="translate(-0.05 -0.02)"/><path class="cls-3" d="M433.27,10.61h1.15l4.13,2.94v.58q0,1.18-2.34,1.18v.58l1.76.61-.61.58v.58l.61.61v.58h-.61q1.38,3.52,2.37,3.52l.58-.58q8.09,0,10.56,3.52l-6.46,1.76-3.52-.58-2.92.58V43.49l-.61.61.61,1.76h1.76q4.68-.61,4.68-4.13l-.58-2.34L445.6,37l.58-.6h1.76a5,5,0,0,1,2.94,4.7v1.18l-.58.58.58.58v1.18q-1.4,0-2.94,3.52L445,50l-1.76-.58-.61.58v.58L439.74,50l-1.76.58a17.54,17.54,0,0,1-5.89-6.44V40l-.58-3.52,1.16-2.34L431.51,30l.58-2.37-1.18-1.15h-1.16l-2.37.58L425,26.49l-2.34.58-1.18-2.34,1.18-2.37.58.6h.58l2.94-.6.58.6,1.76-1.76,1.76.58V21.2l1.18-1.79-.58-.58v-.58l.58-2.94-.58-.58v-.61Q432.28,10.61,433.27,10.61Zm2.34,21.73v1.18l1.76-.61v-.58Z" transform="translate(-0.05 -0.02)"/><path class="cls-3" d="M467.22,22.38l.58.58h.58l2.31-.58q9.33,0,12.74,6.36v.58l-.58,1.73.58,1.76-.58,13.89,2.31.58,2.92-3.47q1.16,0,1.15,1.73,0,3.19-4.65,4.62a6.78,6.78,0,0,1-5.2-2.89h-.58L475.88,49l-.58-.58h-.58l-8.09,2.31q0-1.16-2.92-1.15-4.62-3.85-4.62-7h.58l-.58-.58v-.58q2.2-5.78,9.85-5.78v.58q9.82-2.31,11-4.62,0-2.7-5.81-5.81l-1.73.58-.58-.58q-5.2.58-5.2,1.73v1.15l.58.58q-1.18,3.49-2.31,3.49h-.61q-4,0-4-4.07,2.37-5.2,5.81-5.2ZM473.57,38H473l-.58-.58a19.22,19.22,0,0,1-7.51,1.15l-2.34,4.65q0,2.48,3.49,4.62l.58-.58h1.73l.58.58.58-.58h1.15l.58.58q2.17,0,9.27-5.23l-.58-.58v-5.2l-2.31-.58Z" transform="translate(-0.05 -0.02)"/><path class="cls-3" d="M519.13,21.34h.6l1.18,1.18.61-.58h.58q3.74,0,6,5.37v.58a5.22,5.22,0,0,1-2.39,4.76l-.61-.58-.58.58H522.7q-2.4-1-2.39-4.15,1.37,0,1.79-3-9.1,0-13.1,11.91v7.15q0,1,3.58,1.79l1.79-.6q8.34.6,8.34,2.39-.61,1.76-3.58,1.76l-8.94-.58-2.39.58v-.58l-.58.58h-9.55l-1.18-1.18V47l1.18-1.18h.6l.61.6.58-.6h4.79l1.18-4.18-.6-.58.6-4.18V32.07l-.6-2.39.6-.58v-.6q-1.18-3-3.58-3l-3.58.58-1.18-1.79V23.13l1.18-1.18H503a14.66,14.66,0,0,1,6.55,1.18l-.58,3v1.21h1.18Q510.18,24.67,519.13,21.34Z" transform="translate(-0.05 -0.02)"/></svg>