<svg xmlns="http://www.w3.org/2000/svg" viewBox="0 0 28.34 23.02"><defs><style>.a{fill:#e0d2c1;}</style></defs><title>social--twitter</title><path class="a" d="M28.38,5.44a12.17,12.17,0,0,1-2.91,3q0,.25,0,.76a16.5,16.5,0,0,1-.68,4.67,16.87,16.87,0,0,1-2.08,4.47,17.56,17.56,0,0,1-3.32,3.79,14.78,14.78,0,0,1-4.64,2.63,17,17,0,0,1-5.81,1A16.14,16.14,0,0,1,0,23.11a12.56,12.56,0,0,0,1.4.07A11.37,11.37,0,0,0,8.66,20.7a5.82,5.82,0,0,1-5.43-4,7.38,7.38,0,0,0,1.1.09,6,6,0,0,0,1.53-.2,5.71,5.71,0,0,1-3.34-2,5.61,5.61,0,0,1-1.32-3.7v-.07a5.76,5.76,0,0,0,2.63.74A5.8,5.8,0,0,1,1.93,9.46a5.65,5.65,0,0,1-.7-2.77A5.68,5.68,0,0,1,2,3.76a16.46,16.46,0,0,0,5.3,4.29A16.18,16.18,0,0,0,14,9.84a6.42,6.42,0,0,1-.14-1.33,5.6,5.6,0,0,1,1.7-4.11,5.82,5.82,0,0,1,8.35.13,11.38,11.38,0,0,0,3.69-1.4A5.64,5.64,0,0,1,25,6.33,11.56,11.56,0,0,0,28.38,5.44Z" transform="translate(-0.04 -2.7)"/></svg>