<svg id="Layer_1" data-name="Layer 1" xmlns="http://www.w3.org/2000/svg" viewBox="0 0 528.02 59.02"><defs><style>.cls-2{fill:#231f20}.cls-3{fill:#fff}</style></defs><path d="M60.54 21.58l-2.33.05-.06.17h-1.81l-1.69-.34h.17l-1.92.06h-1.92l.07.24-.17-.34h-1v.32l-.12-.28-.72.14-1.72-.12-.64.16-.09-.06H46l-1.63.18h-1.64l.2-.33h-.44l-1.65.33v.07l-.53-.07h-.43l.47-.27h-.58.14-.48l-.14.07-.07.06-.05-.08-.69-.07v.08l-.68-.07-.48-2-.15.1v.45l-.1-.94L37 19l-.11-.22-.14.58-.5-1.45.59.4-.28-.9-.87-1.5-.51-1.7.24-.09-.08-.19-.41-.43.34.07-.75-1.9-.67-1.97-.55-1.86h.15l-.51-1.38-.53-1.37-.14.15-.36-.84h.36l-.56-1.8h-.53l-.05-.85.3.43L30.7 0l-.38 1h-.23l-.13.4-.22 1.34-.17-.29-.23.62L29 4.44l-.54 1.31.34-.41L28.4 7l-.27-.12-.21.81.2-.17v-.39.41l-.12.22V8l.23.07-.07.51-.16.12.15-.14-.24-.56-.09 1.2.25-.2-.12.5-.15.19v-.15l-.32-.24-.28.8h.16l-.22.13-.34 1.5-.2-.06-.13.68v.45l-.42.31.54.48-.64.15.43.44-.41.41-.28-.13v1.1l-.46-.27v1.58l-.54.42.09-.2h-.11l-.07.2.18.09-.1 1.21-.38 1.18-.35.17-.39 1.06v.61l-.07-.23-.09.21h-1.52l-1.53-.13.54.15h-1.26l.31.05h-1.47l.41-.3-.8.16h-2.32l-.15.15h-.06l-.93.15-.06-.32-.24-.06-.53.42.36-.33h-2l-2-.19-2.19.41-.05-.31h-1.5l-1.5-.13-1.5.11h-.35v-.11H1.55L0 21.56l1.22.75 1.17.91 1.26.78h.07l-.21-.27.62.73h.24l-.14-.21 1.15.75-.72-.1.75.48 1.59.86 1.52 1.11-.15.33 1.17.87 1.24.77 1.19.82 1.8 1.18-.14.06h.93l-.71.21 1.1.77 1.13.71v-.2l.75.23-.1.4-.24-.13 1.62 1.22.35-.11.76.51-.94-.1.75.3-.4 1.27.07.06.17-1.14.09 1.26-.35.89h-.37v.22l.1 1 1.22.37 1.19.36-1.19-.36-1.29-.23-.25.18-.15-.16v-.08l-.37.73-.05.51-.25.18-.55 1.66.42-.45-.46 1.62-.16-.08-.49.85.13.09-.08.16-.11.54v.06h-.07l.09.46-.08.29-.17.43h-.06v-.09l-.08-.08-.21.67-.27 1h-.08v.13l-.15.45v.41l-.17.19-.2.25.55.39-.47.07.13.45-.25.39-.26-.11-.17.88h-.08l-.18.43-.1.87-.31.3-.1.14-.53 2.22h-.17l-.28.46.08.05-.38 1-.12.23-.19.58.88-.73.18.19.52-.36.84-.89-.17.4 1.44-.94 1.29-1.15-.28.35L17.79 53l.06.08.47-.54h-.15l-.16.33.29-.14.14-.23h.11v-.11l.05-.08-.14-.12.27-.45h.15v.11l-.38.46.1.07.5-.38.3-.58h-.23l.37-.19h.13-.06l.14.25 2-1.39.26-.15h.23l.17-.28.15-.16.15.07.29-.29-.06-.69.5.27v-.57l.59-.08.15.22.65-.81.18.29.38-.46.59-.49h.06l.56-.25.83-.91 1-.71.22.13.38-.39.18-.12.73-.6.31-.16.25-.22-.07-.06 1.31.42.73.7-.1.2.54.29 1 .63h-.38l1.3.75 1.2.84.9.86.34.3h.19l.69.68.09-.16v.06h.13l.48.18.11.12-.09-.17-.56-.13-.11.21.68.21.5.22-.13-.28.28.37.12-.21-.1.21v-.05l-.12.17 1.69 1.43.2.09.69.52.07.13.09-.1.29.28.57-.12-.21.26.2.26.44-.1.33.44-.19.24.41.26.51.13-.1.11 1.06.84.14-.15-.05.06 1.32 1.14.78.49 1.74 1.15-.41-1.19-.37-.74.17-.14-.15-.29-.46-.46.18-.12-.1-.71-.46-.8H48l-.3-1.25-.51-1.17-.36-1.22v-.08L46.7 49l-.17-.25-.08-.23.14-.23-.07-.16-.19.08v-.2l-.3.24-.25-.43.07-.26v.2l.44.41.21-.1-.35-.48-.47-.44-.05.31-.18-.46v-.19l.09.22.34-.17-.69-2.16h.22l-.17-.23v-.29l-.13-.2-.22-.14.13-.26-.1-.37-.8.07.42-.39-.59-.16.1-.55.35-.1-.4-.79.15-.11-.15-.35-.53-.72.14-.65v-.12l-.2.09-.64-1.43-.38-1 .25.88-.14-.58.16-.28-.23-1.12-.35-.6.32.15-.1-.22 1.18-.75-.54.18.86-.43.32-.23h-.52l1.21-.91-.11.5.52-.64 1.38-1L48 31l.07.15.07-.17.41-.45.09.25 1.58-1.31 1.66-1.19 1.43-1.19.09.21 1.23-1 .06.05 1.06-.74v-.08l.53-.65.25.14-.08.17 1.4-1.19-.11-.51.81-.29-.26.48 1.38-1.16 1.45-1-.29.14-.28.07zm-58.25.63h-.34H2l-.33-.09h-.2l.1-.08v-.3l.22.19.59-.32zm2.09 0l-.18-.43 1 .19zm2 2.59l.16.27zm0-2L6 22.53l.58-.36zm1.9 2l.16.27zm7.12-2.88l-.25-.21zm-6.97 5.77zm2-3.66l-.2-.21.59-.27 1 .13zm1.82-.26l.74.05h.37zm1.55 6.94h-.17.12l-.26-.12h-.14v-.18l.37.09v.13l.24-.21zm0 .21l.05-.18h.1zm-.39-7.14l1.74-.5zM15 31.87l.58-.38v.4zm0-.66l.77-.16zm.92-.06l.55-.21zm2.14-6.3v.06l-.06-.05v.05-.1h.06v.12zm0-.06v-.25l.19.21zm2 10.27l.16-.15zm.34 2.16l.2.31zm-4.59 10l-.38-.4.22-.73.38.34zm1.97-.22l-.11-.41.29.17zm.89-6.74l.49.1zm3.47-7.64h-.43l.36-.19zm-.37-.93L22 32zm-.19-1.47l-.54.28zm-.4 9.4l-.5-.05zm-1.67 1l.89.33zM21 50.31l-.6.58-.1-.61.69-.46zm-.42-9.17l.87.25zm.5-7.14l.36-.18zm.26 7.52h.53zm.41-7.16l-.18-.16zm.31 3.19L22 37.4h.21v.17zm0-3.84h-.48l.78-.19zm.22-.55l.22-.19zM23.49 22l-.71-.11zm-.67 10.84h-.21l.16-.37H23l-.05.21v-.23h-.1v.27zm0 .72l.43-.2zm.29 3.27l.37.13zm-.2-1.13zm.59 2.21l.22.06zM32 6.27l.54.36-.69-.06zM31.88 20h-.23l.1-.12zm0-14.67l-.24.08zm-.56 16.39l.17.09zm-.36-4.12l-.18-.2zm0-11l-.18-.2zm-.43-.26l.06.23zm0 11.66v.15l.2.29h-.27l.21-.08-.24-.16-.08.35-.56-.18.07-.36.06.16-.19-.07.32.2zm-.34 1h-.16l.06-.17zM30 17.58l.1-.07.18.1L30 18zm0-.41l-.07-.17.07.29h-.17zm-.19.27l.25.11v.2l-.21-.1h-.16l.18.17-.2-.07zm-.73-6.93l-.2-.18zm0 8.66l-.1.23zm-.72.35l.13.19-.17-.07zm0-.07l-.06.14-.13-.12zm-.95-9.21l.46.44-.31.75-.24-.43zm.11 24.33l-.77.12zm-.64-14.66l.17.09h-.24zm-.13-.4l-.21-.07zm-.75-3.3l.39.64zm.08 3.17l.19-.08zm.12.5l-.1.12-.1-.14zm-.1 1.53l1 .42-1.1-.37zm.56 13.24l-.46.05zm-.45-1.22zm-.68-15.73v.08l-.12.05.06-.17zm-.25-.1l.08.23zm-.74 20.18h-.27zM24 42.4l.49.08zm.29-4.46l.22-.08zm.12 4.61l.54.08zm.59-4.82h-.14.23zM24.72 21l.63.12zm1.21.37l-.72-.22zm-.37 1.53h.3zm.27 11.93h-.29zm1.81 7.77l.2.13zm-2.07-4.7l.1-.14 1.07.62 1 .63-1.05-.65zm2-3.29l1-.21zm.64 3l-.21-.15.09-.2-.11.18.13.06v-.14zm.06.67h.32zm.15-.65l.25-.07zm.14-.23l.2.06-.17.12zm.12.85l.59.09h-.66zm0-4l.48-.11zm1.11 4.71l-.79-.22zm0 1l-.08.12-1.18-.69zm-.4.69l.17-.5v.18l.18-.14.1-.17zm.91 2.78l-.08-.28.19.12zm-1-4.93l.29-.13 1.21.34 1.18.39-1.3-.44zm.21-4.38l-.36.16zm-.11-10.24l.07-.22.21.07-.06.13zm.63 11l.06-.26.17.06v.08zm.79.19l-.37-.07.29-.2-.05-.14H30.93zm-.24-.53l-.17-.24.31.22zm0 0v.26l-.21-.05-.13-.14zm.15 5h.33zm.47.22l.57.18zm.61.27l.55.14zm.38-.89h-.34zm-.08-5.28l.32-.22zm.15 6.42l.35-.05zm.25-5.74l.16.2zm0 .57l.2-.19v.17zm.2 2.88l-.08-.13h.16v.1zm.47-2.79v-.17.17-.09.1V35h.17zm-5.83-13.27v-.17l1.52.58 1.54.5 1.55.5 1.59.23-1.55-.22-1.56-.42-1.55-.45zm6.43 3.87l-.13-.18.17.07zm4.69-.8l-.26.14zM38 36.27v.22l-.28-.1.17-.08v-.09zm-.29 0l-.18-.14h.26v.11zm.17-.14l-.06.05-.11-.18zm-.41-14v.71zm.13 14.09l-.08.15h-.07l.09-.12zm-.2-10.13v-.11l.06.21h-.11zm0 16.28l-.18-.18zm-.27-2.93h.08l.09-.13-.37.27zm-.39-4.37l-.09.05-.11-.24zm-.21-1.73h-.29zm-.38-.34v-.22l.31.21v.23h-.11.1l-.14-.2zm-.36-11.1H36l-.18.13zm.07 18.81l.26-.35h.25v.16h-.1l-.28.12.09.17-.29.1zm-.25.2h.19l-.22.16zm.12 4.51h-.3l.23-.39h.13l-.17.08zm-.26-14.48h.07-.14l.06.07v-.15zm-.23 9.83h-.26.35zm-.08-9.3l-.2-.18h.26l.05.09zm.23 0l-.17.2zm-.09.08l.22.06-.16.07zm0 8.91l.15.3zM35.27 17l.18.07-.19.07zm-.09 13.54l.19.16-.05.11-.09.21v-.19l-.14-.22zm0 .57l-.22.06zm-.27 9.67l.48.34-.13-.12.14.07-.13.23-.27-.22v.15zm-.22-17.15v-.19l.14.16zm.11-2.69l-.61-.13.6-.36zm-.27 23.23l.18.34-.27-.2zm-.23-30.75l.34.49-.54-.27zm0 12.62l-.3-.16zm-.4 14.7h.33zm.55.12zm-.11 3.65v-.54zm.63.28h.1H35l-.15.19h.12v.15h-.2l-.05.11.22.08h-.16v.18l-.13-.73h-.27l.25-.22.07.13h.06l.11-.05-.25-.17.21-.3v.38l.19.33zm-.1-.19l-.07-.16v.14zm.5.7l-.27-.3.25-.15h.16l-.24.29h.23zm.19 1.59v-.27zm-.11-1.37h.28zm.22 1.14l.2.22zm.49-2.21l-.23-.2h.25zm.06 0l.42.11zm.42-.07l.07.35zm0 .79l.06-.3zm.36-1.58v.05l-.07.08-1.24-.28 1.25.21V43.53l.18.19zm1 3.05l.18.18zm.15 0l.22-.12zm-.95-3.04l1.66.07zm1.94.79l.25.29zm5.92 1l.38.7-.71-.05-.22-.74zm-1.51-1.57v-.08l.05.21-.07-.07v-.11zM42 32.16l-.1-.22zm-.6-10.23l.64.38-.55-.21-.17.1h-.18l.18.19h.46l-.17.24-.61-.24zM41.27 42v.08-.15l-.12-.13.44.28zm0 .32v-.23zm0-.36l-.27-.1zm.23-.55v.05h-.06l-.71-.17.7.16V41.33l.11.13zm-.48.5l-.19-.14H41zm-.25.57h-.22l.16-.23zm-.1-.15l-.18.11-.07-.2.14-.1v.17zm.08.23l-.21-.08zm-.11-2.63l.08-.14.06.07zm.18-.19l.13-.21h.19v.09h-.06l-.17.1.06.12h-.18zm.42-3.41l.19.17h-.14zm-.29-13.83l.14.12h.28l-.48.11zm-.11 9.23l-.09.2zm-.25 1.5v.1zm.52 2.42l-.66.26zm-.61 3.92l.12.22zm0 .24v-.05h-.18zm-.28 0l.29.17v.06l-.06-.1v.18l-.16-.12zm.07 2.31l-.2-.11zm-.16.06h.08l-.12.17zm0 .18v-.1.19l-.06-.08zM40 41.9l.1.25-.1-.07zm0-.05v-.11l.15.18zm-.11-17.95l.24.31-.35-.21zm.05 18.1v-.36zm-.33 7.28v-.06h-.06l.19.05zm.3-18l-.22-.1zm1 19.7l-.73-.4.55-.28.65.52zm-.39-3.07l.12-.1.06.2-.1-.17zM39.77 45l.14-.13 1 .65 1.06.58-1.08-.61zm2.42 1.19l.56.12zm.29 5.77h.28l-.3.1zm.11.15l.26-.05zm.13-.19L43 52zm.52-12.67l-.63.17-.22-.62zm-.69 2.25h-1zm-.76-8.17v-.62l.51.47zm.41-2.62l.14-.14zm.75-8.24v-.18l.18.15zm.22-.09h.29zm.17 1.73l.5-.56zm.95 8.59l.22.11zm1.27-6h-.32zm-.24 0l-.21-.08zm0 .37v-.06h-.07l-.1-.07h.19l.09.11zm.12.08l.19.26zm1.07-1.36l-.18-.16zm1.61-1.7l-.16-.22.15.1zm.31-.35h.18v.14zm3.49.37v-.28.34l-.07-.05zm-3.27 0l-.11-.17.3.12h-.09zm.13.37l-.11-.19.16.12zm0-.25l-.08-.09h.24v.12zm.84 4.37l.12.23-.2-.17zm-.06.25l.25.1zm.18-1h.3zm.14 1.15l.07-.16.12.2zm1-7.12l.34.17zm.64.28l.1-.19.18.28zm.48 2.46l-.25.05.05-.17h.12zm.14-.64L52 23.7zm0-.56l-.14-.15h.21zm0 .93l-.1-.35.25.28zm2.1.39h-.29zm-.13 1.37l-.11-.67.39.08zm.36-1.11l-.15-.23.21.12zm.05 0l.24.07zm0-2.37H54.69v.47l-.14-.26.09.63-.36-.54.17-.17-.16-.28.37.1zm.45.59v-.07h-.1v-.25l.17.3zm.24-.51H55l-.18-.12h.35-.15zm.1 1l-.09-.35z" transform="translate(-.05 -.02)" fill="#b3282d"/><path class="cls-2" d="M26 5.29a.1.1 0 010 .12v-.12zM25.69 5.33c0-.05.1 0 .08.06s-.05-.05-.08-.06zM25.92 5.43c0 .06-.07 0-.12 0s.05.02.12 0zM35.31 5.45h.08v.08c0 .01-.07-.05-.08-.08zM27.49 5.53h.08c.08 0 0 .1-.06.08s.01-.08-.02-.08zM28.68 5.55h0c-.08 0 0 0 0 0s-.04.01 0 0zM36 5.57a.11.11 0 00.08 0 .17.17 0 000 .12h-.06S36 5.61 36 5.57zM23.47 5.92s-.09.05-.12 0a.09.09 0 000-.06c.08 0 .06.07.12.06zM35.84 6.07h.08c.08 0 .06 0 0 .12s-.1-.01-.08-.12zM22.34 6.25v.12c0 .05-.03-.09 0-.12zM36.05 6.34s.08 0 .08.1-.13-.02-.08-.1zM22.38 6.48c.05 0 .06 0 .06.1s-.1-.06-.06-.1zM26.09 6.81c.09 0 .11.07.19 0s0 .13.08.14-.12 0-.1-.08-.08 0 0 0a.09.09 0 01-.17-.06zM26.29 7.12s.09 0 .08.08-.11 0-.08-.08zM31.91 7.7s-.06.08-.1 0 .07-.03.1 0zM30.76 8.64c.06 0 .06.06 0 .1s.01-.04 0-.1zM31 8.72s.08 0 .08.1-.08-.04-.08-.1zM21.54 10.06c.08 0 .05.09.08.14s0 .13 0 .18c-.17-.04-.01-.19-.08-.32zM21.45 10.12s.08 0 .08.06-.1 0-.08-.06zM29.4 12.1s.1 0 .1.08-.1-.03-.1-.08zM24.25 12.57c.13 0 0-.14.06-.23a.25.25 0 01.16.19c-.11-.05-.11.05-.22.04z" transform="translate(-.05 -.02)"/><path class="cls-2" d="M24.34 12.55v.12c0 .04 0 0 0 0s.03-.1 0-.12zM24.66 12.76c0-.05.1 0 .14 0-.09.06-.09.01-.14 0zM24.95 12.84a.13.13 0 000 .1h-.12c-.06 0 .07-.08 0-.16.11-.05.01.12.12.06zM26.23 13.34c.06 0 0 .12.06.17s-.04-.11-.06-.17zM25.2 14.43c.06 0 .15.07.18.14s-.11-.1-.18-.14zM36.94 16.84c0-.06.09 0 .14 0s-.08.03-.14 0zM22.56 17.08c0 .15-.16.15-.29.17.04-.09.16-.25.29-.17zM23.53 17.15a.16.16 0 01-.16.06c.02-.05.1-.04.16-.06zM23.14 17.21c.08.07-.19.1-.31.1.08-.06.22-.05.31-.1zM34.94 17.89s0 .09.1.08-.06 0-.1 0zM31 18.3c.07 0 .08 0 .08.1s-.08-.05-.08-.1zM26.19 18.44v.12c0 .05-.02-.11 0-.12zM30.41 19.57s.06 0 .06.08 0 0-.1 0 .04-.06.04-.08zM29.54 19.8c0 .08-.06.05-.08.1s.01-.12.08-.1zM22.61 20.11c.08 0 .14 0 .14.12s-.15-.03-.14-.12zM26.89 20.38H26.93c-.03 0-.01.01-.04 0zM31.87 20.42s.09 0 .08.08a.13.13 0 01-.1 0 .09.09 0 00.02-.08zM23.29 20.46c.08 0 .2 0 .27.08-.08.05-.19-.06-.27-.08zM27.65 20.46h.06c.06 0-.11.06-.12 0s.06.02.06 0zM8 21a.09.09 0 01-.1 0H8zM40.7 21h.06V21.04c0-.08-.06.03-.06-.04zM52.7 21.12a.07.07 0 01.06.12.11.11 0 01-.06-.12zM22.75 21.28c.06 0 .11 0 .1.06s-.11 0-.1-.06zM26.19 21.47c-.12.14-.36 0-.45-.12.13-.01.26.11.45.12zM26.19 21.53a1.32 1.32 0 01.54.14c-.15.07-.42-.06-.54-.14zM23.74 21.63a.38.38 0 01.16.12s-.17-.03-.16-.12zM27.79 22.05a6.5 6.5 0 01-1-.29c0-.06.12-.08.14 0a3.62 3.62 0 01.86.29zM31.46 22.05s0 .06.06.06-.12-.02-.06-.06zM28 22.11a37.32 37.32 0 005.46 1.52A24.27 24.27 0 0128 22.15v-.04zM35.41 22.19h.06c.06 0 0 .06-.08.06s.01-.03.02-.06zM41.71 22.54s.1 0 .1.06-.09.07-.14 0 .06 0 .04-.06zM41.86 22.56H42c.05 0-.11.02-.14 0zM49.76 23.4s-.05 0 0 .08-.08 0-.06-.08a.07.07 0 01.06 0zM30 23.71h.1c.04 0 0 .08 0 .12s-.1 0-.16 0 .06-.01.06-.12zM46.45 23.77h.06v.08c0 .01-.07-.03-.06-.08zM49.6 23.78c.06 0 .15.1.12.16s-.1-.08-.12-.16zM39 23.92a.18.18 0 01.12.21.23.23 0 00-.23-.12s.18-.01.11-.09zM49.74 24.06a.31.31 0 01.16.18s0 .08-.08.06-.05-.18-.08-.24zM46.76 24.29v-.1c0-.1.01.06 0 .1zM49.53 24.41h.06v.08c0 .08-.09 0-.18 0a.1.1 0 000-.06s.12.03.12-.02zM19.95 24.54c.06 0 0 .13.1.14a.06.06 0 01-.1 0 .19.19 0 000-.14zM19.83 24.66s0 .01 0 0zM9.72 24.72s.06.09.06.16-.04-.11-.06-.16zM51.64 24.72c.06 0 .07.05.12.06s-.06 0-.06.06a.21.21 0 01-.06-.12zM7.93 24.87a.42.42 0 01-.23.06c.04-.06.15-.04.23-.06zM33.58 25.46h.08c.03 0 0 0 0 .06a.09.09 0 01-.08-.06zM44.64 25.46c.05 0 .1 0 .08.06s-.08-.01-.08-.06zM52 26.33c-.07 0-.25.1-.27 0s.21-.12.27 0zM43.58 26.31h.1c.04 0-.13.08-.1 0z" transform="translate(-.05 -.02)"/><path class="cls-2" d="M51.64 26.33h.06c.06 0-.1 0 0 .06s-.07-.03-.06-.06zM43.89 26.39c0 .15-.13 0-.17 0s.08.06.17 0zM43.52 26.49h.17c.1 0 .05 0 0 .1s0-.07 0-.1-.08 0-.08 0 0-.06-.08 0 .01 0-.01 0zM43.83 26.76s.09.07.1.14-.15-.05-.1-.14zM47.43 28c.06 0 0 .09 0 .16s0-.1-.08-.14.07-.02.08-.02zM47.41 28.22c.07 0 .07.07.12.08s-.12-.03-.12-.08zM47.78 28.3s0 .08.08.1-.09 0-.12-.06.04-.02.04-.04zM16 29.68a.45.45 0 010 .12s0-.06.08 0v.08h-.12c-.02 0 0 .08 0 .12s.1-.07.1 0a.09.09 0 00-.08 0c-.05-.07-.19-.06-.19-.17a.11.11 0 01-.08 0v-.08-.06c0-.01.19-.01.29-.01zm-.08.16H16v-.08h-.1c-.1 0 .05.12.1.07zM16.31 29.93c0 .07-.07.06-.12.08v-.06c.06.05.07-.02.12-.02zM38.87 30.22s.1 0 .1.08-.06-.06-.1-.08zM35 30.51l-.12.08s.12-.09.12-.08zM35 30.67v-.08h.1c-.03.12-.1.02-.1.08zM39.82 30.78v.1c0-.04-.01-.06 0-.1zM40.81 31.1c-.06 0-.23 0-.08-.08s.09-.02.08.08zM42.84 31.58c0-.07 0 .08.08.08s-.06-.06-.08-.08zM39.61 32.09c.1-.11.15.11 0 0zM24.4 32.22a.32.32 0 01-.29.1c.09-.07.18-.05.29-.1zM27.09 32.26c.05 0 .09.1.12.06s-.13.02-.12-.06zM23.66 32.4c0 .09-.22.08-.27.08a.54.54 0 01-.33.08 2.83 2.83 0 01.6-.16zM32.53 32.46c0 .07-.17.06-.23.1s.18-.05.23-.1zM22.79 32.65c0 .08-.16 0-.23.08s.12-.09.23-.08zM29.93 32.85c0 .06-.17 0-.23.06s.14-.06.23-.06zM29.58 32.9c-.08 0-.31.16-.35.06.14.04.21-.06.35-.06zM29 33.06a3.85 3.85 0 01-.76.16 2.23 2.23 0 01.76-.16zM28.18 33.22a3.2 3.2 0 01-.6.08 2.28 2.28 0 01.6-.08zM32.65 33.2c.05 0 .06 0 .06.1s-.08-.04-.06-.1zM27.42 33.31a.4.4 0 01-.29 0 .42.42 0 01.29 0zM15.93 33.33c0-.06.13 0 .08.06s-.01-.06-.08-.06zM26.66 33.41a1.19 1.19 0 00-.23 0s.24-.1.23 0zM16.41 33.37s0 .07-.1.06.05-.06.1-.06zM32.78 33.59v.08c0 .02-.12 0-.16 0s.11-.06.16-.08zM21.86 33.62c.11 0-.08.09-.12 0s.12.06.12 0zM36.93 34.67c-.06-.06 0 0-.1 0s.09.05.1 0zM40.15 34.81c.06 0 .09 0 .08.08s-.05 0-.06 0-.01-.05-.02-.08zM22 35.59c0 .06.1.1.1.19-.01-.06-.1-.08-.1-.19zM29.11 35.72s.05 0 .08.06-.07 0-.08.06-.01-.06 0-.12zM29.11 35.88s-.09.05-.12 0 .08-.01.12 0zM25.39 36.09c0-.06.05 0 .14 0a.08.08 0 01-.14 0z" transform="translate(-.05 -.02)"/><path class="cls-2" d="M25.41 36.11c0 .06 0 0-.1 0s.08-.03.1 0zM28.86 36.46c0-.06.12 0 .17 0h-.17zM29.63 36.56a1.36 1.36 0 01-.51-.06h.06c.01 0 .33.06.45.06zM32.1 37.18c-.75-.23-1.47-.39-2.33-.56-.25-.05.14 0 .23 0a11.46 11.46 0 012.1.56zM39.53 37.63v.1c0 .1-.01-.05 0-.1zM39.65 37.88h.08c.08 0-.07.09-.08 0zM32.65 38.19c-.06.05-.14 0-.21 0s.12.02.21 0zM40.48 39.22a3 3 0 01.78.06 4.86 4.86 0 01-.78-.06zM39 39.46c.08 0 0 .14 0 .21v-.21z" transform="translate(-.05 -.02)"/><path class="cls-2" d="M39.12 39.52v.14c0 .04 0-.07-.1-.08s.13 0 .1-.06zM39.94 39.55v.1c0 .05-.06 0-.06-.08a.11.11 0 01.06-.02zM40.19 39.63v.12c0 .04-.02-.05 0-.12z" transform="translate(-.05 -.02)"/><path class="cls-2" d="M39.12 39.67c.09 0 0 .12 0 .15h-.06a.13.13 0 00.06-.15zM40 39.67a.57.57 0 00.16.06s-.16.01-.16-.06zM40.25 39.9c.07 0 0 .11 0 .1v-.1zM36.73 39.94c.06 0 .09 0 .08.08s-.09-.02-.08-.08zM39.22 40v.08c0 .03-.06 0-.06-.06s.06-.02.06-.02zM39.59 40.22c.06 0 0 .05.1 0s-.11.06-.1 0zM28.29 40.25c.07 0 0 .11.08.12s-.1-.04-.08-.12zM30.59 40.78s0 .1.12.06 0 .1-.08.1a.31.31 0 01-.04-.16zM34.51 41.95h.06c.06 0-.17.05-.06 0zM38.89 42.3h.06c.57.4 1.3.63 1.89 1a15.89 15.89 0 01-1.95-1zM37.57 43.77s-.06.08-.1 0 .05 0 .1 0zM37.33 43.81c.06 0 .09 0 .08.08s-.08-.02-.08-.08zM35.31 43.83c.07 0 .09 0 .1.12a.37.37 0 01-.1-.12zM35.25 43.85v.14a.75.75 0 010-.14zM32.71 44c.08 0 0 .09.14 0s-.11.08 0 .14c-.14.07-.12-.06-.14-.14zM32.59 44c.05 0 .07.06.06.14s-.05-.07-.06-.14zM35.76 46.28v.1c0 .1 0-.07-.08-.08s.05-.04.08-.02zM13.2 47.74h.33c.1 0-.3.08-.33 0zM41.65 48.46s-.14 0-.17-.08a.15.15 0 01.17.08zM41.4 48.46c0 .05-.1.05-.17.06s0 0 0-.08.12-.03.17.02z" transform="translate(-.05 -.02)"/><path class="cls-2" d="M41.48 48.5s-.07.08-.12 0 .08-.04.12 0zM39.22 48.58s.12 0 .12.08-.12-.02-.12-.08zM39.34 49.37c.07 0 0 .1 0 .1s-.01-.06 0-.1zM41.09 50.29c-.11 0 0 .17-.08.21s-.01-.3.08-.21zM41.18 50.4c.07 0 0 0 0 .1s0 0-.06 0 .06-.07.06-.1zM28.84 5.29s0 .06.06.08 0 0-.08 0 0 .1 0 .14-.16-.07-.23-.12.12 0 0 0h.1zM25.65 5.33s-.07.16-.12.12.1-.06.12-.12zM35.51 5.76l-.06-.12c.06-.07.1 0 .2 0a.2.2 0 00.15.18c-.07 0 0 .05-.06.1 0-.11-.13-.09-.14-.19s0 0-.06 0 .05 0 0 .1-.13-.05-.21-.06c.14.03.06-.04.18-.01zM35.33 6.21c.06.08.06 0 .14 0v.08a.13.13 0 010 .1s-.11-.1-.08 0-.07-.12-.06-.18zM35.68 6.3c.17.09-.08.12-.14.1s.11 0 .1-.08 0 0 0 .06l.04-.08zM26.25 6.77s.16-.07.14 0a.73.73 0 01-.14 0zM22.67 7.72v.04a.05.05 0 000-.04zM24.5 12.74a.26.26 0 01.14 0c0 .07 0 .08.06.12s0 0-.06 0 .16 0 .16.08 0 .1-.12.1-.07-.14-.14-.18 0-.08-.04-.12zM24.58 13.17h.18c0 .06-.07.07-.14.08s-.01-.08-.04-.08zM25 13.85a.19.19 0 01.14-.21c0 .1.05.1.06.18s-.18.08-.25 0-.01.03.05.03zM23.14 14.26c-.06 0 0 0 0 .08s-.07 0-.08-.1.07-.08.08.02zM26.33 18.5h.06v.1c0 .03 0 0 0 0s-.02-.04-.06-.1zM22.24 19.27c.36.26.72.69 1.11 1a6.32 6.32 0 01-1.11-1zM27.38 20s.15 0 .12.1-.08-.1-.12-.1zM27.14 20c.05 0-.21.16-.17 0s.16 0 .17 0zM28.78 20.05h.12c.06 0-.11.07-.1.12s-.02-.06-.02-.12zM21.74 20.07c.08 0 .12.15.21.17-.11.03-.12-.14-.21-.17zM29 20.11v.1c0 .1 0-.06-.08 0s.08-.06.08-.1zM22.91 20.25c.08 0 .13.11.25.08-.05.07-.22-.02-.25-.08zM22.23 20.58s.11.05.16.08-.12-.07-.16-.08zM24.17 21a1.6 1.6 0 01.35.27 1.07 1.07 0 01-.35-.27zM26.48 23c.05 0 .13.06.17.1zM34.42 23.63v-.06c.06 0 .05 0 .08.08s-.03-.04-.08-.02zM46.59 23.86c.05 0 .13.09.17.14s-.11-.06-.06 0-.06 0-.06 0 .03-.09-.05-.14zM49.47 24s.07-.07.06-.14 0 .14 0 .21 0 0-.06 0 .06-.07 0-.07zM46.06 23.92c.08 0 0 .06.08 0V24c-.06 0-.07 0-.08-.08zM46.71 24.06h.12c-.1.08.07 0 .06.12s-.09-.07-.17-.06.02-.06-.01-.06zM51.43 24.62c0-.05.14 0 .16 0s-.1-.01-.16 0zM51.8 24.83c0-.1.08 0 .1.06s-.03-.08-.1-.06zM7.68 24.93a2 2 0 01-.47.14 2.05 2.05 0 01.47-.14zM36.79 25.79a.06.06 0 010 .1s-.07-.06-.08 0 0-.05.08 0a.09.09 0 010-.1zM51.86 26H52s-.2-.07-.1 0-.06 0-.04 0zM49.6 28.55a.05.05 0 000 .06s-.09 0-.08.06-.08 0-.1-.1.1-.01.18-.02zM41 29.81c-.06-.06.09 0 .1 0s-.1.05-.1 0zM35.06 30H35s0 .06.08.06h-.1a.31.31 0 01.08-.06zM34.84 30.16s-.06.11-.12.06.08-.04.12-.06zM15.77 30.38a.16.16 0 01.12 0v-.06c0-.06.13 0 .21 0h-.06c.06 0-.1 0-.14.14h-.06s.09 0 .06-.08-.11.07-.16 0 0 .05 0 .08h.06c0 .05-.05.05-.08.08a3.09 3.09 0 00-.17-.35c.06.05.26.07.22.19zM34.84 30.49c-.05 0-.07-.08-.1-.12s.11.06.16 0a.09.09 0 010 .08l-.06.04zM15.94 31.6c.07 0 .19.1.27.16-.07.01-.21-.13-.27-.16zM35.93 32.09c-.08-.07-.18-.28-.14-.17s-.07.11-.06 0 .08-.06 0-.15.11.13.19.15a.55.55 0 000 .2c0 .06-.08 0-.12.06s.09-.1.13-.09zM23.8 31.93l-.18.08c.03-.01.11-.07.18-.08zM16.51 32c.08 0 .19.11.27.16-.08-.02-.18-.16-.27-.16zM35.89 32.18h.16c.09 0-.11.04-.16 0zM23 33c.09 0 .47.07.12 0H23zM16 33.49c-.07.06-.2.06-.29.1s.2-.09.29-.1zM33.15 33.55h.12c.02 0 0 .13-.06.16s0-.07 0-.16 0 0-.06 0 0 .11 0 .14h-.06c.04-.02.1-.13.06-.14zM37.08 34.46c.06-.05.11.07.12.14s-.07-.05-.08 0 .07-.14-.04-.14zM37 34.66h.16c.03 0 0 0 0 .1s-.1 0-.08 0-.08-.07-.08-.1z" transform="translate(-.05 -.02)"/><path class="cls-2" d="M37.06 34.81s.1 0 .14-.06-.05 0 0-.08.07 0 .1.08-.07.07-.06.15-.09-.1-.18-.09zM24.36 35.2c.1 0 .15.13.23.16s-.15-.12-.23-.16zM28.76 35.84a.15.15 0 01-.18-.08c0-.07.07-.09.06-.18s0 .09 0 .14V35.7c0-.08.11.12.06.16s.05-.02.06-.02zM25.88 35.94H26c-.01 0-.08-.06-.1 0s.02 0-.02 0zM24.83 36.11h-.14c-.05 0 .15-.11.14 0zM26.48 36.09a17.54 17.54 0 011.89 1c-.56-.29-1.27-.64-1.89-1zM32.78 36.15a.09.09 0 01.06 0v.08c0 .01-.01-.1-.06-.08zM29.56 36.85a3.84 3.84 0 01.58.21 3.27 3.27 0 01-.58-.21zM32.12 37.18h.19c.06 0-.15.03-.19 0zM36.61 37.51c.06 0 0 0 0 .06s0-.08.1-.08 0-.1.1-.1a1.25 1.25 0 01-.29.31s.06-.13.09-.19zM29.07 37.43a4.5 4.5 0 011.07.53c-.38-.17-.72-.35-1.07-.53zM31.07 37.51c0-.05.14 0 .19.06s-.11-.07-.19-.06zM40 37.75h-.14c-.09 0 0 0 0 .06s-.07.06-.14.06.13-.06.06-.12c.08 0 .16-.06.16-.17a.11.11 0 00.08 0v.08c-.02.01-.02.06-.02.09zM31.5 37.73a1.72 1.72 0 01.39.17c-.12.01-.27-.12-.39-.17zM39.38 37.78c0-.05.15-.09.14 0s-.12 0-.06 0-.04-.02-.08 0zM39.36 37.94v.08c0 .08-.11-.14-.06-.21 0 .14.16.12.23.19l-.08-.08h.12c.05 0-.05.13-.12.16s-.09-.08-.09-.14zM32 38a3.86 3.86 0 01.39.14A.64.64 0 0132 38zM33.76 38.6s.15 0 .19.06-.14-.04-.19-.06zM34 38.68s.16 0 .21.06-.21-.05-.21-.06zM40.48 39.28c-.07 0-.06-.06-.1-.08s0 0 0 .08c-.12-.14-.45-.07-.64-.14.26 0 .65-.02.74.14zM39.24 39.77c.06 0 .07 0 .1.06s-.13.01-.1-.06z" transform="translate(-.05 -.02)"/><path class="cls-2" d="M39.26 39.87s0 .13.06 0 0 .07-.12.06.08.01.06-.06zM39.53 39.87a.11.11 0 00.08 0c0 .06-.08.08-.08.14s.05 0 .08 0h-.06s-.09 0-.12-.12.09.11.1-.02zM39.74 39.92s0 .16-.08.1 0 .06 0 .12-.06 0-.1 0a.84.84 0 00.08-.19s.1 0 .1-.03zM42.14 41.38a.09.09 0 010 .1s.05-.08 0-.1zM38.34 41.85c0 .06.12.08.14.18-.04-.03-.12-.1-.14-.18zM41.4 43.48c-.12 0-.28-.09-.39-.14.05-.02.26.12.39.14zM38.79 46c0-.08-.06-.09-.12-.06s.16 0 .16.06 0 .07-.08 0 .03 0 .04 0zM39 49.08c.06 0 0 .06.06.06s-.08 0-.06.12-.06-.09-.06-.16V49.08c0-.03.09-.08.14 0s0-.08 0-.14v.14c0 .03 0 0 .08 0s0 0 0 .06S39 49 39 49.08zM41.14 50.25c.06 0 0 .08 0 .14s0 0-.08.06.13-.09.08-.2zM34.77 29.74h.06c.06 0 .06 0 .12.12s0 .07 0 .1 0 .12-.06.19a.28.28 0 01-.1-.14h.06s.01-.22-.08-.27zM24.71 34.13c-.1-.06-.31.07-.54 0 .01-.04.6-.13.54 0zM34.55 42.35v.29c0 .12-.12 0-.06.06-.19 0-.11-.38-.18-.6.05 0 .09 0 .06-.1s.05.06.1.08.06-.08.14 0 0-.18-.16-.18 0-.2.12-.21c0 .17.19.15.18.33-.06 0 0-.09-.1-.1s.08.19.14.31-.05-.05-.08-.08a.3.3 0 000 .29c-.13 0-.12-.07-.16-.09zM31.3 2.35l.2.1c-.06.09-.22 0-.2-.1zM30.56 2.55c.05-.1.15 0 .23 0-.07.08-.15.05-.23 0zM27.11 4.36c.07 0 .05.15.17.13s-.1 0-.17 0zM36.73 8.14h.1c0 .09-.06.14-.17.13s.11-.02.07-.13zM21.81 8.71c.08 0 .16 0 .13.13a.22.22 0 01-.17 0 .15.15 0 00.04-.13zM37 9.79h.1v.07c0-.05-.1-.03-.1-.07zM27.91 11.76h.1c.04 0 0 .11-.13.1s.02-.05.03-.1zM34.11 14.75a.31.31 0 01.2.37.4.4 0 00-.4-.2c.09-.08.31-.01.2-.17zM24.76 17.39h.13c.04 0-.06.05-.07.1a.15.15 0 01-.06-.1zM30.53 18.33s0 .07.07.07c-.12.08-.14.26-.27.34 0-.12.09-.18.07-.34.07.01.15.08.13-.07zM48.62 21.78c.11.06 0 .15.07.27-.08 0-.08-.17-.13-.23s.06-.01.06-.04zM17.69 21.92c.05 0 0 .11.13.07s-.16 0-.13.07 0-.06 0-.1v-.04zM17.39 22.05c.09 0 .14 0 .13.1s-.14-.01-.13-.1zM48.59 22.15c.12 0 .11.11.2.13-.07.1-.2-.04-.2-.13zM49.23 22.29c.06 0 .07.13.13.17s-.15-.07-.2-.1.07-.03.07-.07zM52.45 23.49c.12 0 0 .1 0 .2s-.03-.11 0-.2zM33.88 25.61c.05-.08.17.05.17.13s-.05-.11-.17-.13zM47.55 27.38c.07.07.1 0 .2 0s-.25.11-.2 0zM8.94 29.06a.54.54 0 01-.5.17c.15-.12.31-.09.5-.17zM13.57 29.12c.09 0 .16.17.2.1.1.17-.21.04-.2-.1zM23 29.46c.07.13-.3.11-.4.17 0-.15.26-.08.4-.17zM18.46 30.13c-.07.1-.29 0-.4.1.05-.12.25-.09.4-.1zM17.86 30.23c-.14.07-.53.28-.6.1.24.01.36-.1.6-.1zM16.85 30.5a6.63 6.63 0 01-1.31.27 3.87 3.87 0 011.31-.27zM15.44 30.77a5.5 5.5 0 01-1 .13 3.92 3.92 0 011-.13zM23.15 30.73c.09 0 .1.08.1.17a.12.12 0 01-.1-.17zM14.14 30.93a.7.7 0 01-.5 0 .72.72 0 01.5 0zM12.83 31.1a2 2 0 00-.4 0s.41-.18.4 0zM23.39 31.4c.08 0-.06.1 0 .13s-.21 0-.27 0 .18-.09.27-.13zM30.53 33.28h.07v.07c-.1-.1-.06.08-.17.07s.09-.06.1-.14zM36.09 33.51q.16 0 .13.13s-.09-.05-.1 0-.02-.07-.03-.13zM17.05 35.09c.07 0 .09.07.13.1s-.12 0-.13.1-.05-.1 0-.2zM17.05 35.36s-.15.09-.2 0 .15-.02.2 0zM16.62 36.36c.07-.1.21 0 .3 0-.07.1-.21-.01-.3 0zM18 36.53a2.34 2.34 0 01-.87-.1c-.3-.06.09 0 .1 0s.52.09.77.1zM22.21 37.6c-1.29-.39-2.53-.66-4-1-.44-.09.24 0 .4 0a20 20 0 013.6 1zM35 38.37c.07 0 .07.08.07.17s-.07-.08-.07-.17zM35.22 38.81c.07.06 0 0 .13 0s-.11.15-.13.07zM23.15 39.35c-.1.09-.24-.05-.37 0 .06-.18.22.02.37 0zM36.66 41.12a5 5 0 011.34.1 8.56 8.56 0 01-1.34-.1zM34.15 41.52c.13 0 0 .24 0 .37-.15-.08-.02-.24 0-.37z" transform="translate(-.05 -.02)"/><path class="cls-2" d="M34.31 41.63c.06 0 0 .17.07.23s-.07-.13-.17-.13.16.01.1-.1zM35.72 41.69v.17c0 .08-.11-.05-.1-.13a.19.19 0 01.1-.04zM36.16 41.83c.07 0 0 .14 0 .2-.1-.03-.04-.09 0-.2zM34.31 41.89c.15 0 0 .2 0 .27a.16.16 0 00-.1 0 .23.23 0 00.1-.27zM35.79 41.89a.87.87 0 00.27.1c-.06.08-.29.01-.27-.1zM36.26 42.3c.12 0 0 .18-.07.17s.07-.09.07-.17zM30.19 42.36c.1 0 .15 0 .13.13s-.14-.02-.13-.13zM34.48 42.46c.08 0 .08.09 0 .13s-.11 0-.1-.1.09 0 .1-.03zM35.12 42.83c.1 0 .06.09.17.07s-.18.04-.17-.07zM15.65 42.9c.13 0 0 .19.13.2-.07.09-.17-.1-.13-.2zM19.6 43.8c.07.06.08.17.2.1s0 .17-.13.17a.52.52 0 01-.07-.27zM33.91 46.42h.1c1 .69 2.25 1.09 3.25 1.74a27.24 27.24 0 01-3.35-1.74zM30.73 2.68v.13c-.16 0-.26.08-.3-.17.21.23.11 0 .37 0-.06.17.36 0 .44.17s-.08 0-.17 0-.06 0-.07.07.16 0 .13.17c-.19-.08-.05 0-.23 0C31 3 31 3 31 2.88s-.11 0-.17 0 0-.06 0-.07 0 0 .07 0-.09-.13-.17-.13zM31.93 3.38H32c0 .1-.09.15.07.13s0 .15-.13.13.11-.15-.01-.26zM26.2 14.24v-.1c.1 0 .09.09.13.13s-.04-.06-.13-.03zM30.29 18a.11.11 0 010 .17c-.06 0-.11-.1-.13 0s.06-.09.13-.07a.16.16 0 010-.1z" transform="translate(-.05 -.02)"/><path class="cls-2" d="M30 18.53c0-.16.21-.12.17-.27s.07 0 .13 0c-.16.08 0 .1 0 .23s-.06-.09-.17-.07 0 0-.07 0 0 .11.1.1-.08.01-.16.01zM30.19 18.83a.38.38 0 00.2.23c.24-.13.12-.25.4-.3 0 .08 0 .13-.07.13.09.05.21.09.23.2s-.16.08-.23 0 .06 0 .1-.07-.13 0-.13-.13c-.08 0-.07.15-.07.27a2.19 2.19 0 00-.47-.13c.06-.11-.09-.18.07-.27s0 .06.1.07-.05-.04-.13 0zM21.41 20.64c-.06 0-.2-.12-.13 0s0 0-.07 0 .23-.15.2 0zM40.31 22.22c.16.09.39.1.47.27-.11-.1-.3 0-.4-.17 0 .05-.15.26-.17.1h-.07a.09.09 0 00.07.1c.15-.17.28.05.4 0 0 .11-.1.1-.13.17a.86.86 0 00-.47-.17c-.01-.15.28-.11.3-.3zM52 22.66c.08.1-.19.08-.23.1s.06.05.07.1 0-.08.1-.07c.06.19-.05.2 0 .4-.07 0-.14-.1-.07-.17-.16.15 0 .39 0 .5-.26.1-.18-.37-.3-.5s.1-.08.13-.13-.16-.06-.13-.2c.19.06.28-.16.37 0 .06.01.06-.01.06-.03zM39.84 22.89c-.11-.06 0-.14.07-.17s.08.06.07.13.16-.17.27-.07c-.05.22-.31.03-.41.11zM52.38 22.72h-.07a.09.09 0 00.07.1c0 .07-.15 0-.13.1.05-.11-.13-.06-.17-.17.17.11.15-.01.3-.03zM52.21 23.16c-.08 0-.1-.06-.13 0s0 0 0-.17a1.05 1.05 0 01.23.23h-.1zM37.56 24.9c-.1-.1.15.08.17 0 .11.1-.11.1-.17 0zM24 31.34c-.07-.07.16 0 .2 0s.08.22-.1.27c.05-.12.08-.11 0-.27s-.06 0-.1 0 0 .19 0 .23c0-.02.1-.21 0-.23zM30.79 32.91c.11-.09.19.13.2.24s-.13-.09-.13 0 .14-.23-.07-.24zM30.63 33.25c.07 0 .22-.07.27 0s-.06.07 0 .17-.18-.07-.13 0-.14-.11-.14-.17z" transform="translate(-.05 -.02)"/><path class="cls-2" d="M30.76 33.51c0-.08.18 0 .23-.1s-.09 0-.07-.13.06 0 .07-.07.12.08.17.14-.12.12-.1.27c-.11-.02-.15-.12-.3-.11zM16.45 35.29a.26.26 0 01-.3-.13c0-.13.11-.16.1-.3.1.05 0 .15 0 .23s.06.05.07.1 0-.08 0-.13.2.2.1.27.01-.04.03-.04zM23.39 35.83v-.07a.16.16 0 01.1 0c0 .08 0 .13.07.13s-.09-.09-.17-.06zM17.82 37a6.62 6.62 0 011 .37 5.52 5.52 0 01-1-.37zM22.25 37.6c.07-.07.22.07.34.07-.06.06-.27-.02-.34-.07zM30 38.17c.1 0-.05.05 0 .1s.07-.13.17-.13c-.12 0 0-.17.17-.17a2.12 2.12 0 01-.5.54c-.06-.06.09-.24.16-.34zM17 38a7.78 7.78 0 011.84.9c-.67-.24-1.26-.55-1.84-.9zM20.44 38.17c0-.09.25.07.34.1-.12.1-.2-.11-.34-.1zM35.79 38.57c-.12-.07-.09 0-.23 0 0 0 .08 0 .07.1s-.12.1-.24.1.23-.11.1-.2c.13-.06.28-.1.27-.3a.2.2 0 00.13 0v.13c-.11.05-.02.12-.1.17zM21.18 38.54a3 3 0 01.67.3c-.22.02-.46-.21-.67-.3zM34.75 38.64c0-.09.26-.15.23 0h-.1c.1 0-.05-.04-.13 0zM34.72 38.91v.13c0 .05-.18-.24-.1-.37 0 .23.28.22.4.33s0 0 .07 0a.81.81 0 01-.13-.13c0-.06.11 0 .2 0 0 .18-.09.22-.2.27.04-.22-.23-.14-.24-.23zM22.08 39a7 7 0 01.67.23 1.1 1.1 0 01-.67-.23zM25.06 40.05c0-.06.26.06.33.1s-.23-.07-.33-.1zM25.43 40.18c.06 0 .28.05.37.1-.08.06-.25-.08-.37-.1zM36.66 41.22c-.11 0-.1-.1-.17-.13s0 .08 0 .13c-.21-.23-.78-.12-1.11-.23.4.01 1.12-.05 1.28.23zM34.51 42.06c.1 0 .12.06.17.1s-.22.03-.17-.1zM34.55 42.23c.08 0 0 .23.1.07.17.07-.07.13-.2.1s.13-.05.1-.17zM35 42.23a.19.19 0 00.13 0c-.07.1-.13.14-.13.24s.09 0 .13 0-.1 0-.1.07c-.06-.15-.15-.05-.2-.2.17.04.17.05.17-.11zM35.39 42.33s0 .27-.13.17c0 .12.08.09.07.2s-.1.06-.17 0a1.48 1.48 0 00.13-.34s.09.01.1-.03zM39.51 44.84a.16.16 0 01.07.17s-.06 0-.07-.07.09-.07 0-.1zM33 45.65c.08.1.21.15.23.3-.09-.12-.23-.16-.23-.3zM38.23 48.46c-.2 0-.48-.15-.67-.24.09-.04.44.2.67.24zM31.3 2.35l.2.1c-.06.09-.22 0-.2-.1zM30.56 2.55c.05-.1.15 0 .23 0-.07.08-.15.05-.23 0zM27.11 4.36c.07 0 .05.15.17.13s-.1 0-.17 0zM36.73 8.14h.1c0 .09-.06.14-.17.13s.11-.02.07-.13zM21.81 8.71c.08 0 .16 0 .13.13a.22.22 0 01-.17 0 .15.15 0 00.04-.13zM37 9.79h.1v.07c0-.05-.1-.03-.1-.07zM27.91 11.76h.1c.04 0 0 .11-.13.1s.02-.05.03-.1zM34.11 14.75a.31.31 0 01.2.37.4.4 0 00-.4-.2c.09-.08.31-.01.2-.17zM24.76 17.39h.13c.04 0-.06.05-.07.1a.15.15 0 01-.06-.1zM30.53 18.33s0 .07.07.07c-.12.08-.14.26-.27.34 0-.12.09-.18.07-.34.07.01.15.08.13-.07zM48.62 21.78c.11.06 0 .15.07.27-.08 0-.08-.17-.13-.23s.06-.01.06-.04zM17.69 21.92c.05 0 0 .11.13.07s-.16 0-.13.07 0-.06 0-.1v-.04zM17.39 22.05c.09 0 .14 0 .13.1s-.14-.01-.13-.1zM48.59 22.15c.12 0 .11.11.2.13-.07.1-.2-.04-.2-.13zM49.23 22.29c.06 0 .07.13.13.17s-.15-.07-.2-.1.07-.03.07-.07zM52.45 23.49c.12 0 0 .1 0 .2s-.03-.11 0-.2zM33.88 25.61c.05-.08.17.05.17.13s-.05-.11-.17-.13zM47.55 27.38c.07.07.1 0 .2 0s-.25.11-.2 0zM8.94 29.06a.54.54 0 01-.5.17c.15-.12.31-.09.5-.17zM13.57 29.12c.09 0 .16.17.2.1.1.17-.21.04-.2-.1zM23 29.46c.07.13-.3.11-.4.17 0-.15.26-.08.4-.17zM18.46 30.13c-.07.1-.29 0-.4.1.05-.12.25-.09.4-.1zM17.86 30.23c-.14.07-.53.28-.6.1.24.01.36-.1.6-.1zM16.85 30.5a6.63 6.63 0 01-1.31.27 3.87 3.87 0 011.31-.27zM15.44 30.77a5.5 5.5 0 01-1 .13 3.92 3.92 0 011-.13zM23.15 30.73c.09 0 .1.08.1.17a.12.12 0 01-.1-.17zM14.14 30.93a.7.7 0 01-.5 0 .72.72 0 01.5 0zM12.83 31.1a2 2 0 00-.4 0s.41-.18.4 0zM23.39 31.4c.08 0-.06.1 0 .13s-.21 0-.27 0 .18-.09.27-.13zM30.53 33.28h.07v.07c-.1-.1-.06.08-.17.07s.09-.06.1-.14zM36.09 33.51q.16 0 .13.13s-.09-.05-.1 0-.02-.07-.03-.13zM17.05 35.09c.07 0 .09.07.13.1s-.12 0-.13.1-.05-.1 0-.2zM17.05 35.36s-.15.09-.2 0 .15-.02.2 0zM16.62 36.36c.07-.1.21 0 .3 0-.07.1-.21-.01-.3 0zM18 36.53a2.34 2.34 0 01-.87-.1c-.3-.06.09 0 .1 0s.52.09.77.1zM22.21 37.6c-1.29-.39-2.53-.66-4-1-.44-.09.24 0 .4 0a20 20 0 013.6 1zM35 38.37c.07 0 .07.08.07.17s-.07-.08-.07-.17zM35.22 38.81c.07.06 0 0 .13 0s-.11.15-.13.07zM23.15 39.35c-.1.09-.24-.05-.37 0 .06-.18.22.02.37 0zM36.66 41.12a5 5 0 011.34.1 8.56 8.56 0 01-1.34-.1zM34.15 41.52c.13 0 0 .24 0 .37-.15-.08-.02-.24 0-.37z" transform="translate(-.05 -.02)"/><path class="cls-2" d="M34.31 41.63c.06 0 0 .17.07.23s-.07-.13-.17-.13.16.01.1-.1zM35.72 41.69v.17c0 .08-.11-.05-.1-.13a.19.19 0 01.1-.04zM36.16 41.83c.07 0 0 .14 0 .2-.1-.03-.04-.09 0-.2zM34.31 41.89c.15 0 0 .2 0 .27a.16.16 0 00-.1 0 .23.23 0 00.1-.27zM35.79 41.89a.87.87 0 00.27.1c-.06.08-.29.01-.27-.1zM36.26 42.3c.12 0 0 .18-.07.17s.07-.09.07-.17zM30.19 42.36c.1 0 .15 0 .13.13s-.14-.02-.13-.13zM34.48 42.46c.08 0 .08.09 0 .13s-.11 0-.1-.1.09 0 .1-.03zM35.12 42.83c.1 0 .06.09.17.07s-.18.04-.17-.07zM15.65 42.9c.13 0 0 .19.13.2-.07.09-.17-.1-.13-.2zM19.6 43.8c.07.06.08.17.2.1s0 .17-.13.17a.52.52 0 01-.07-.27zM33.91 46.42h.1c1 .69 2.25 1.09 3.25 1.74a27.24 27.24 0 01-3.35-1.74zM30.73 2.68v.13c-.16 0-.26.08-.3-.17.21.23.11 0 .37 0-.06.17.36 0 .44.17s-.08 0-.17 0-.06 0-.07.07.16 0 .13.17c-.19-.08-.05 0-.23 0C31 3 31 3 31 2.88s-.11 0-.17 0 0-.06 0-.07 0 0 .07 0-.09-.13-.17-.13zM31.93 3.38H32c0 .1-.09.15.07.13s0 .15-.13.13.11-.15-.01-.26zM26.2 14.24v-.1c.1 0 .09.09.13.13s-.04-.06-.13-.03zM30.29 18a.11.11 0 010 .17c-.06 0-.11-.1-.13 0s.06-.09.13-.07a.16.16 0 010-.1z" transform="translate(-.05 -.02)"/><path class="cls-2" d="M30 18.53c0-.16.21-.12.17-.27s.07 0 .13 0c-.16.08 0 .1 0 .23s-.06-.09-.17-.07 0 0-.07 0 0 .11.1.1-.08.01-.16.01zM30.19 18.83a.38.38 0 00.2.23c.24-.13.12-.25.4-.3 0 .08 0 .13-.07.13.09.05.21.09.23.2s-.16.08-.23 0 .06 0 .1-.07-.13 0-.13-.13c-.08 0-.07.15-.07.27a2.19 2.19 0 00-.47-.13c.06-.11-.09-.18.07-.27s0 .06.1.07-.05-.04-.13 0zM21.41 20.64c-.06 0-.2-.12-.13 0s0 0-.07 0 .23-.15.2 0zM40.31 22.22c.16.09.39.1.47.27-.11-.1-.3 0-.4-.17 0 .05-.15.26-.17.1h-.07a.09.09 0 00.07.1c.15-.17.28.05.4 0 0 .11-.1.1-.13.17a.86.86 0 00-.47-.17c-.01-.15.28-.11.3-.3zM52 22.66c.08.1-.19.08-.23.1s.06.05.07.1 0-.08.1-.07c.06.19-.05.2 0 .4-.07 0-.14-.1-.07-.17-.16.15 0 .39 0 .5-.26.1-.18-.37-.3-.5s.1-.08.13-.13-.16-.06-.13-.2c.19.06.28-.16.37 0 .06.01.06-.01.06-.03zM39.84 22.89c-.11-.06 0-.14.07-.17s.08.06.07.13.16-.17.27-.07c-.05.22-.31.03-.41.11zM52.38 22.72h-.07a.09.09 0 00.07.1c0 .07-.15 0-.13.1.05-.11-.13-.06-.17-.17.17.11.15-.01.3-.03zM52.21 23.16c-.08 0-.1-.06-.13 0s0 0 0-.17a1.05 1.05 0 01.23.23h-.1zM37.56 24.9c-.1-.1.15.08.17 0 .11.1-.11.1-.17 0zM24 31.34c-.07-.07.16 0 .2 0s.08.22-.1.27c.05-.12.08-.11 0-.27s-.06 0-.1 0 0 .19 0 .23c0-.02.1-.21 0-.23zM30.79 32.91c.11-.09.19.13.2.24s-.13-.09-.13 0 .14-.23-.07-.24zM30.63 33.25c.07 0 .22-.07.27 0s-.06.07 0 .17-.18-.07-.13 0-.14-.11-.14-.17z" transform="translate(-.05 -.02)"/><path class="cls-2" d="M30.76 33.51c0-.08.18 0 .23-.1s-.09 0-.07-.13.06 0 .07-.07.12.08.17.14-.12.12-.1.27c-.11-.02-.15-.12-.3-.11zM16.45 35.29a.26.26 0 01-.3-.13c0-.13.11-.16.1-.3.1.05 0 .15 0 .23s.06.05.07.1 0-.08 0-.13.2.2.1.27.01-.04.03-.04zM23.39 35.83v-.07a.16.16 0 01.1 0c0 .08 0 .13.07.13s-.09-.09-.17-.06zM17.82 37a6.62 6.62 0 011 .37 5.52 5.52 0 01-1-.37zM22.25 37.6c.07-.07.22.07.34.07-.06.06-.27-.02-.34-.07zM30 38.17c.1 0-.05.05 0 .1s.07-.13.17-.13c-.12 0 0-.17.17-.17a2.12 2.12 0 01-.5.54c-.06-.06.09-.24.16-.34zM17 38a7.78 7.78 0 011.84.9c-.67-.24-1.26-.55-1.84-.9zM20.44 38.17c0-.09.25.07.34.1-.12.1-.2-.11-.34-.1zM35.79 38.57c-.12-.07-.09 0-.23 0 0 0 .08 0 .07.1s-.12.1-.24.1.23-.11.1-.2c.13-.06.28-.1.27-.3a.2.2 0 00.13 0v.13c-.11.05-.02.12-.1.17zM21.18 38.54a3 3 0 01.67.3c-.22.02-.46-.21-.67-.3zM34.75 38.64c0-.09.26-.15.23 0h-.1c.1 0-.05-.04-.13 0zM34.72 38.91v.13c0 .05-.18-.24-.1-.37 0 .23.28.22.4.33s0 0 .07 0a.81.81 0 01-.13-.13c0-.06.11 0 .2 0 0 .18-.09.22-.2.27.04-.22-.23-.14-.24-.23zM22.08 39a7 7 0 01.67.23 1.1 1.1 0 01-.67-.23zM25.06 40.05c0-.06.26.06.33.1s-.23-.07-.33-.1zM25.43 40.18c.06 0 .28.05.37.1-.08.06-.25-.08-.37-.1zM36.66 41.22c-.11 0-.1-.1-.17-.13s0 .08 0 .13c-.21-.23-.78-.12-1.11-.23.4.01 1.12-.05 1.28.23zM34.51 42.06c.1 0 .12.06.17.1s-.22.03-.17-.1zM34.55 42.23c.08 0 0 .23.1.07.17.07-.07.13-.2.1s.13-.05.1-.17zM35 42.23a.19.19 0 00.13 0c-.07.1-.13.14-.13.24s.09 0 .13 0-.1 0-.1.07c-.06-.15-.15-.05-.2-.2.17.04.17.05.17-.11zM35.39 42.33s0 .27-.13.17c0 .12.08.09.07.2s-.1.06-.17 0a1.48 1.48 0 00.13-.34s.09.01.1-.03zM39.51 44.84a.16.16 0 01.07.17s-.06 0-.07-.07.09-.07 0-.1zM33 45.65c.08.1.21.15.23.3-.09-.12-.23-.16-.23-.3zM38.23 48.46c-.2 0-.48-.15-.67-.24.09-.04.44.2.67.24z" transform="translate(-.05 -.02)"/><path class="cls-3" d="M86 22.43h5.37l4.31 2.14q.72-2.14 4.86-2.14h1.09l3.23 3.23v2.69q0 1.24-2.71 1.63-3.23 0-3.23-2.17h-1.1V31q-1 8.63-7 8.63l-1.62 1.11-6.46-2.17L79 40.74v1.6q3.23 0 3.23 1.09l1.6-1.09.54.54h.54l2.17-.54 1.6.54.54-.54h.54l3.77 1.09.54-.54h.52q4.86 0 8.63 7 0 6-7.54 8.06v-.52L93 58.49v-.54L88.65 59l-4.31-1.09-.54.54h-.52q-4.21 0-8.63-6.46v-.54a8 8 0 012.69-5.92Q75.2 42.3 75.2 40.7v-1.04q1.76-3.23 4.86-3.23L79.51 31q0-4 4.29-7.54zm2.14 23.15l-1.06 1.09h-2.74l-.54-.54-4.29 2.14-.51 3.22h1.08l-.54.54v1.08q4.75 2.14 7.54 2.14l1.6-.54.54.54h.54l2.69-1.08v.54l6.46-2.14v-2.68q-2.4-3.78-5.91-3.78l-1.63.54-.52-.54v-.54l-.54.54H89.2l-.54-.54zm-.57-19.38q0 1.78-3.23 2.14l-1.06 2.14V31l.52 2.71-.52.52a5.12 5.12 0 003.77 1.63l.52 1.63h.54q5.4-1.63 5.4-4.86l1.06-1.08q0-2.45-4.29-4.83v-.52l-.54.54h-1.09l-.54-.54zM110.12 11.24q3.28.41 3.28 1.11l.54-.54h2.74l.54.54 1.65-.54.54.54h.59l2.2-.54 1.63 3.82-.54.54v.54l.54 1.65h-.54l.54.54-.54 1.63.54 3.85-.54.54v.54l.54.54v.54l-.54.54v1.65h.54l-.54 3.82v4.93l-.54.54q.28 5.48 2.2 5.48l.54-.57 2.74.57h6l1.09 1.08v1.12q-.72 2.2-4.93 2.2v-.54l-.54.54h-.54l-1.63-.54-3.28.54-4.4-.55-5.48.54-.54-.54h-.54l-2.2.54h-2.71q-1.65-.54-1.65-3.28v-.54l2.74-.54h.54l.54.54h.54l.57-.54V43l2.71.57h2.74l1.65-1.65v-3.87l-.54-3.28 1.09-3.28-.54-.54v-9.3l-.54-2.2.54-.54v-.54l-1.11-2.2-.54.54h-.54l-2.2-.54-2.17.54v-.54l-.54.54h-2.2L106.84 14zM148.38 20.9l1.14 1.1 1.7-1.14q0 1.14 4 1.14Q162 26.3 162 32.81v.57l-2.84 2.27q0-1.14-1.71-1.14l-1.7.57-.57-.57-1.14 1.14-1.7-1.14-1.14 1.14-.57-.57h-.57l-2.25.57-.57-.57h-.57l-.57.57h-.57l-3.41-.57h-.57v2.27q0 3.07 5.11 7.39l.57-.57h.57l1.11 1.14q5.68 0 10.8-6.25l1.14 1.7v1.14q-3 4.68-10.23 6.23-9.43 0-12.48-10.77l-.57-4a16 16 0 015.68-10.2zm-6.79 10.77v.57l3.41 1.14 1.14-1.14h5.66l.57.57.57-.57h.57l.57.57.57-.57h4v-.57q-.57-7.36-7.39-7.36h-.57q-9.11.91-9.11 7.36zM184.13 21.31l1.71 1.14.57-.57h.59q5.09 3.18 5.09 10.77v.57l-.54 3.38.54 1.71-.54 2.27.54 4.52h4.55l.57.57q1.14 3.38 1.14.57a6.54 6.54 0 01-5.68 2.82v-.57l-.57.57h-1.68l-.57-.57-.57.57h-1.7l-.57-.57-2.84 1.14-1.68-2.25v-1.14q0-1.14 5.66-1.7V44L187 40.59l.57-3.41-.57-2.25.57-1.7L187 31h.57q0-4.52-4.52-5.09-6.82 4.7-6.82 6.79L174 35.47l.57 2.27-.57.57v.57l.57 1.71H174l.57.57L174 44l.57 1.7 2.82-.57q0 1.14 2.27 1.14v2.25l-5.66.57h-4l-2.25.57q-3.41-1.32-3.41-2.25v-.57q0-1.37 5.09-1.7l.57.57v-1.17l-.57-.57 1.14-9-.57-.57v-.57l.57-1.71-.57-.57V31l.57-.57v-.57q-.75-3.38-1.7-3.38l-1.11 1.11-3.41-2.25a5.64 5.64 0 012.84-3.41h5.09q1.7 0 1.7 5.66h.57q3.15-6.27 9.58-6.28zM229.29 20.9l1.13 1.1 1.71-1.14q0 1.14 4 1.14 6.82 4.26 6.82 10.77v.57l-2.84 2.27q0-1.14-1.71-1.14l-1.7.57-.57-.57-1.13 1.18-1.71-1.14-1.14 1.14-.57-.57H231l-2.25.57-.57-.57h-.57l-.57.57h-.57l-3.41-.57h-.57v2.27q0 3.07 5.11 7.39l.57-.57h.57l1.11 1.14q5.68 0 10.8-6.25l1.14 1.7v1.14q-3 4.68-10.23 6.23-9.43 0-12.48-10.77l-.57-4a16 16 0 015.68-10.2zm-6.79 10.77v.57l3.41 1.14 1.09-1.14h5.66l.57.57.57-.57h.57l.57.57.57-.57h4v-.57q-.57-7.36-7.39-7.36h-.57q-9.06.91-9.06 7.36zM248.71 11.24q3.28.41 3.28 1.11l.54-.54h2.74l.54.54 1.65-.54.54.54h.54l2.2-.54 1.63 3.82-.54.54v.54l.54 1.65h-.54l.54.54-.54 1.63.54 3.85-.54.54v.54l.54.54v.54l-.54.54v1.65h.54l-.54 3.82v4.93l-.54.54q.28 5.48 2.2 5.48l.51-.5 2.74.57h6l1.09 1.08v1.05q-.72 2.2-4.93 2.2v-.54l-.54.54h-.54l-1.63-.54-3.28.54-4.39-.54-5.48.54-.54-.54h-.5l-2.19.54h-2.71q-1.65-.54-1.65-3.28v-.54l2.74-.54h.54l.54.54h.54l.57-.54V43l2.71.57h2.74l1.65-1.65v-3.87l-.54-3.28 1.06-3.28-.54-.54v-9.3l-.54-2.2.54-.54v-.54l-1.11-2.2-.54.54h-.54l-2.2-.54-2.17.54v-.54l-.54.54h-2.19L245.43 14zM279.68 11.24q3.28.41 3.28 1.11l.54-.54h2.74l.54.54 1.65-.54.54.54h.54l2.2-.54 1.63 3.82-.54.54v.54l.54 1.65h-.54l.54.54-.54 1.63.54 3.85-.54.54v.54l.54.54v.54l-.54.54v1.65h.54l-.54 3.82v4.93l-.54.54q.28 5.48 2.2 5.48l.54-.5 2.74.57h6l1.09 1.08v1.05q-.72 2.2-4.93 2.2v-.54l-.54.54h-.54l-1.63-.54-3.28.54-4.39-.54-5.48.54-.54-.54h-.5l-2.19.54h-2.71q-1.65-.54-1.65-3.28v-.54l2.74-.54h.54l.54.54h.54l.57-.54V43l2.71.57h2.74l1.65-1.65v-3.87l-.54-3.28 1.06-3.28-.54-.54v-9.3l-.54-2.2.54-.54v-.54l-1.11-2.2-.54.54h-.54l-2.2-.54-2.17.54v-.54l-.54.54h-2.19L276.4 14zM317.94 20.9l1.14 1.1 1.71-1.14q0 1.14 4 1.14 6.82 4.26 6.82 10.77v.57l-2.84 2.27q0-1.14-1.71-1.14l-1.7.57-.57-.57-1.14 1.14-1.71-1.14-1.14 1.14-.57-.57h-.57l-2.25.57-.57-.57h-.57l-.57.57h-.57l-3.41-.57h-.57v2.27q0 3.07 5.11 7.39l.57-.57h.57l1.11 1.14q5.68 0 10.8-6.25l1.14 1.7v1.18q-3 4.68-10.23 6.23-9.43 0-12.48-10.77l-.57-4a16 16 0 015.68-10.2zm-6.79 10.77v.57l3.41 1.14 1.14-1.14h5.66l.57.57.57-.57h.57l.57.57.57-.57h4v-.57q-.57-7.36-7.39-7.36h-.57q-9.1.91-9.1 7.36zM353.69 21.31l1.71 1.14.57-.57h.57q5.09 3.18 5.09 10.77v.57l-.54 3.38.54 1.71-.54 2.27.54 4.52h4.55l.57.57q1.14 3.38 1.14.57a6.54 6.54 0 01-5.68 2.82v-.57l-.57.57h-1.68l-.57-.57-.57.57h-1.72l-.57-.57-2.84 1.14-1.69-2.25v-1.14q0-1.14 5.66-1.7V44l-1.14-3.38.57-3.41-.57-2.25.57-1.7-.55-2.26h.57q0-4.52-4.52-5.09-6.82 4.7-6.82 6.79l-2.25 2.82.57 2.27-.57.57v.57l.57 1.71h-.57l.57.57-.57 2.79.57 1.7 2.82-.57q0 1.14 2.27 1.14v2.25l-5.66.57h-4l-2.25.57q-3.41-1.32-3.41-2.25v-.57q0-1.37 5.09-1.7l.57.57v-1.17L339 44l1.14-9-.57-.57v-.57l.57-1.71-.57-.57V31l.57-.57v-.57q-.75-3.38-1.71-3.38l-1.11 1.11-3.41-2.25a5.64 5.64 0 012.84-3.41h5.09q1.71 0 1.7 5.66h.57q3.15-6.27 9.58-6.28zM399.27 21.12a25.32 25.32 0 018.83 3l2.37-2.37 2.37 1.76-.6 2.94.6 6.49-.6.61h-.58q-3.55-3.41-3.55-5.31l-.58.58h-.58q0-1.62-7.68-3.55l-.61.61-.58-.61q0 1.18-3.55 1.18a1.57 1.57 0 01-1.76 1.79V30q2.06 4.13 4.7 4.13l2.37-.58q2.94.74 2.94 1.76l.61-.6h4.13l.58.6.61-.6h.58l4.71 4.71V40l-.61 2.37.61 2.37a21.77 21.77 0 01-8.24 5.26l-.61-.58-2.94.58q-3.47 0-10-2.34v.61Q392.2 50 391 50h-1.18q-1.18 0-1.18-1.73l.58-3.55-1.76-6.49.61-.58h.58q2 0 5.89 5.89 1.18 0 1.18 2.37l.61-.6h.58l4.09 2.36 2.37-1.18.58.6h.61q5.31 0 5.89-6.49 0-4.13-12.38-4.13l-1.76.58q-.08-.83-7.1-3.52l-.58-5.92q.02-4.48 10.64-6.49zM433.27 10.61h1.15l4.13 2.94v.58q0 1.18-2.34 1.18v.58l1.76.61-.61.58v.58l.61.61v.58h-.61q1.38 3.52 2.37 3.52l.58-.58q8.09 0 10.56 3.52l-6.46 1.76-3.52-.58-2.92.58v16.42l-.61.61.61 1.76h1.76q4.68-.61 4.68-4.13l-.58-2.34L445.6 37l.58-.6h1.76a5 5 0 012.94 4.7v1.18l-.58.58.58.58v1.18q-1.4 0-2.94 3.52L445 50l-1.76-.58-.61.58v.58l-2.89-.58-1.76.58a17.54 17.54 0 01-5.89-6.44V40l-.58-3.52 1.16-2.34-1.16-4.14.58-2.37-1.18-1.15h-1.16l-2.37.58-2.38-.57-2.34.58-1.18-2.34 1.18-2.37.58.6h.58l2.94-.6.58.6 1.76-1.76 1.76.58v-.58l1.18-1.79-.58-.58v-.58l.58-2.94-.58-.58v-.61q.82-3.51 1.81-3.51zm2.34 21.73v1.18l1.76-.61v-.58zM467.22 22.38l.58.58h.58l2.31-.58q9.33 0 12.74 6.36v.58l-.58 1.73.58 1.76-.58 13.89 2.31.58 2.92-3.47q1.16 0 1.15 1.73 0 3.19-4.65 4.62a6.78 6.78 0 01-5.2-2.89h-.58L475.88 49l-.58-.58h-.58l-8.09 2.31q0-1.16-2.92-1.15-4.62-3.85-4.62-7h.58l-.58-.58v-.58q2.2-5.78 9.85-5.78v.58q9.82-2.31 11-4.62 0-2.7-5.81-5.81l-1.73.58-.58-.58q-5.2.58-5.2 1.73v1.15l.58.58q-1.18 3.49-2.31 3.49h-.61q-4 0-4-4.07 2.37-5.2 5.81-5.2zM473.57 38H473l-.58-.58a19.22 19.22 0 01-7.51 1.15l-2.34 4.65q0 2.48 3.49 4.62l.58-.58h1.73l.58.58.58-.58h1.15l.58.58q2.17 0 9.27-5.23l-.58-.58v-5.2l-2.31-.58zM519.13 21.34h.6l1.18 1.18.61-.58h.58q3.74 0 6 5.37v.58a5.22 5.22 0 01-2.39 4.76l-.61-.58-.58.58h-1.82q-2.4-1-2.39-4.15 1.37 0 1.79-3-9.1 0-13.1 11.91v7.15q0 1 3.58 1.79l1.79-.6q8.34.6 8.34 2.39-.61 1.76-3.58 1.76l-8.94-.58-2.39.58v-.58l-.58.58h-9.55l-1.18-1.18V47l1.18-1.18h.6l.61.6.58-.6h4.79l1.18-4.18-.6-.58.6-4.18v-4.81l-.6-2.39.6-.58v-.6q-1.18-3-3.58-3l-3.58.58-1.18-1.79v-1.16l1.18-1.18H503a14.66 14.66 0 016.55 1.18l-.58 3v1.21h1.18q.03-2.67 8.98-6z" transform="translate(-.05 -.02)"/></svg>