<svg xmlns="http://www.w3.org/2000/svg" viewBox="0 0 28.34 23.02"><path d="M28.34 2.74a12.17 12.17 0 01-2.91 3v.76a16.5 16.5 0 01-.68 4.67 16.87 16.87 0 01-2.08 4.47 17.56 17.56 0 01-3.32 3.79 14.78 14.78 0 01-4.64 2.63 17 17 0 01-5.81 1 16.14 16.14 0 01-8.94-2.65 12.56 12.56 0 001.4.07A11.37 11.37 0 008.62 18a5.82 5.82 0 01-5.43-4 7.38 7.38 0 001.1.09 6 6 0 001.53-.2 5.71 5.71 0 01-3.34-2 5.61 5.61 0 01-1.32-3.7v-.07a5.76 5.76 0 002.63.74 5.8 5.8 0 01-1.9-2.1 5.65 5.65 0 01-.7-2.77 5.68 5.68 0 01.77-2.93 16.46 16.46 0 005.3 4.29 16.18 16.18 0 006.7 1.79 6.42 6.42 0 01-.14-1.33 5.6 5.6 0 011.7-4.11 5.82 5.82 0 018.35.13 11.38 11.38 0 003.69-1.4 5.64 5.64 0 01-2.6 3.2 11.56 11.56 0 003.38-.89z" fill="#e0d2c1"/></svg>