<svg xmlns="http://www.w3.org/2000/svg" viewBox="0 0 28.42 28.42"><defs><style>.a{fill:#e0d2c1}</style></defs><title>social--instagram</title><path class="a" d="M28.42 14.21q0 4.24-.09 5.87A8.68 8.68 0 0 1 26 26a8.68 8.68 0 0 1-6 2.29q-1.63.09-5.87.09t-5.87-.09a8.68 8.68 0 0 1-6-2.29 8.68 8.68 0 0 1-2.29-6Q0 18.45 0 14.21t.09-5.86a8.68 8.68 0 0 1 2.29-6 8.68 8.68 0 0 1 6-2.29Q10 0 14.21 0t5.87.09a8.68 8.68 0 0 1 6 2.29 8.69 8.69 0 0 1 2.29 6q.05 1.62.05 5.83zM15.63 2.54h-4.79l-1.78.06a14.79 14.79 0 0 0-1.91.19 7.46 7.46 0 0 0-1.32.34 4.84 4.84 0 0 0-2.7 2.7 7.44 7.44 0 0 0-.34 1.32 14.7 14.7 0 0 0-.19 1.91q0 1.12-.06 1.79t0 2v4.84c0 .49 0 1 .06 1.79a14.69 14.69 0 0 0 .18 1.91 7.43 7.43 0 0 0 .34 1.32 4.84 4.84 0 0 0 2.7 2.7 7.41 7.41 0 0 0 1.32.34 14.54 14.54 0 0 0 1.91.18l1.79.06h6.74l1.79-.06a14.52 14.52 0 0 0 1.91-.18 7.43 7.43 0 0 0 1.32-.34 4.84 4.84 0 0 0 2.7-2.7 7.35 7.35 0 0 0 .34-1.32 14.68 14.68 0 0 0 .19-1.91q0-1.12.06-1.79t0-2v-1.42-1.42-2c0-.49 0-1-.06-1.79a14.69 14.69 0 0 0-.19-1.91 7.37 7.37 0 0 0-.34-1.32 4.84 4.84 0 0 0-2.7-2.7 7.47 7.47 0 0 0-1.32-.34 14.77 14.77 0 0 0-1.91-.19l-1.79-.06zM19.38 9a7 7 0 0 1 2.13 5.16 7.27 7.27 0 0 1-7.29 7.29 7.26 7.26 0 0 1-7.29-7.29 7.26 7.26 0 0 1 7.29-7.29A7 7 0 0 1 19.38 9zm-1.81 8.51a4.74 4.74 0 0 0 0-6.7 4.56 4.56 0 0 0-3.35-1.39 4.74 4.74 0 0 0-4.74 4.74 4.74 4.74 0 0 0 4.74 4.74 4.57 4.57 0 0 0 3.34-1.34zM23 5.42a1.7 1.7 0 0 1 0 2.41 1.7 1.7 0 0 1-2.91-1.2A1.7 1.7 0 0 1 23 5.42z"/></svg>